{
.appVersion = "1361";
DisplayStrings = (
"David/space Ross",
G,
H,
L,
M,
N,
"/OE",
P,
"Þ",
Q,
W,
W,
X,
Y,
Z,
"Ø",
j,
"j/jdotless",
k,
"/kgreenlandic",
d,
"/esh",
h,
l,
m,
"H/Hbar f",
"ñ",
"ø",
"/oe",
p,
"þ",
q,
"æ",
b,
"ß",
t,
u,
v,
w,
"o/tturned oo",
x,
g,
y,
z,
"y/ydieresis",
"/ydotaccent",
"uü",
"/udieresisacute",
"û",
"/ucaron",
"/ubar",
"/istroke/ubar",
"/dieresiscomb.case Ë",
"Ë",
"/Eng",
"aä",
"ä",
"/acutecomb á",
"ð",
"/idotless `/gravecomb ì",
"/tildecomb ã",
"/bstroke",
"/dzcaron",
"/dzcaron",
"/idotless",
"/iota-latin",
"o/dieresiscomb ö",
"ö",
"Ð/Dcroat/asc.cross_part. d/dcroat",
bdh,
"/dcroat",
"b/bstroke/dcroat h/hbar",
"|",
"/divisionslash",
"/peso",
"/kip",
"/naira",
"/peso",
"/hryvnia",
"|",
B,
"/Aturned",
"Ê",
"/Hbar",
C,
U,
"/Vturned",
V,
"/tturned",
"/utildeacute",
"uù",
"ù",
"oõ",
"õ",
"/Edotaccent",
"/Ubar",
"/Tbar/Ubar",
"ò",
"/circumflexcomb ô",
"/ocaron",
"ì",
"/oslashacute",
"/dong",
"/kip/peseta",
"/Lslash",
"/schwa",
"/umacrondieresis"
);
classes = (
{
automatic = 1;

glyphs = (
{
color = 1;
glyphname = A;
lastChange = "2022-09-23 14:49:12 +0000";
layers = (
{
anchors = (
{
name = bottom;
position = "{279, 0}";
},
{
name = ogonek;
position = "{491, 0}";
},
{
name = top;
position = "{331, 652}";
}
);
layerId = "220B7CD1-1E4F-4884-BA06-A44A5DCE8B14";
paths = (
{
closed = 1;
nodes = (
"15 -13 OFFCURVE",
"17 -11 OFFCURVE",
"20 -4 CURVE SMOOTH",
"30 23 OFFCURVE",
"127 224 OFFCURVE",
"142 247 CURVE",
"174 248 OFFCURVE",
"233 251 OFFCURVE",
"285 251 CURVE SMOOTH",
"346 251 OFFCURVE",
"404 249 OFFCURVE",
"425 248 CURVE",
"451 169 OFFCURVE",
"486 52 OFFCURVE",
"493 22 CURVE SMOOTH",
"496 10 OFFCURVE",
"499 6 OFFCURVE",
"502 3 CURVE SMOOTH",
"510 -5 OFFCURVE",
"528 -13 OFFCURVE",
"556 -13 CURVE SMOOTH",
"566 -13 OFFCURVE",
"567 -10 OFFCURVE",
"567 -5 CURVE SMOOTH",
"567 -1 OFFCURVE",
"566 1 OFFCURVE",
"563 10 CURVE SMOOTH",
"533 102 OFFCURVE",
"378 563 OFFCURVE",
"357 634 CURVE SMOOTH",
"355 642 OFFCURVE",
"331 652 OFFCURVE",
"307 652 CURVE SMOOTH",
"300 652 OFFCURVE",
"297 651 OFFCURVE",
"295 646 CURVE SMOOTH",
"239 533 OFFCURVE",
"10 82 OFFCURVE",
"-25 26 CURVE SMOOTH",
"-27 22 OFFCURVE",
"-30 16 OFFCURVE",
"-30 14 CURVE SMOOTH",
"-30 -4 OFFCURVE",
"-10 -13 OFFCURVE",
"10 -13 CURVE SMOOTH"
);
},
{
closed = 1;
nodes = (
"187 336 OFFCURVE",
"278 524 OFFCURVE",
"314 578 CURVE",
"330 533 OFFCURVE",
"394 350 OFFCURVE",
"411 290 CURVE",
"163 290 LINE"
);
}
);
width = 602;
},
{
anchors = (
{
name = bottom;
position = "{260, 0}";
},
{
name = ogonek;
position = "{491, 0}";
},
{
name = top;
position = "{344, 652}";
}
);
layerId = "63F4CE79-9D5F-46D3-B41C-385689F27F0A";
paths = (
{
closed = 1;
nodes = (
"75 -13 OFFCURVE",
"76 -8 OFFCURVE",
"78 -3 CURVE",
"100 58 OFFCURVE",
"132 139 OFFCURVE",
"138 154 CURVE",
"152 155 OFFCURVE",
"191 157 OFFCURVE",
"237 157 CURVE SMOOTH",
"263 157 OFFCURVE",
"325 155 OFFCURVE",
"355 152 CURVE",
"361 124 OFFCURVE",
"366 96 OFFCURVE",
"369 68 CURVE SMOOTH",
"371 51 OFFCURVE",
"377 41 OFFCURVE",
"385 33 CURVE SMOOTH",
"416 2 OFFCURVE",
"500 -13 OFFCURVE",
"555 -13 CURVE SMOOTH",
"601 -13 OFFCURVE",
"609 -4 OFFCURVE",
"609 14 CURVE SMOOTH",
"609 17 OFFCURVE",
"608 24 OFFCURVE",
"604 41 CURVE SMOOTH",
"587 121 OFFCURVE",
"508 425 OFFCURVE",
"475 588 CURVE SMOOTH",
"468 623 OFFCURVE",
"378 652 OFFCURVE",
"284 652 CURVE SMOOTH",
"239 652 OFFCURVE",
"232 646 OFFCURVE",
"226 626 CURVE SMOOTH",
"211 579 OFFCURVE",
"85 311 OFFCURVE",
"-19 87 CURVE SMOOTH",
"-27 70 OFFCURVE",
"-28 66 OFFCURVE",
"-28 58 CURVE SMOOTH",
"-28 16 OFFCURVE",
"17 -13 OFFCURVE",
"58 -13 CURVE"
);
},
{
closed = 1;
nodes = (
"205 318 OFFCURVE",
"258 439 OFFCURVE",
"280 475 CURVE",
"289 437 OFFCURVE",
"321 302 OFFCURVE",
"333 247 CURVE",
"175 247 LINE"
);
}
);
width = 640;
}
);
note = A;
unicode = 0041;
},
{
color = 0;
glyphname = "Alpha-latin";
lastChange = "2022-09-23 16:23:32 +0000";
layers = (
{
layerId = "220B7CD1-1E4F-4884-BA06-A44A5DCE8B14";
paths = (
{
closed = 1;
nodes = (
"444 -13 OFFCURVE",
"512 10 OFFCURVE",
"533 26 CURVE SMOOTH",
"541 32 OFFCURVE",
"543 50 OFFCURVE",
"543 68 CURVE SMOOTH",
"543 76 OFFCURVE",
"543 82 OFFCURVE",
"541 82 CURVE SMOOTH",
"538 82 OFFCURVE",
"533 79 OFFCURVE",
"525 74 CURVE SMOOTH",
"498 57 OFFCURVE",
"438 32 OFFCURVE",
"360 32 CURVE SMOOTH",
"246 32 OFFCURVE",
"124 121 OFFCURVE",
"124 316 CURVE SMOOTH",
"124 513 OFFCURVE",
"244 613 OFFCURVE",
"367 613 CURVE SMOOTH",
"470 613 OFFCURVE",
"520 555 OFFCURVE",
"534 555 CURVE SMOOTH",
"539 555 OFFCURVE",
"543 581 OFFCURVE",
"543 596 CURVE SMOOTH",
"543 603 OFFCURVE",
"545 610 OFFCURVE",
"528 620 CURVE SMOOTH",
"495 640 OFFCURVE",
"443 652 OFFCURVE",
"357 652 CURVE SMOOTH",
"152 652 OFFCURVE",
"63 476 OFFCURVE",
"63 312 CURVE SMOOTH",
"63 58 OFFCURVE",
"241 -13 OFFCURVE",
"368 -13 CURVE SMOOTH"
);
},
{
closed = 1;
nodes = (
"567 -13 OFFCURVE",
"569 -10 OFFCURVE",
"569 -5 CURVE SMOOTH",
"569 317 OFFCURVE",
"604 612 OFFCURVE",
"604 626 CURVE SMOOTH",
"604 644 OFFCURVE",
"574 652 OFFCURVE",
"551 652 CURVE SMOOTH",
"542 652 OFFCURVE",
"541 650 OFFCURVE",
"541 645 CURVE SMOOTH",
"538 537 OFFCURVE",
"506 26 OFFCURVE",
"506 14 CURVE SMOOTH",
"506 -4 OFFCURVE",
"536 -13 OFFCURVE",
"559 -13 CURVE SMOOTH"
);
}
);
width = 629;
},
{
layerId = "63F4CE79-9D5F-46D3-B41C-385689F27F0A";
paths = (
{
closed = 1;
nodes = (
"444 -13 OFFCURVE",
"512 10 OFFCURVE",
"533 26 CURVE SMOOTH",
"541 32 OFFCURVE",
"543 50 OFFCURVE",
"543 68 CURVE SMOOTH",
"543 76 OFFCURVE",
"543 82 OFFCURVE",
"541 82 CURVE SMOOTH",
"538 82 OFFCURVE",
"533 79 OFFCURVE",
"525 74 CURVE SMOOTH",
"498 57 OFFCURVE",
"438 32 OFFCURVE",
"360 32 CURVE SMOOTH",
"246 32 OFFCURVE",
"124 121 OFFCURVE",
"124 316 CURVE SMOOTH",
"124 513 OFFCURVE",
"244 613 OFFCURVE",
"367 613 CURVE SMOOTH",
"470 613 OFFCURVE",
"520 555 OFFCURVE",
"534 555 CURVE SMOOTH",
"539 555 OFFCURVE",
"543 581 OFFCURVE",
"543 596 CURVE SMOOTH",
"543 603 OFFCURVE",
"545 610 OFFCURVE",
"528 620 CURVE SMOOTH",
"495 640 OFFCURVE",
"443 652 OFFCURVE",
"357 652 CURVE SMOOTH",
"152 652 OFFCURVE",
"63 476 OFFCURVE",
"63 312 CURVE SMOOTH",
"63 58 OFFCURVE",
"241 -13 OFFCURVE",
"368 -13 CURVE SMOOTH"
);
},
{
closed = 1;
nodes = (
"567 -13 OFFCURVE",
"569 -10 OFFCURVE",
"569 -5 CURVE SMOOTH",
"569 317 OFFCURVE",
"604 612 OFFCURVE",
"604 626 CURVE SMOOTH",
"604 644 OFFCURVE",
"574 652 OFFCURVE",
"551 652 CURVE SMOOTH",
"542 652 OFFCURVE",
"541 650 OFFCURVE",
"541 645 CURVE SMOOTH",
"538 537 OFFCURVE",
"506 26 OFFCURVE",
"506 14 CURVE SMOOTH",
"506 -4 OFFCURVE",
"536 -13 OFFCURVE",
"559 -13 CURVE SMOOTH"
);
}
);
width = 629;
}
);
unicode = 2C6D;
},
{
color = 4;
glyphname = AE;
lastChange = "2022-09-23 15:00:56 +0000";
layers = (
{
anchors = (
{
name = bottom;
position = "{357, 0}";
},
{
name = top;
position = "{369, 652}";
}
);
layerId = "220B7CD1-1E4F-4884-BA06-A44A5DCE8B14";
paths = (
{
closed = 1;
nodes = (
"-44 -13 OFFCURVE",
"-40 -5 OFFCURVE",
"-22 31 CURVE SMOOTH",
"0 75 OFFCURVE",
"72 209 OFFCURVE",
"115 270 CURVE",
"131 271 OFFCURVE",
"205 271 OFFCURVE",
"255 271 CURVE SMOOTH",
"295 271 LINE",
"287 188 OFFCURVE",
"281 38 OFFCURVE",
"277 0 CURVE",
"640 0 LINE SMOOTH",
"647 0 OFFCURVE",
"657 26 OFFCURVE",
"657 44 CURVE SMOOTH",
"657 52 OFFCURVE",
"657 58 OFFCURVE",
"655 58 CURVE SMOOTH",
"652 58 OFFCURVE",
"573 37 OFFCURVE",
"432 37 CURVE SMOOTH",
"355 37 OFFCURVE",
"344 43 OFFCURVE",
"344 82 CURVE SMOOTH",
"344 149 OFFCURVE",
"345 228 OFFCURVE",
"350 312 CURVE",
"390 312 LINE SMOOTH",
"531 312 OFFCURVE",
"579 304 OFFCURVE",
"583 304 CURVE SMOOTH",
"587 304 OFFCURVE",
"593 326 OFFCURVE",
"593 341 CURVE SMOOTH",
"593 349 OFFCURVE",
"591 355 OFFCURVE",
"588 355 CURVE SMOOTH",
"353 355 LINE",
"359 458 OFFCURVE",
"368 552 OFFCURVE",
"374 596 CURVE",
"407 596 LINE SMOOTH",
"548 596 OFFCURVE",
"596 587 OFFCURVE",
"599 587 CURVE SMOOTH",
"603 587 OFFCURVE",
"610 610 OFFCURVE",
"610 625 CURVE SMOOTH",
"610 633 OFFCURVE",
"607 639 OFFCURVE",
"605 639 CURVE SMOOTH",
"302 639 LINE SMOOTH",
"291 639 OFFCURVE",
"289 634 OFFCURVE",
"283 626 CURVE SMOOTH",
"185 478 OFFCURVE",
"23 209 OFFCURVE",
"-66 71 CURVE SMOOTH",
"-79 51 OFFCURVE",
"-80 43 OFFCURVE",
"-80 29 CURVE SMOOTH",
"-80 7 OFFCURVE",
"-53 -13 OFFCURVE",
"-49 -13 CURVE SMOOTH"
);
},
{
closed = 1;
nodes = (
"183 392 OFFCURVE",
"262 514 OFFCURVE",
"311 586 CURVE",
"310 520 OFFCURVE",
"302 401 OFFCURVE",
"298 310 CURVE",
"137 310 LINE"
);
}
);
width = 714;
},
{
anchors = (
{
name = bottom;
position = "{357, 0}";
},
{
name = top;
position = "{369, 652}";
}
);
layerId = "63F4CE79-9D5F-46D3-B41C-385689F27F0A";
paths = (
{
closed = 1;
nodes = (
"58 -13 OFFCURVE",
"59 -8 OFFCURVE",
"61 -3 CURVE",
"83 58 OFFCURVE",
"120 139 OFFCURVE",
"130 154 CURVE",
"144 155 OFFCURVE",
"183 157 OFFCURVE",
"229 157 CURVE",
"278 157 LINE",
"274 76 OFFCURVE",
"270 15 OFFCURVE",
"270 0 CURVE",
"700 0 LINE",
"729 0 OFFCURVE",
"735 67 OFFCURVE",
"735 86 CURVE",
"735 112 OFFCURVE",
"735 119 OFFCURVE",
"728 119 CURVE",
"718 119 OFFCURVE",
"646 106 OFFCURVE",
"570 106 CURVE",
"493 106 OFFCURVE",
"482 115 OFFCURVE",
"482 146 CURVE",
"482 190 OFFCURVE",
"487 264 OFFCURVE",
"487 277 CURVE",
"509 277 LINE",
"588 277 OFFCURVE",
"662 272 OFFCURVE",
"671 272 CURVE",
"681 272 OFFCURVE",
"687 313 OFFCURVE",
"687 342 CURVE",
"687 367 OFFCURVE",
"682 374 OFFCURVE",
"666 374 CURVE",
"490 374 LINE",
"490 418 OFFCURVE",
"497 524 OFFCURVE",
"502 541 CURVE",
"528 541 LINE",
"590 541 OFFCURVE",
"673 537 OFFCURVE",
"682 537 CURVE",
"692 537 OFFCURVE",
"698 577 OFFCURVE",
"698 606 CURVE",
"698 631 OFFCURVE",
"693 639 OFFCURVE",
"677 639 CURVE",
"302 639 LINE",
"257 639 OFFCURVE",
"254 632 OFFCURVE",
"244 613 CURVE",
"225 576 OFFCURVE",
"68 284 OFFCURVE",
"-36 87 CURVE",
"-45 70 OFFCURVE",
"-45 66 OFFCURVE",
"-45 58 CURVE",
"-45 16 OFFCURVE",
"0 -13 OFFCURVE",
"41 -13 CURVE"
);
},
{
closed = 1;
nodes = (
"195 302 OFFCURVE",
"272 443 OFFCURVE",
"294 476 CURVE",
"293 439 OFFCURVE",
"285 271 OFFCURVE",
"284 247 CURVE",
"165 247 LINE"
);
}
);
width = 732;
}
);
note = AE;
unicode = 00C6;
},
{
color = 1;
glyphname = B;
lastChange = "2022-09-24 02:38:56 +0000";
layers = (
{
anchors = (
{
name = bottom;
position = "{244, 0}";
},
{
name = top;
position = "{284, 652}";
}
);
layerId = "220B7CD1-1E4F-4884-BA06-A44A5DCE8B14";
paths = (
{
closed = 1;
nodes = (
"254 0 LINE SMOOTH",
"401 0 OFFCURVE",
"480 102 OFFCURVE",
"480 196 CURVE SMOOTH",
"480 272 OFFCURVE",
"431 341 OFFCURVE",
"325 350 CURVE",
"351 360 OFFCURVE",
"460 397 OFFCURVE",
"460 510 CURVE SMOOTH",
"460 593 OFFCURVE",
"398 639 OFFCURVE",
"275 639 CURVE SMOOTH",
"132 639 LINE",
"123 422 OFFCURVE",
"103 76 OFFCURVE",
"96 0 CURVE"
);
},
{
closed = 1;
nodes = (
"174 37 OFFCURVE",
"162 43 OFFCURVE",
"162 82 CURVE SMOOTH",
"162 142 OFFCURVE",
"166 278 OFFCURVE",
"170 320 CURVE",
"199 320 OFFCURVE",
"228 320 OFFCURVE",
"257 320 CURVE SMOOTH",
"319 320 OFFCURVE",
"420 305 OFFCURVE",
"420 199 CURVE SMOOTH",
"420 91 OFFCURVE",
"353 37 OFFCURVE",
"251 37 CURVE SMOOTH"
);
},
{
closed = 1;
nodes = (
"179 460 OFFCURVE",
"186 551 OFFCURVE",
"193 596 CURVE",
"212 598 OFFCURVE",
"248 602 OFFCURVE",
"267 602 CURVE SMOOTH",
"355 602 OFFCURVE",
"401 575 OFFCURVE",
"401 503 CURVE SMOOTH",
"401 460 OFFCURVE",
"381 419 OFFCURVE",
"353 397 CURVE SMOOTH",
"311 364 OFFCURVE",
"264 357 OFFCURVE",
"174 357 CURVE"
);
}
);
width = 567;
},
{
anchors = (
{
name = bottom;
position = "{348, 0}";
},
{
name = top;
position = "{383, 652}";
}
);
layerId = "63F4CE79-9D5F-46D3-B41C-385689F27F0A";
paths = (
{
closed = 1;
nodes = (
"403 0 LINE SMOOTH",
"569 0 OFFCURVE",
"670 85 OFFCURVE",
"670 205 CURVE SMOOTH",
"670 294 OFFCURVE",
"604 342 OFFCURVE",
"515 351 CURVE",
"579 364 OFFCURVE",
"658 413 OFFCURVE",
"658 502 CURVE SMOOTH",
"658 603 OFFCURVE",
"580 639 OFFCURVE",
"444 639 CURVE SMOOTH",
"82 639 LINE",
"82 441 OFFCURVE",
"53 42 OFFCURVE",
"53 0 CURVE"
);
},
{
closed = 1;
nodes = (
"292 88 OFFCURVE",
"275 100 OFFCURVE",
"277 135 CURVE",
"280 193 OFFCURVE",
"282 250 OFFCURVE",
"285 308 CURVE",
"294 308 OFFCURVE",
"304 308 OFFCURVE",
"317 306 CURVE SMOOTH",
"383 296 OFFCURVE",
"442 265 OFFCURVE",
"442 185 CURVE SMOOTH",
"442 140 OFFCURVE",
"406 88 OFFCURVE",
"333 88 CURVE"
);
},
{
closed = 1;
nodes = (
"286 386 OFFCURVE",
"295 529 OFFCURVE",
"300 553 CURVE",
"312 553 OFFCURVE",
"323 553 OFFCURVE",
"335 553 CURVE SMOOTH",
"400 553 OFFCURVE",
"433 520 OFFCURVE",
"433 471 CURVE SMOOTH",
"433 441 OFFCURVE",
"422 411 OFFCURVE",
"396 388 CURVE SMOOTH",
"373 368 OFFCURVE",
"338 354 OFFCURVE",
"288 354 CURVE"
);
}
);
width = 713;
}
);
note = B;
unicode = 0042;
},
{
color = 4;
glyphname = Bstroke;
lastChange = "2022-09-24 03:08:52 +0000";
layers = (
{
anchors = (
{
name = bottom;
position = "{266, 0}";
},
{
name = top;
position = "{306, 652}";
}
);
layerId = "220B7CD1-1E4F-4884-BA06-A44A5DCE8B14";
paths = (
{
closed = 1;
nodes = (
"276 0 LINE SMOOTH",
"423 0 OFFCURVE",
"502 102 OFFCURVE",
"502 196 CURVE SMOOTH",
"502 272 OFFCURVE",
"453 341 OFFCURVE",
"347 350 CURVE",
"373 360 OFFCURVE",
"482 397 OFFCURVE",
"482 510 CURVE SMOOTH",
"482 593 OFFCURVE",
"420 639 OFFCURVE",
"297 639 CURVE SMOOTH",
"154 639 LINE",
"145 422 OFFCURVE",
"125 76 OFFCURVE",
"118 0 CURVE"
);
},
{
closed = 1;
nodes = (
"42 163 OFFCURVE",
"309 164 OFFCURVE",
"314 164 CURVE SMOOTH",
"323 164 OFFCURVE",
"328 183 OFFCURVE",
"328 201 CURVE SMOOTH",
"328 207 OFFCURVE",
"325 211 OFFCURVE",
"320 211 CURVE",
"47 211 LINE",
"38 211 OFFCURVE",
"32 191 OFFCURVE",
"32 173 CURVE SMOOTH",
"32 167 OFFCURVE",
"34 163 OFFCURVE",
"39 163 CURVE SMOOTH"
);
},
{
closed = 1;
nodes = (
"196 37 OFFCURVE",
"184 43 OFFCURVE",
"184 82 CURVE SMOOTH",
"184 142 OFFCURVE",
"188 278 OFFCURVE",
"192 320 CURVE",
"221 320 OFFCURVE",
"250 320 OFFCURVE",
"279 320 CURVE SMOOTH",
"341 320 OFFCURVE",
"442 305 OFFCURVE",
"442 199 CURVE SMOOTH",
"442 91 OFFCURVE",
"375 37 OFFCURVE",
"273 37 CURVE SMOOTH"
);
},
{
closed = 1;
nodes = (
"201 460 OFFCURVE",
"208 551 OFFCURVE",
"215 596 CURVE",
"234 598 OFFCURVE",
"270 602 OFFCURVE",
"289 602 CURVE SMOOTH",
"377 602 OFFCURVE",
"423 575 OFFCURVE",
"423 503 CURVE SMOOTH",
"423 460 OFFCURVE",
"403 419 OFFCURVE",
"375 397 CURVE SMOOTH",
"333 364 OFFCURVE",
"286 357 OFFCURVE",
"196 357 CURVE"
);
}
);
width = 589;
},
{
anchors = (
{
name = bottom;
position = "{242, 0}";
},
{
name = top;
position = "{282, 652}";
}
);
layerId = "63F4CE79-9D5F-46D3-B41C-385689F27F0A";
paths = (
{
closed = 1;
nodes = (
"252 0 LINE SMOOTH",
"399 0 OFFCURVE",
"478 102 OFFCURVE",
"478 196 CURVE SMOOTH",
"478 272 OFFCURVE",
"429 341 OFFCURVE",
"323 350 CURVE",
"349 360 OFFCURVE",
"458 397 OFFCURVE",
"458 510 CURVE SMOOTH",
"458 593 OFFCURVE",
"396 639 OFFCURVE",
"273 639 CURVE SMOOTH",
"130 639 LINE",
"121 422 OFFCURVE",
"101 76 OFFCURVE",
"94 0 CURVE"
);
},
{
closed = 1;
nodes = (
"18 163 OFFCURVE",
"285 164 OFFCURVE",
"290 164 CURVE SMOOTH",
"299 164 OFFCURVE",
"304 183 OFFCURVE",
"304 201 CURVE SMOOTH",
"304 207 OFFCURVE",
"301 211 OFFCURVE",
"296 211 CURVE",
"23 211 LINE",
"14 211 OFFCURVE",
"8 191 OFFCURVE",
"8 173 CURVE SMOOTH",
"8 167 OFFCURVE",
"10 163 OFFCURVE",
"15 163 CURVE SMOOTH"
);
},
{
closed = 1;
nodes = (
"172 37 OFFCURVE",
"160 43 OFFCURVE",
"160 82 CURVE SMOOTH",
"160 142 OFFCURVE",
"164 278 OFFCURVE",
"168 320 CURVE",
"197 320 OFFCURVE",
"226 320 OFFCURVE",
"255 320 CURVE SMOOTH",
"317 320 OFFCURVE",
"418 305 OFFCURVE",
"418 199 CURVE SMOOTH",
"418 91 OFFCURVE",
"351 37 OFFCURVE",
"249 37 CURVE SMOOTH"
);
},
{
closed = 1;
nodes = (
"177 460 OFFCURVE",
"184 551 OFFCURVE",
"191 596 CURVE",
"210 598 OFFCURVE",
"246 602 OFFCURVE",
"265 602 CURVE SMOOTH",
"353 602 OFFCURVE",
"399 575 OFFCURVE",
"399 503 CURVE SMOOTH",
"399 460 OFFCURVE",
"379 419 OFFCURVE",
"351 397 CURVE SMOOTH",
"309 364 OFFCURVE",
"262 357 OFFCURVE",
"172 357 CURVE"
);
}
);
width = 522;
}
);
leftMetricsKey = Eth;
rightMetricsKey = B;
unicode = 0243;
},
{
color = 1;
glyphname = C;
lastChange = "2022-09-24 02:42:46 +0000";
layers = (
{
anchors = (
{
name = bottom;
position = "{368, 0}";
},
{
name = top;
position = "{407, 652}";
}
);
layerId = "220B7CD1-1E4F-4884-BA06-A44A5DCE8B14";
paths = (
{
closed = 1;
nodes = (
"496 -13 OFFCURVE",
"580 10 OFFCURVE",
"606 26 CURVE SMOOTH",
"616 32 OFFCURVE",
"619 50 OFFCURVE",
"619 68 CURVE SMOOTH",
"619 76 OFFCURVE",
"619 82 OFFCURVE",
"616 82 CURVE SMOOTH",
"613 82 OFFCURVE",
"606 79 OFFCURVE",
"596 74 CURVE SMOOTH",
"563 57 OFFCURVE",
"488 32 OFFCURVE",
"391 32 CURVE SMOOTH",
"247 32 OFFCURVE",
"124 121 OFFCURVE",
"124 316 CURVE SMOOTH",
"124 513 OFFCURVE",
"246 613 OFFCURVE",
"399 613 CURVE SMOOTH",
"528 613 OFFCURVE",
"590 555 OFFCURVE",
"608 555 CURVE SMOOTH",
"614 555 OFFCURVE",
"619 581 OFFCURVE",
"619 596 CURVE SMOOTH",
"619 603 OFFCURVE",
"621 610 OFFCURVE",
"600 620 CURVE SMOOTH",
"559 640 OFFCURVE",
"494 652 OFFCURVE",
"387 652 CURVE SMOOTH",
"152 652 OFFCURVE",
"63 476 OFFCURVE",
"63 312 CURVE SMOOTH",
"63 58 OFFCURVE",
"244 -13 OFFCURVE",
"401 -13 CURVE SMOOTH"
);
}
);
width = 629;
},
{
anchors = (
{
name = bottom;
position = "{368, 0}";
},
{
name = top;
position = "{407, 652}";
}
);
layerId = "63F4CE79-9D5F-46D3-B41C-385689F27F0A";
paths = (
{
closed = 1;
nodes = (
"466 -13 OFFCURVE",
"505 -10 OFFCURVE",
"564 7 CURVE SMOOTH",
"593 15 OFFCURVE",
"612 46 OFFCURVE",
"612 117 CURVE SMOOTH",
"612 131 OFFCURVE",
"610 137 OFFCURVE",
"601 137 CURVE SMOOTH",
"596 137 OFFCURVE",
"589 135 OFFCURVE",
"579 132 CURVE SMOOTH",
"522 113 OFFCURVE",
"482 110 OFFCURVE",
"429 110 CURVE SMOOTH",
"312 110 OFFCURVE",
"263 165 OFFCURVE",
"263 313 CURVE",
"263 492 OFFCURVE",
"338 526 OFFCURVE",
"413 526 CURVE SMOOTH",
"522 526 OFFCURVE",
"576 486 OFFCURVE",
"593 486 CURVE",
"626 486 OFFCURVE",
"629 555 OFFCURVE",
"629 571 CURVE",
"629 595 OFFCURVE",
"625 613 OFFCURVE",
"602 621 CURVE",
"539 643 OFFCURVE",
"473 652 OFFCURVE",
"406 652 CURVE",
"191 652 OFFCURVE",
"35 594 OFFCURVE",
"35 275 CURVE",
"35 63 OFFCURVE",
"159 -13 OFFCURVE",
"392 -13 CURVE SMOOTH"
);
}
);
width = 629;
}
);
note = C;
unicode = 0043;
},
{
color = 1;
glyphname = D;
lastChange = "2022-09-23 15:03:41 +0000";
layers = (
{
anchors = (
{
name = bottom;
position = "{329, 0}";
},
{
name = center;
position = "{369, 326}";
},
{
name = top;
position = "{369, 652}";
}
);
layerId = "220B7CD1-1E4F-4884-BA06-A44A5DCE8B14";
paths = (
{
closed = 1;
nodes = (
"278 0 LINE SMOOTH",
"555 0 OFFCURVE",
"674 157 OFFCURVE",
"674 365 CURVE SMOOTH",
"674 552 OFFCURVE",
"559 639 OFFCURVE",
"358 639 CURVE SMOOTH",
"132 639 LINE",
"123 422 OFFCURVE",
"99 37 OFFCURVE",
"96 0 CURVE"
);
},
{
closed = 1;
nodes = (
"174 37 OFFCURVE",
"162 43 OFFCURVE",
"162 82 CURVE SMOOTH",
"162 262 OFFCURVE",
"181 458 OFFCURVE",
"193 596 CURVE",
"239 601 OFFCURVE",
"281 603 OFFCURVE",
"320 603 CURVE SMOOTH",
"515 603 OFFCURVE",
"606 537 OFFCURVE",
"606 349 CURVE SMOOTH",
"606 123 OFFCURVE",
"465 37 OFFCURVE",
"251 37 CURVE SMOOTH"
);
}
);
width = 737;
},
{
anchors = (
{
name = bottom;
position = "{369, 0}";
},
{
name = center;
position = "{369, 326}";
},
{
name = top;
position = "{428, 652}";
}
);
layerId = "63F4CE79-9D5F-46D3-B41C-385689F27F0A";
paths = (
{
closed = 1;
nodes = (
"405 0 LINE SMOOTH",
"595 0 OFFCURVE",
"753 80 OFFCURVE",
"753 364 CURVE SMOOTH",
"753 623 OFFCURVE",
"592 639 OFFCURVE",
"436 639 CURVE SMOOTH",
"82 639 LINE",
"82 441 OFFCURVE",
"53 42 OFFCURVE",
"53 0 CURVE"
);
},
{
closed = 1;
nodes = (
"289 92 OFFCURVE",
"278 98 OFFCURVE",
"278 137 CURVE",
"278 327 OFFCURVE",
"296 519 OFFCURVE",
"298 542 CURVE",
"318 545 OFFCURVE",
"342 547 OFFCURVE",
"388 547 CURVE SMOOTH",
"473 547 OFFCURVE",
"525 496 OFFCURVE",
"525 364 CURVE SMOOTH",
"525 122 OFFCURVE",
"461 92 OFFCURVE",
"366 92 CURVE SMOOTH"
);
}
);
width = 788;
}
);
note = D;
unicode = 0044;
},
{
color = 4;
glyphname = Eth;
lastChange = "2022-09-24 03:09:45 +0000";
layers = (
{
layerId = "220B7CD1-1E4F-4884-BA06-A44A5DCE8B14";
paths = (
{
closed = 1;
nodes = (
"290 0 LINE SMOOTH",
"567 0 OFFCURVE",
"686 157 OFFCURVE",
"686 365 CURVE SMOOTH",
"686 552 OFFCURVE",
"571 639 OFFCURVE",
"370 639 CURVE SMOOTH",
"144 639 LINE",
"140 554 OFFCURVE",
"135 448 OFFCURVE",
"130 349 CURVE",
"55 349 LINE SMOOTH",
"46 349 OFFCURVE",
"40 329 OFFCURVE",
"40 311 CURVE SMOOTH",
"40 305 OFFCURVE",
"42 301 OFFCURVE",
"47 301 CURVE SMOOTH",
"50 301 OFFCURVE",
"85 305 OFFCURVE",
"128 305 CURVE",
"120 165 OFFCURVE",
"113 40 OFFCURVE",
"108 0 CURVE"
);
},
{
closed = 1;
nodes = (
"186 37 OFFCURVE",
"174 43 OFFCURVE",
"174 82 CURVE SMOOTH",
"174 156 OFFCURVE",
"177 232 OFFCURVE",
"182 305 CURVE",
"282 304 OFFCURVE",
"317 302 OFFCURVE",
"322 302 CURVE SMOOTH",
"331 302 OFFCURVE",
"336 321 OFFCURVE",
"336 339 CURVE SMOOTH",
"336 345 OFFCURVE",
"333 349 OFFCURVE",
"328 349 CURVE SMOOTH",
"185 349 LINE",
"191 441 OFFCURVE",
"200 526 OFFCURVE",
"205 596 CURVE",
"251 601 OFFCURVE",
"293 603 OFFCURVE",
"332 603 CURVE SMOOTH",
"527 603 OFFCURVE",
"618 538 OFFCURVE",
"618 349 CURVE SMOOTH",
"618 124 OFFCURVE",
"477 37 OFFCURVE",
"263 37 CURVE SMOOTH"
);
}
);
width = 749;
},
{
layerId = "63F4CE79-9D5F-46D3-B41C-385689F27F0A";
paths = (
{
closed = 1;
nodes = (
"425 0 LINE SMOOTH",
"615 0 OFFCURVE",
"773 80 OFFCURVE",
"773 364 CURVE SMOOTH",
"773 623 OFFCURVE",
"612 639 OFFCURVE",
"456 639 CURVE SMOOTH",
"102 639 LINE",
"102 566 OFFCURVE",
"98 466 OFFCURVE",
"94 379 CURVE SMOOTH",
"41 379 LINE SMOOTH",
"26 379 OFFCURVE",
"15 348 OFFCURVE",
"15 299 CURVE SMOOTH",
"15 265 OFFCURVE",
"18 261 OFFCURVE",
"28 261 CURVE SMOOTH",
"43 261 OFFCURVE",
"68 261 OFFCURVE",
"89 261 CURVE SMOOTH",
"81 132 OFFCURVE",
"73 21 OFFCURVE",
"73 0 CURVE"
);
},
{
closed = 1;
nodes = (
"309 92 OFFCURVE",
"298 98 OFFCURVE",
"298 137 CURVE",
"298 181 OFFCURVE",
"299 224 OFFCURVE",
"301 261 CURVE SMOOTH",
"337 261 OFFCURVE",
"369 261 OFFCURVE",
"403 261 CURVE SMOOTH",
"418 261 OFFCURVE",
"429 292 OFFCURVE",
"429 343 CURVE SMOOTH",
"429 376 OFFCURVE",
"426 379 OFFCURVE",
"416 379 CURVE SMOOTH",
"306 379 LINE SMOOTH",
"310 461 OFFCURVE",
"317 529 OFFCURVE",
"318 542 CURVE",
"338 545 OFFCURVE",
"362 547 OFFCURVE",
"408 547 CURVE SMOOTH",
"493 547 OFFCURVE",
"545 496 OFFCURVE",
"545 363 CURVE SMOOTH",
"545 122 OFFCURVE",
"481 92 OFFCURVE",
"386 92 CURVE SMOOTH"
);
}
);
width = 808;
}
);
note = Eth;
rightMetricsKey = D;
unicode = 00D0;
},
{
color = 1;
glyphname = E;
lastChange = "2022-09-23 15:03:41 +0000";
layers = (
{
anchors = (
{
name = bottom;
position = "{277, 0}";
},
{
name = ogonek;
position = "{417, 0}";
},
{
name = top;
position = "{307, 652}";
},
{
name = topleft;
position = "{20, 652}";
}
);
layerId = "220B7CD1-1E4F-4884-BA06-A44A5DCE8B14";
paths = (
{
closed = 1;
nodes = (
"480 0 LINE SMOOTH",
"487 0 OFFCURVE",
"497 26 OFFCURVE",
"497 44 CURVE SMOOTH",
"497 52 OFFCURVE",
"497 58 OFFCURVE",
"492 58 CURVE SMOOTH",
"485 58 OFFCURVE",
"433 37 OFFCURVE",
"252 37 CURVE SMOOTH",
"175 37 OFFCURVE",
"163 43 OFFCURVE",
"163 82 CURVE SMOOTH",
"163 149 OFFCURVE",
"165 228 OFFCURVE",
"170 312 CURVE",
"210 312 LINE SMOOTH",
"351 312 OFFCURVE",
"419 304 OFFCURVE",
"423 304 CURVE SMOOTH",
"427 304 OFFCURVE",
"433 326 OFFCURVE",
"433 341 CURVE SMOOTH",
"433 349 OFFCURVE",
"430 355 OFFCURVE",
"428 355 CURVE SMOOTH",
"172 355 LINE",
"179 458 OFFCURVE",
"187 552 OFFCURVE",
"194 596 CURVE",
"226 596 LINE SMOOTH",
"367 596 OFFCURVE",
"436 587 OFFCURVE",
"439 587 CURVE SMOOTH",
"443 587 OFFCURVE",
"449 610 OFFCURVE",
"449 625 CURVE SMOOTH",
"449 633 OFFCURVE",
"447 639 OFFCURVE",
"444 639 CURVE SMOOTH",
"133 639 LINE",
"124 422 OFFCURVE",
"104 76 OFFCURVE",
"96 0 CURVE"
);
}
);
width = 554;
},
{
anchors = (
{
name = bottom;
position = "{277, 0}";
},
{
name = ogonek;
position = "{417, 0}";
},
{
name = top;
position = "{307, 652}";
},
{
name = topleft;
position = "{20, 652}";
}
);
layerId = "63F4CE79-9D5F-46D3-B41C-385689F27F0A";
paths = (
{
closed = 1;
nodes = (
"496 0 LINE SMOOTH",
"525 0 OFFCURVE",
"531 67 OFFCURVE",
"531 86 CURVE SMOOTH",
"531 112 OFFCURVE",
"531 119 OFFCURVE",
"524 119 CURVE SMOOTH",
"514 119 OFFCURVE",
"442 106 OFFCURVE",
"366 106 CURVE SMOOTH",
"289 106 OFFCURVE",
"278 115 OFFCURVE",
"278 146 CURVE",
"278 190 OFFCURVE",
"283 264 OFFCURVE",
"283 277 CURVE",
"305 277 LINE SMOOTH",
"384 277 OFFCURVE",
"458 272 OFFCURVE",
"467 272 CURVE SMOOTH",
"477 272 OFFCURVE",
"483 313 OFFCURVE",
"483 342 CURVE SMOOTH",
"483 367 OFFCURVE",
"478 374 OFFCURVE",
"462 374 CURVE SMOOTH",
"286 374 LINE",
"286 418 OFFCURVE",
"293 524 OFFCURVE",
"298 541 CURVE",
"324 541 LINE SMOOTH",
"386 541 OFFCURVE",
"469 537 OFFCURVE",
"478 537 CURVE SMOOTH",
"488 537 OFFCURVE",
"494 577 OFFCURVE",
"494 606 CURVE SMOOTH",
"494 631 OFFCURVE",
"489 639 OFFCURVE",
"473 639 CURVE SMOOTH",
"82 639 LINE",
"82 441 OFFCURVE",
"53 42 OFFCURVE",
"53 0 CURVE"
);
}
);
width = 533;
}
);
note = E;
unicode = 0045;
},
{
color = 5;
glyphname = Ecircumflex;
lastChange = "2022-09-24 02:58:41 +0000";
layers = (
{
background = {
paths = (
{
closed = 1;
nodes = (
"480 0 LINE SMOOTH",
"487 0 OFFCURVE",
"497 26 OFFCURVE",
"497 44 CURVE SMOOTH",
"497 52 OFFCURVE",
"497 58 OFFCURVE",
"492 58 CURVE SMOOTH",
"485 58 OFFCURVE",
"433 37 OFFCURVE",
"252 37 CURVE SMOOTH",
"175 37 OFFCURVE",
"163 43 OFFCURVE",
"163 82 CURVE SMOOTH",
"163 149 OFFCURVE",
"165 228 OFFCURVE",
"170 312 CURVE",
"210 312 LINE SMOOTH",
"351 312 OFFCURVE",
"419 304 OFFCURVE",
"423 304 CURVE SMOOTH",
"427 304 OFFCURVE",
"433 326 OFFCURVE",
"433 341 CURVE SMOOTH",
"433 349 OFFCURVE",
"430 355 OFFCURVE",
"428 355 CURVE SMOOTH",
"172 355 LINE",
"179 458 OFFCURVE",
"187 552 OFFCURVE",
"194 596 CURVE",
"226 596 LINE SMOOTH",
"367 596 OFFCURVE",
"436 587 OFFCURVE",
"439 587 CURVE SMOOTH",
"443 587 OFFCURVE",
"449 610 OFFCURVE",
"449 625 CURVE SMOOTH",
"449 633 OFFCURVE",
"447 639 OFFCURVE",
"444 639 CURVE SMOOTH",
"133 639 LINE",
"124 422 OFFCURVE",
"104 76 OFFCURVE",
"96 0 CURVE"
);
},
{
closed = 1;
nodes = (
"168 698 OFFCURVE",
"256 782 OFFCURVE",
"314 830 CURVE",
"349 786 OFFCURVE",
"411 698 OFFCURVE",
"412 693 CURVE",
"414 694 OFFCURVE",
"433 707 OFFCURVE",
"433 717 CURVE SMOOTH",
"433 726 OFFCURVE",
"428 738 OFFCURVE",
"423 746 CURVE SMOOTH",
"402 782 OFFCURVE",
"358 847 OFFCURVE",
"328 886 CURVE SMOOTH",
"324 891 OFFCURVE",
"319 892 OFFCURVE",
"316 892 CURVE SMOOTH",
"312 892 OFFCURVE",
"309 891 OFFCURVE",
"304 886 CURVE SMOOTH",
"286 871 OFFCURVE",
"168 759 OFFCURVE",
"155 738 CURVE SMOOTH",
"152 733 OFFCURVE",
"150 727 OFFCURVE",
"150 722 CURVE SMOOTH",
"150 708 OFFCURVE",
"163 696 OFFCURVE",
"165 693 CURVE"
);
}
);
};
components = (
{
name = E;
},
{
name = circumflexcomb.case;
transform = "{1, 0, 0, 1, 165, 0}";
}
);
layerId = "220B7CD1-1E4F-4884-BA06-A44A5DCE8B14";
width = 554;
},
{
components = (
{
name = E;
},
{
name = circumflexcomb.case;
transform = "{1, 0, 0, 1, 165, 0}";
}
);
layerId = "63F4CE79-9D5F-46D3-B41C-385689F27F0A";
width = 533;
}
);
note = Ecircumflex;
unicode = 00CA;
},
{
color = 5;
glyphname = Edieresis;
lastChange = "2022-09-24 01:14:55 +0000";
layers = (
{
background = {
paths = (
{
closed = 1;
nodes = (
"480 0 LINE SMOOTH",
"487 0 OFFCURVE",
"497 26 OFFCURVE",
"497 44 CURVE SMOOTH",
"497 52 OFFCURVE",
"497 58 OFFCURVE",
"492 58 CURVE SMOOTH",
"485 58 OFFCURVE",
"433 37 OFFCURVE",
"252 37 CURVE SMOOTH",
"175 37 OFFCURVE",
"163 43 OFFCURVE",
"163 82 CURVE SMOOTH",
"163 149 OFFCURVE",
"165 228 OFFCURVE",
"170 312 CURVE",
"210 312 LINE SMOOTH",
"351 312 OFFCURVE",
"419 304 OFFCURVE",
"423 304 CURVE SMOOTH",
"427 304 OFFCURVE",
"433 326 OFFCURVE",
"433 341 CURVE SMOOTH",
"433 349 OFFCURVE",
"430 355 OFFCURVE",
"428 355 CURVE SMOOTH",
"172 355 LINE",
"179 458 OFFCURVE",
"187 552 OFFCURVE",
"194 596 CURVE",
"226 596 LINE SMOOTH",
"367 596 OFFCURVE",
"436 587 OFFCURVE",
"439 587 CURVE SMOOTH",
"443 587 OFFCURVE",
"449 610 OFFCURVE",
"449 625 CURVE SMOOTH",
"449 633 OFFCURVE",
"447 639 OFFCURVE",
"444 639 CURVE SMOOTH",
"133 639 LINE",
"124 422 OFFCURVE",
"104 76 OFFCURVE",
"96 0 CURVE"
);
},
{
closed = 1;
nodes = (
"215 756 OFFCURVE",
"234 781 OFFCURVE",
"234 802 CURVE SMOOTH",
"234 836 OFFCURVE",
"220 848 OFFCURVE",
"205 848 CURVE SMOOTH",
"184 848 OFFCURVE",
"161 824 OFFCURVE",
"161 791 CURVE SMOOTH",
"161 767 OFFCURVE",
"175 756 OFFCURVE",
"195 756 CURVE SMOOTH"
);
},
{
closed = 1;
nodes = (
"415 756 OFFCURVE",
"434 781 OFFCURVE",
"434 802 CURVE SMOOTH",
"434 836 OFFCURVE",
"420 848 OFFCURVE",
"405 848 CURVE SMOOTH",
"384 848 OFFCURVE",
"361 824 OFFCURVE",
"361 791 CURVE SMOOTH",
"361 767 OFFCURVE",
"375 756 OFFCURVE",
"395 756 CURVE SMOOTH"
);
}
);
};
components = (
{
name = E;
},
{
name = dieresiscomb.case;
transform = "{1, 0, 0, 1, 140, 13}";
}
);
layerId = "220B7CD1-1E4F-4884-BA06-A44A5DCE8B14";
width = 554;
},
{
components = (
{
name = E;
},
{
name = dieresiscomb.case;
transform = "{1, 0, 0, 1, 124, 13}";
}
);
layerId = "63F4CE79-9D5F-46D3-B41C-385689F27F0A";
width = 533;
}
);
note = Edieresis;
unicode = 00CB;
},
{
color = 0;
glyphname = Eopen;
lastChange = "2022-09-24 01:15:32 +0000";
layers = (
{
layerId = "220B7CD1-1E4F-4884-BA06-A44A5DCE8B14";
paths = (
{
closed = 1;
nodes = (
"271 -13 OFFCURVE",
"322 0 OFFCURVE",
"353 19 CURVE SMOOTH",
"369 29 OFFCURVE",
"380 41 OFFCURVE",
"381 56 CURVE SMOOTH",
"382 82 OFFCURVE",
"378 86 OFFCURVE",
"371 86 CURVE SMOOTH",
"365 86 OFFCURVE",
"348 72 OFFCURVE",
"318 53 CURVE SMOOTH",
"288 34 OFFCURVE",
"254 23 OFFCURVE",
"220 23 CURVE SMOOTH",
"156 23 OFFCURVE",
"104 60 OFFCURVE",
"108 142 CURVE SMOOTH",
"113 244 OFFCURVE",
"224 280 OFFCURVE",
"260 280 CURVE SMOOTH",
"267 280 OFFCURVE",
"273 295 OFFCURVE",
"274 308 CURVE SMOOTH",
"274 316 OFFCURVE",
"274 319 OFFCURVE",
"272 319 CURVE SMOOTH",
"186 319 OFFCURVE",
"98 354 OFFCURVE",
"105 474 CURVE SMOOTH",
"109 562 OFFCURVE",
"183 615 OFFCURVE",
"259 615 CURVE SMOOTH",
"354 615 OFFCURVE",
"397 554 OFFCURVE",
"415 554 CURVE SMOOTH",
"425 554 OFFCURVE",
"426 562 OFFCURVE",
"427 573 CURVE SMOOTH",
"428 599 OFFCURVE",
"424 610 OFFCURVE",
"408 620 CURVE SMOOTH",
"378 639 OFFCURVE",
"340 652 OFFCURVE",
"260 652 CURVE SMOOTH",
"154 652 OFFCURVE",
"50 576 OFFCURVE",
"43 453 CURVE SMOOTH",
"39 366 OFFCURVE",
"96 303 OFFCURVE",
"173 288 CURVE",
"138 275 OFFCURVE",
"48 216 OFFCURVE",
"43 129 CURVE SMOOTH",
"38 23 OFFCURVE",
"124 -13 OFFCURVE",
"210 -13 CURVE SMOOTH"
);
}
);
width = 441;
},
{
layerId = "63F4CE79-9D5F-46D3-B41C-385689F27F0A";
paths = (
{
closed = 1;
nodes = (
"271 -13 OFFCURVE",
"322 0 OFFCURVE",
"353 19 CURVE SMOOTH",
"369 29 OFFCURVE",
"380 41 OFFCURVE",
"381 56 CURVE SMOOTH",
"382 82 OFFCURVE",
"378 86 OFFCURVE",
"371 86 CURVE SMOOTH",
"365 86 OFFCURVE",
"348 72 OFFCURVE",
"318 53 CURVE SMOOTH",
"288 34 OFFCURVE",
"254 23 OFFCURVE",
"220 23 CURVE SMOOTH",
"156 23 OFFCURVE",
"104 60 OFFCURVE",
"108 142 CURVE SMOOTH",
"113 244 OFFCURVE",
"224 280 OFFCURVE",
"260 280 CURVE SMOOTH",
"267 280 OFFCURVE",
"273 295 OFFCURVE",
"274 308 CURVE SMOOTH",
"274 316 OFFCURVE",
"274 319 OFFCURVE",
"272 319 CURVE SMOOTH",
"186 319 OFFCURVE",
"98 354 OFFCURVE",
"105 474 CURVE SMOOTH",
"109 562 OFFCURVE",
"183 615 OFFCURVE",
"259 615 CURVE SMOOTH",
"354 615 OFFCURVE",
"397 554 OFFCURVE",
"415 554 CURVE SMOOTH",
"425 554 OFFCURVE",
"426 562 OFFCURVE",
"427 573 CURVE SMOOTH",
"428 599 OFFCURVE",
"424 610 OFFCURVE",
"408 620 CURVE SMOOTH",
"378 639 OFFCURVE",
"340 652 OFFCURVE",
"260 652 CURVE SMOOTH",
"154 652 OFFCURVE",
"50 576 OFFCURVE",
"43 453 CURVE SMOOTH",
"39 366 OFFCURVE",
"96 303 OFFCURVE",
"173 288 CURVE",
"138 275 OFFCURVE",
"48 216 OFFCURVE",
"43 129 CURVE SMOOTH",
"38 23 OFFCURVE",
"124 -13 OFFCURVE",
"210 -13 CURVE SMOOTH"
);
}
);
width = 441;
}
);
unicode = 0190;
},
{
color = 0;
glyphname = Ereversed;
lastChange = "2022-09-24 03:08:52 +0000";
layers = (
{
layerId = "220B7CD1-1E4F-4884-BA06-A44A5DCE8B14";
paths = (
{
closed = 1;
nodes = (
"419 0 LINE",
"420 76 OFFCURVE",
"443 422 OFFCURVE",
"460 639 CURVE",
"149 639 LINE SMOOTH",
"146 639 OFFCURVE",
"143 633 OFFCURVE",
"142 625 CURVE SMOOTH",
"141 610 OFFCURVE",
"144 587 OFFCURVE",
"148 587 CURVE SMOOTH",
"151 587 OFFCURVE",
"221 596 OFFCURVE",
"362 596 CURVE SMOOTH",
"394 596 LINE",
"395 552 OFFCURVE",
"392 458 OFFCURVE",
"386 355 CURVE",
"130 355 LINE SMOOTH",
"128 355 OFFCURVE",
"125 349 OFFCURVE",
"124 341 CURVE SMOOTH",
"122 326 OFFCURVE",
"125 304 OFFCURVE",
"129 304 CURVE SMOOTH",
"133 304 OFFCURVE",
"202 312 OFFCURVE",
"343 312 CURVE SMOOTH",
"383 312 LINE",
"378 228 OFFCURVE",
"370 149 OFFCURVE",
"362 82 CURVE SMOOTH",
"357 43 OFFCURVE",
"344 37 OFFCURVE",
"267 37 CURVE SMOOTH",
"86 37 OFFCURVE",
"37 58 OFFCURVE",
"30 58 CURVE SMOOTH",
"25 58 OFFCURVE",
"24 52 OFFCURVE",
"23 44 CURVE SMOOTH",
"21 26 OFFCURVE",
"28 0 OFFCURVE",
"35 0 CURVE SMOOTH"
);
}
);
width = 555;
},
{
layerId = "63F4CE79-9D5F-46D3-B41C-385689F27F0A";
paths = (
{
closed = 1;
nodes = (
"419 0 LINE",
"420 76 OFFCURVE",
"443 422 OFFCURVE",
"460 639 CURVE",
"149 639 LINE SMOOTH",
"146 639 OFFCURVE",
"143 633 OFFCURVE",
"142 625 CURVE SMOOTH",
"141 610 OFFCURVE",
"144 587 OFFCURVE",
"148 587 CURVE SMOOTH",
"151 587 OFFCURVE",
"221 596 OFFCURVE",
"362 596 CURVE SMOOTH",
"394 596 LINE",
"395 552 OFFCURVE",
"392 458 OFFCURVE",
"386 355 CURVE",
"130 355 LINE SMOOTH",
"128 355 OFFCURVE",
"125 349 OFFCURVE",
"124 341 CURVE SMOOTH",
"122 326 OFFCURVE",
"125 304 OFFCURVE",
"129 304 CURVE SMOOTH",
"133 304 OFFCURVE",
"202 312 OFFCURVE",
"343 312 CURVE SMOOTH",
"383 312 LINE",
"378 228 OFFCURVE",
"370 149 OFFCURVE",
"362 82 CURVE SMOOTH",
"357 43 OFFCURVE",
"344 37 OFFCURVE",
"267 37 CURVE SMOOTH",
"86 37 OFFCURVE",
"37 58 OFFCURVE",
"30 58 CURVE SMOOTH",
"25 58 OFFCURVE",
"24 52 OFFCURVE",
"23 44 CURVE SMOOTH",
"21 26 OFFCURVE",
"28 0 OFFCURVE",
"35 0 CURVE SMOOTH"
);
}
);
width = 468;
}
);
leftMetricsKey = "=E|";
rightMetricsKey = H;
unicode = "018E,01DD";
},
{
color = 0;
glyphname = EreversedOpen;
lastChange = "2022-09-24 01:15:32 +0000";
layers = (
{
layerId = "220B7CD1-1E4F-4884-BA06-A44A5DCE8B14";
paths = (
{
closed = 1;
nodes = (
"331 -13 OFFCURVE",
"431 63 OFFCURVE",
"431 186 CURVE SMOOTH",
"431 273 OFFCURVE",
"371 336 OFFCURVE",
"293 351 CURVE",
"327 364 OFFCURVE",
"421 423 OFFCURVE",
"421 510 CURVE SMOOTH",
"421 616 OFFCURVE",
"333 652 OFFCURVE",
"247 652 CURVE SMOOTH",
"186 652 OFFCURVE",
"136 639 OFFCURVE",
"106 620 CURVE SMOOTH",
"90 610 OFFCURVE",
"80 598 OFFCURVE",
"80 583 CURVE SMOOTH",
"80 557 OFFCURVE",
"84 553 OFFCURVE",
"91 553 CURVE SMOOTH",
"97 553 OFFCURVE",
"113 567 OFFCURVE",
"142 586 CURVE SMOOTH",
"171 605 OFFCURVE",
"205 616 OFFCURVE",
"239 616 CURVE SMOOTH",
"303 616 OFFCURVE",
"357 579 OFFCURVE",
"357 497 CURVE SMOOTH",
"357 395 OFFCURVE",
"241 359 OFFCURVE",
"205 359 CURVE SMOOTH",
"198 359 OFFCURVE",
"193 344 OFFCURVE",
"193 331 CURVE SMOOTH",
"193 323 OFFCURVE",
"193 320 OFFCURVE",
"195 320 CURVE SMOOTH",
"281 320 OFFCURVE",
"371 285 OFFCURVE",
"371 165 CURVE SMOOTH",
"371 77 OFFCURVE",
"300 24 OFFCURVE",
"204 24 CURVE SMOOTH",
"109 24 OFFCURVE",
"63 85 OFFCURVE",
"45 85 CURVE SMOOTH",
"35 85 OFFCURVE",
"34 77 OFFCURVE",
"34 66 CURVE SMOOTH",
"34 40 OFFCURVE",
"39 29 OFFCURVE",
"55 19 CURVE SMOOTH",
"86 0 OFFCURVE",
"125 -13 OFFCURVE",
"205 -13 CURVE SMOOTH"
);
}
);
width = 495;
},
{
layerId = "63F4CE79-9D5F-46D3-B41C-385689F27F0A";
paths = (
{
closed = 1;
nodes = (
"331 -13 OFFCURVE",
"431 63 OFFCURVE",
"431 186 CURVE SMOOTH",
"431 273 OFFCURVE",
"371 336 OFFCURVE",
"293 351 CURVE",
"327 364 OFFCURVE",
"421 423 OFFCURVE",
"421 510 CURVE SMOOTH",
"421 616 OFFCURVE",
"333 652 OFFCURVE",
"247 652 CURVE SMOOTH",
"186 652 OFFCURVE",
"136 639 OFFCURVE",
"106 620 CURVE SMOOTH",
"90 610 OFFCURVE",
"80 598 OFFCURVE",
"80 583 CURVE SMOOTH",
"80 557 OFFCURVE",
"84 553 OFFCURVE",
"91 553 CURVE SMOOTH",
"97 553 OFFCURVE",
"113 567 OFFCURVE",
"142 586 CURVE SMOOTH",
"171 605 OFFCURVE",
"205 616 OFFCURVE",
"239 616 CURVE SMOOTH",
"303 616 OFFCURVE",
"357 579 OFFCURVE",
"357 497 CURVE SMOOTH",
"357 395 OFFCURVE",
"241 359 OFFCURVE",
"205 359 CURVE SMOOTH",
"198 359 OFFCURVE",
"193 344 OFFCURVE",
"193 331 CURVE SMOOTH",
"193 323 OFFCURVE",
"193 320 OFFCURVE",
"195 320 CURVE SMOOTH",
"281 320 OFFCURVE",
"371 285 OFFCURVE",
"371 165 CURVE SMOOTH",
"371 77 OFFCURVE",
"300 24 OFFCURVE",
"204 24 CURVE SMOOTH",
"109 24 OFFCURVE",
"63 85 OFFCURVE",
"45 85 CURVE SMOOTH",
"35 85 OFFCURVE",
"34 77 OFFCURVE",
"34 66 CURVE SMOOTH",
"34 40 OFFCURVE",
"39 29 OFFCURVE",
"55 19 CURVE SMOOTH",
"86 0 OFFCURVE",
"125 -13 OFFCURVE",
"205 -13 CURVE SMOOTH"
);
}
);
width = 495;
}
);
unicode = A7AB;
},
{
color = 1;
glyphname = F;
lastChange = "2022-09-23 15:07:09 +0000";
layers = (
{
anchors = (
{
name = bottom;
position = "{122, 0}";
},
{
name = top;
position = "{286, 652}";
}
);
layerId = "220B7CD1-1E4F-4884-BA06-A44A5DCE8B14";
paths = (
{
closed = 1;
nodes = (
"157 -13 OFFCURVE",
"159 -10 OFFCURVE",
"159 -5 CURVE SMOOTH",
"159 67 OFFCURVE",
"164 232 OFFCURVE",
"166 292 CURVE",
"207 292 LINE SMOOTH",
"348 292 OFFCURVE",
"416 283 OFFCURVE",
"419 283 CURVE SMOOTH",
"423 283 OFFCURVE",
"429 306 OFFCURVE",
"429 321 CURVE SMOOTH",
"429 329 OFFCURVE",
"427 335 OFFCURVE",
"424 335 CURVE SMOOTH",
"169 335 LINE",
"176 458 OFFCURVE",
"185 552 OFFCURVE",
"191 596 CURVE",
"224 596 LINE SMOOTH",
"365 596 OFFCURVE",
"433 587 OFFCURVE",
"437 587 CURVE SMOOTH",
"441 587 OFFCURVE",
"447 610 OFFCURVE",
"447 625 CURVE SMOOTH",
"447 633 OFFCURVE",
"445 639 OFFCURVE",
"442 639 CURVE SMOOTH",
"131 639 LINE",
"131 559 OFFCURVE",
"117 254 OFFCURVE",
"105 113 CURVE SMOOTH",
"102 81 OFFCURVE",
"96 17 OFFCURVE",
"96 14 CURVE SMOOTH",
"96 -4 OFFCURVE",
"126 -13 OFFCURVE",
"149 -13 CURVE SMOOTH"
);
}
);
width = 471;
},
{
anchors = (
{
name = bottom;
position = "{122, 0}";
},
{
name = top;
position = "{286, 652}";
}
);
layerId = "63F4CE79-9D5F-46D3-B41C-385689F27F0A";
paths = (
{
closed = 1;
nodes = (
"268 -13 OFFCURVE",
"273 -4 OFFCURVE",
"273 21 CURVE SMOOTH",
"273 89 OFFCURVE",
"276 171 OFFCURVE",
"280 253 CURVE",
"300 253 LINE SMOOTH",
"379 253 OFFCURVE",
"453 249 OFFCURVE",
"462 249 CURVE SMOOTH",
"472 249 OFFCURVE",
"478 288 OFFCURVE",
"478 317 CURVE SMOOTH",
"478 343 OFFCURVE",
"473 350 OFFCURVE",
"457 350 CURVE SMOOTH",
"285 350 LINE",
"285 365 OFFCURVE",
"293 524 OFFCURVE",
"295 541 CURVE",
"323 541 LINE SMOOTH",
"385 541 OFFCURVE",
"464 538 OFFCURVE",
"473 538 CURVE SMOOTH",
"483 538 OFFCURVE",
"489 577 OFFCURVE",
"489 606 CURVE SMOOTH",
"489 631 OFFCURVE",
"484 639 OFFCURVE",
"468 639 CURVE SMOOTH",
"77 639 LINE",
"77 498 OFFCURVE",
"62 216 OFFCURVE",
"58 148 CURVE SMOOTH",
"55 98 OFFCURVE",
"53 64 OFFCURVE",
"53 59 CURVE SMOOTH",
"53 9 OFFCURVE",
"160 -13 OFFCURVE",
"224 -13 CURVE SMOOTH"
);
}
);
width = 490;
}
);
note = F;
unicode = 0046;
},
{
color = 1;
glyphname = G;
lastChange = "2022-09-23 20:18:36 +0000";
layers = (
{
anchors = (
{
name = bottom;
position = "{359, 0}";
},
{
name = top;
position = "{393, 652}";
}
);
layerId = "220B7CD1-1E4F-4884-BA06-A44A5DCE8B14";
paths = (
{
closed = 1;
nodes = (
"488 -13 OFFCURVE",
"567 0 OFFCURVE",
"629 23 CURVE",
"634 116 OFFCURVE",
"640 209 OFFCURVE",
"645 302 CURVE",
"446 302 LINE SMOOTH",
"438 302 OFFCURVE",
"431 282 OFFCURVE",
"431 264 CURVE SMOOTH",
"431 258 OFFCURVE",
"434 254 OFFCURVE",
"439 254 CURVE SMOOTH",
"444 254 OFFCURVE",
"467 259 OFFCURVE",
"587 259 CURVE",
"585 190 OFFCURVE",
"577 71 OFFCURVE",
"575 53 CURVE",
"547 42 OFFCURVE",
"479 31 OFFCURVE",
"394 31 CURVE SMOOTH",
"255 31 OFFCURVE",
"124 105 OFFCURVE",
"124 319 CURVE SMOOTH",
"124 516 OFFCURVE",
"246 615 OFFCURVE",
"399 615 CURVE SMOOTH",
"475 615 OFFCURVE",
"550 587 OFFCURVE",
"584 565 CURVE SMOOTH",
"605 551 OFFCURVE",
"614 547 OFFCURVE",
"622 547 CURVE SMOOTH",
"629 547 OFFCURVE",
"634 568 OFFCURVE",
"634 588 CURVE SMOOTH",
"634 597 OFFCURVE",
"630 602 OFFCURVE",
"625 606 CURVE SMOOTH",
"608 620 OFFCURVE",
"538 652 OFFCURVE",
"387 652 CURVE SMOOTH",
"152 652 OFFCURVE",
"63 476 OFFCURVE",
"63 312 CURVE SMOOTH",
"63 120 OFFCURVE",
"180 -13 OFFCURVE",
"380 -13 CURVE SMOOTH"
);
}
);
width = 746;
},
{
anchors = (
{
name = bottom;
position = "{361, 0}";
},
{
name = top;
position = "{395, 652}";
}
);
layerId = "63F4CE79-9D5F-46D3-B41C-385689F27F0A";
paths = (
{
closed = 1;
nodes = (
"519 -13 OFFCURVE",
"637 12 OFFCURVE",
"678 29 CURVE",
"685 160 OFFCURVE",
"692 296 OFFCURVE",
"695 338 CURVE",
"431 338 LINE SMOOTH",
"417 338 OFFCURVE",
"402 326 OFFCURVE",
"402 289 CURVE SMOOTH",
"402 265 OFFCURVE",
"404 243 OFFCURVE",
"412 243 CURVE SMOOTH",
"420 243 OFFCURVE",
"454 244 OFFCURVE",
"487 244 CURVE",
"487 169 OFFCURVE",
"482 122 OFFCURVE",
"481 93 CURVE",
"465 93 OFFCURVE",
"448 93 OFFCURVE",
"431 93 CURVE SMOOTH",
"353 93 OFFCURVE",
"265 145 OFFCURVE",
"265 307 CURVE SMOOTH",
"265 460 OFFCURVE",
"324 526 OFFCURVE",
"425 526 CURVE SMOOTH",
"504 526 OFFCURVE",
"559 509 OFFCURVE",
"592 498 CURVE SMOOTH",
"612 491 OFFCURVE",
"625 486 OFFCURVE",
"631 486 CURVE SMOOTH",
"664 486 OFFCURVE",
"667 555 OFFCURVE",
"667 572 CURVE SMOOTH",
"667 599 OFFCURVE",
"660 614 OFFCURVE",
"640 621 CURVE SMOOTH",
"600 635 OFFCURVE",
"502 652 OFFCURVE",
"408 652 CURVE SMOOTH",
"193 652 OFFCURVE",
"37 594 OFFCURVE",
"37 275 CURVE SMOOTH",
"37 63 OFFCURVE",
"161 -13 OFFCURVE",
"394 -13 CURVE SMOOTH"
);
}
);
width = 741;
}
);
note = G;
unicode = 0047;
},
{
color = 1;
glyphname = H;
lastChange = "2022-09-24 02:40:23 +0000";
layers = (
{
anchors = (
{
name = bottom;
position = "{376, 0}";
},
{
name = center;
position = "{396, 326}";
},
{
name = top;
position = "{411, 652}";
},
{
name = topleft;
position = "{20, 652}";
}
);
layerId = "220B7CD1-1E4F-4884-BA06-A44A5DCE8B14";
paths = (
{
closed = 1;
nodes = (
"157 -13 OFFCURVE",
"159 -10 OFFCURVE",
"159 -5 CURVE SMOOTH",
"159 107 OFFCURVE",
"162 214 OFFCURVE",
"169 309 CURVE",
"247 313 OFFCURVE",
"325 315 OFFCURVE",
"402 315 CURVE SMOOTH",
"474 315 OFFCURVE",
"546 313 OFFCURVE",
"616 310 CURVE",
"607 160 OFFCURVE",
"596 20 OFFCURVE",
"596 14 CURVE SMOOTH",
"596 -4 OFFCURVE",
"626 -13 OFFCURVE",
"649 -13 CURVE SMOOTH",
"657 -13 OFFCURVE",
"660 -10 OFFCURVE",
"660 -5 CURVE SMOOTH",
"660 317 OFFCURVE",
"695 612 OFFCURVE",
"695 626 CURVE SMOOTH",
"695 644 OFFCURVE",
"664 652 OFFCURVE",
"641 652 CURVE SMOOTH",
"632 652 OFFCURVE",
"631 650 OFFCURVE",
"631 645 CURVE SMOOTH",
"630 597 OFFCURVE",
"625 476 OFFCURVE",
"618 353 CURVE",
"171 353 LINE",
"181 509 OFFCURVE",
"194 618 OFFCURVE",
"194 626 CURVE SMOOTH",
"194 644 OFFCURVE",
"164 652 OFFCURVE",
"141 652 CURVE SMOOTH",
"132 652 OFFCURVE",
"131 650 OFFCURVE",
"131 645 CURVE SMOOTH",
"128 537 OFFCURVE",
"96 26 OFFCURVE",
"96 14 CURVE SMOOTH",
"96 -4 OFFCURVE",
"126 -13 OFFCURVE",
"149 -13 CURVE SMOOTH"
);
}
);
width = 791;
},
{
anchors = (
{
name = bottom;
position = "{376, 0}";
},
{
name = center;
position = "{396, 326}";
},
{
name = top;
position = "{411, 652}";
},
{
name = topleft;
position = "{20, 652}";
}
);
layerId = "63F4CE79-9D5F-46D3-B41C-385689F27F0A";
paths = (
{
closed = 1;
nodes = (
"268 -13 OFFCURVE",
"273 -4 OFFCURVE",
"273 21 CURVE SMOOTH",
"273 85 OFFCURVE",
"276 171 OFFCURVE",
"280 256 CURVE",
"331 262 OFFCURVE",
"380 265 OFFCURVE",
"427 265 CURVE",
"467 265 OFFCURVE",
"506 263 OFFCURVE",
"541 259 CURVE",
"535 152 OFFCURVE",
"530 67 OFFCURVE",
"530 59 CURVE SMOOTH",
"530 9 OFFCURVE",
"637 -13 OFFCURVE",
"701 -13 CURVE SMOOTH",
"745 -13 OFFCURVE",
"750 -4 OFFCURVE",
"750 21 CURVE SMOOTH",
"750 199 OFFCURVE",
"774 562 OFFCURVE",
"774 580 CURVE SMOOTH",
"774 630 OFFCURVE",
"667 652 OFFCURVE",
"603 652 CURVE SMOOTH",
"559 652 OFFCURVE",
"554 643 OFFCURVE",
"554 618 CURVE SMOOTH",
"554 553 OFFCURVE",
"551 465 OFFCURVE",
"547 379 CURVE",
"286 379 LINE",
"292 487 OFFCURVE",
"297 572 OFFCURVE",
"297 580 CURVE SMOOTH",
"297 630 OFFCURVE",
"190 652 OFFCURVE",
"126 652 CURVE SMOOTH",
"82 652 OFFCURVE",
"77 643 OFFCURVE",
"77 618 CURVE SMOOTH",
"77 440 OFFCURVE",
"53 77 OFFCURVE",
"53 59 CURVE SMOOTH",
"53 9 OFFCURVE",
"160 -13 OFFCURVE",
"224 -13 CURVE SMOOTH"
);
}
);
width = 791;
}
);
note = H;
unicode = 0048;
},
{
color = 1;
glyphname = Hbar;
lastChange = "2022-09-24 03:09:45 +0000";
layers = (
{
anchors = (
{
name = bottom;
position = "{384, 0}";
},
{
name = center;
position = "{404, 326}";
},
{
name = top;
position = "{419, 652}";
},
{
name = topleft;
position = "{28, 652}";
}
);
layerId = "220B7CD1-1E4F-4884-BA06-A44A5DCE8B14";
paths = (
{
closed = 1;
nodes = (
"165 -13 OFFCURVE",
"167 -10 OFFCURVE",
"167 -5 CURVE SMOOTH",
"167 107 OFFCURVE",
"170 214 OFFCURVE",
"177 309 CURVE",
"255 313 OFFCURVE",
"333 315 OFFCURVE",
"410 315 CURVE SMOOTH",
"482 315 OFFCURVE",
"554 313 OFFCURVE",
"624 310 CURVE",
"615 160 OFFCURVE",
"604 20 OFFCURVE",
"604 14 CURVE SMOOTH",
"604 -4 OFFCURVE",
"634 -13 OFFCURVE",
"657 -13 CURVE SMOOTH",
"665 -13 OFFCURVE",
"668 -10 OFFCURVE",
"668 -5 CURVE SMOOTH",
"668 317 OFFCURVE",
"703 612 OFFCURVE",
"703 626 CURVE SMOOTH",
"703 644 OFFCURVE",
"672 652 OFFCURVE",
"649 652 CURVE SMOOTH",
"640 652 OFFCURVE",
"639 650 OFFCURVE",
"639 645 CURVE SMOOTH",
"638 597 OFFCURVE",
"633 480 OFFCURVE",
"626 353 CURVE",
"179 353 LINE",
"189 509 OFFCURVE",
"202 618 OFFCURVE",
"202 626 CURVE SMOOTH",
"202 644 OFFCURVE",
"172 652 OFFCURVE",
"149 652 CURVE SMOOTH",
"140 652 OFFCURVE",
"139 650 OFFCURVE",
"139 645 CURVE SMOOTH",
"136 537 OFFCURVE",
"104 26 OFFCURVE",
"104 14 CURVE SMOOTH",
"104 -4 OFFCURVE",
"134 -13 OFFCURVE",
"157 -13 CURVE SMOOTH"
);
},
{
closed = 1;
nodes = (
"57 455 OFFCURVE",
"234 458 OFFCURVE",
"410 459 CURVE SMOOTH",
"583 459 OFFCURVE",
"754 456 OFFCURVE",
"756 456 CURVE SMOOTH",
"765 456 OFFCURVE",
"770 475 OFFCURVE",
"770 489 CURVE SMOOTH",
"770 495 OFFCURVE",
"767 499 OFFCURVE",
"762 499 CURVE SMOOTH",
"63 499 LINE SMOOTH",
"54 499 OFFCURVE",
"48 483 OFFCURVE",
"48 465 CURVE SMOOTH",
"48 459 OFFCURVE",
"50 455 OFFCURVE",
"55 455 CURVE SMOOTH"
);
}
);
width = 795;
},
{
anchors = (
{
name = bottom;
position = "{405, 0}";
},
{
name = center;
position = "{425, 326}";
},
{
name = top;
position = "{443, 652}";
},
{
name = topleft;
position = "{37, 652}";
}
);
background = {
paths = (
{
closed = 1;
nodes = (
"295 379 LINE",
"301 487 OFFCURVE",
"306 572 OFFCURVE",
"306 580 CURVE SMOOTH",
"306 630 OFFCURVE",
"199 652 OFFCURVE",
"135 652 CURVE SMOOTH",
"91 652 OFFCURVE",
"86 643 OFFCURVE",
"86 618 CURVE SMOOTH",
"86 440 OFFCURVE",
"62 77 OFFCURVE",
"62 59 CURVE SMOOTH",
"62 9 OFFCURVE",
"169 -13 OFFCURVE",
"233 -13 CURVE SMOOTH",
"277 -13 OFFCURVE",
"282 -4 OFFCURVE",
"282 21 CURVE SMOOTH",
"282 85 OFFCURVE",
"285 171 OFFCURVE",
"289 256 CURVE",
"340 262 OFFCURVE",
"389 265 OFFCURVE",
"436 265 CURVE",
"476 265 OFFCURVE",
"515 263 OFFCURVE",
"550 259 CURVE",
"544 152 OFFCURVE",
"539 67 OFFCURVE",
"539 59 CURVE SMOOTH",
"539 9 OFFCURVE",
"646 -13 OFFCURVE",
"710 -13 CURVE SMOOTH",
"754 -13 OFFCURVE",
"759 -4 OFFCURVE",
"759 21 CURVE SMOOTH",
"759 199 OFFCURVE",
"783 562 OFFCURVE",
"783 580 CURVE SMOOTH",
"783 630 OFFCURVE",
"676 652 OFFCURVE",
"612 652 CURVE SMOOTH",
"568 652 OFFCURVE",
"563 643 OFFCURVE",
"563 618 CURVE SMOOTH",
"563 553 OFFCURVE",
"560 465 OFFCURVE",
"556 379 CURVE"
);
}
);
};
layerId = "63F4CE79-9D5F-46D3-B41C-385689F27F0A";
paths = (
{
closed = 1;
nodes = (
"277 -13 OFFCURVE",
"282 -4 OFFCURVE",
"282 21 CURVE SMOOTH",
"282 85 OFFCURVE",
"284 127 OFFCURVE",
"288 212 CURVE",
"339 218 OFFCURVE",
"388 221 OFFCURVE",
"435 221 CURVE",
"475 221 OFFCURVE",
"514 219 OFFCURVE",
"549 215 CURVE",
"543 108 OFFCURVE",
"539 67 OFFCURVE",
"539 59 CURVE SMOOTH",
"539 9 OFFCURVE",
"646 -13 OFFCURVE",
"710 -13 CURVE SMOOTH",
"754 -13 OFFCURVE",
"759 -4 OFFCURVE",
"759 21 CURVE SMOOTH",
"759 199 OFFCURVE",
"783 562 OFFCURVE",
"783 580 CURVE SMOOTH",
"783 630 OFFCURVE",
"676 652 OFFCURVE",
"612 652 CURVE SMOOTH",
"568 652 OFFCURVE",
"563 643 OFFCURVE",
"563 618 CURVE SMOOTH",
"563 553 OFFCURVE",
"559 421 OFFCURVE",
"555 335 CURVE",
"294 335 LINE",
"300 443 OFFCURVE",
"306 572 OFFCURVE",
"306 580 CURVE SMOOTH",
"306 630 OFFCURVE",
"199 652 OFFCURVE",
"135 652 CURVE SMOOTH",
"91 652 OFFCURVE",
"86 643 OFFCURVE",
"86 618 CURVE SMOOTH",
"86 440 OFFCURVE",
"62 77 OFFCURVE",
"62 59 CURVE SMOOTH",
"62 9 OFFCURVE",
"169 -13 OFFCURVE",
"233 -13 CURVE SMOOTH"
);
},
{
closed = 1;
nodes = (
"167 415 OFFCURVE",
"298 419 OFFCURVE",
"429 419 CURVE SMOOTH",
"558 419 OFFCURVE",
"686 415 OFFCURVE",
"815 415 CURVE SMOOTH",
"830 415 OFFCURVE",
"841 437 OFFCURVE",
"841 473 CURVE SMOOTH",
"841 496 OFFCURVE",
"838 499 OFFCURVE",
"828 499 CURVE SMOOTH",
"49 499 LINE SMOOTH",
"34 499 OFFCURVE",
"23 477 OFFCURVE",
"23 441 CURVE SMOOTH",
"23 418 OFFCURVE",
"26 415 OFFCURVE",
"36 415 CURVE SMOOTH"
);
}
);
width = 843;
}
);
leftMetricsKey = Eth;
rightMetricsKey = "=|";
unicode = 0126;
},
{
color = 1;
glyphname = I;
lastChange = "2022-09-23 15:06:44 +0000";
layers = (
{
anchors = (
{
name = bottom;
position = "{122, 0}";
},
{
name = ogonek;
position = "{261, 10}";
},
{
name = top;
position = "{176, 652}";
},
{
name = topleft;
position = "{20, 652}";
}
);
layerId = "220B7CD1-1E4F-4884-BA06-A44A5DCE8B14";
paths = (
{
closed = 1;
nodes = (
"157 -13 OFFCURVE",
"159 -10 OFFCURVE",
"159 -5 CURVE SMOOTH",
"159 317 OFFCURVE",
"194 612 OFFCURVE",
"194 626 CURVE SMOOTH",
"194 644 OFFCURVE",
"164 652 OFFCURVE",
"141 652 CURVE SMOOTH",
"132 652 OFFCURVE",
"131 650 OFFCURVE",
"131 645 CURVE SMOOTH",
"128 537 OFFCURVE",
"96 26 OFFCURVE",
"96 14 CURVE SMOOTH",
"96 -4 OFFCURVE",
"126 -13 OFFCURVE",
"149 -13 CURVE SMOOTH"
);
}
);
width = 290;
},
{
anchors = (
{
name = bottom;
position = "{160, 0}";
},
{
name = ogonek;
position = "{261, 10}";
},
{
name = top;
position = "{194, 652}";
},
{
name = topleft;
position = "{20, 652}";
}
);
layerId = "63F4CE79-9D5F-46D3-B41C-385689F27F0A";
paths = (
{
closed = 1;
nodes = (
"268 -13 OFFCURVE",
"273 -4 OFFCURVE",
"273 21 CURVE",
"273 199 OFFCURVE",
"297 562 OFFCURVE",
"297 579 CURVE",
"297 630 OFFCURVE",
"190 652 OFFCURVE",
"126 652 CURVE",
"82 652 OFFCURVE",
"77 643 OFFCURVE",
"77 618 CURVE",
"77 440 OFFCURVE",
"53 77 OFFCURVE",
"53 59 CURVE",
"53 9 OFFCURVE",
"160 -13 OFFCURVE",
"224 -13 CURVE"
);
}
);
width = 350;
}
);
note = I;
unicode = 0049;
},
{
color = 4;
glyphname = Iotaafrican;
lastChange = "2022-09-23 14:50:00 +0000";
layers = (
{
layerId = "220B7CD1-1E4F-4884-BA06-A44A5DCE8B14";
paths = (
{
closed = 1;
nodes = (
"200 -13 OFFCURVE",
"285 88 OFFCURVE",
"318 131 CURVE SMOOTH",
"320 133 OFFCURVE",
"321 137 OFFCURVE",
"321 141 CURVE SMOOTH",
"321 154 OFFCURVE",
"311 170 OFFCURVE",
"307 170 CURVE SMOOTH",
"304 170 OFFCURVE",
"303 167 OFFCURVE",
"300 164 CURVE",
"279 136 OFFCURVE",
"197 41 OFFCURVE",
"178 41 CURVE SMOOTH",
"166 41 OFFCURVE",
"159 48 OFFCURVE",
"162 89 CURVE SMOOTH",
"169 202 OFFCURVE",
"207 580 OFFCURVE",
"207 626 CURVE SMOOTH",
"207 644 OFFCURVE",
"179 653 OFFCURVE",
"158 653 CURVE SMOOTH",
"150 653 OFFCURVE",
"149 650 OFFCURVE",
"149 645 CURVE SMOOTH",
"132 368 OFFCURVE",
"116 191 OFFCURVE",
"107 63 CURVE SMOOTH",
"105 40 OFFCURVE",
"106 26 OFFCURVE",
"109 20 CURVE SMOOTH",
"114 9 OFFCURVE",
"147 -13 OFFCURVE",
"158 -13 CURVE SMOOTH"
);
}
);
width = 312;
},
{
layerId = "63F4CE79-9D5F-46D3-B41C-385689F27F0A";
paths = (
{
closed = 1;
nodes = (
"200 -13 OFFCURVE",
"285 88 OFFCURVE",
"318 131 CURVE SMOOTH",
"320 133 OFFCURVE",
"321 137 OFFCURVE",
"321 141 CURVE SMOOTH",
"321 154 OFFCURVE",
"311 170 OFFCURVE",
"307 170 CURVE SMOOTH",
"304 170 OFFCURVE",
"303 167 OFFCURVE",
"300 164 CURVE",
"279 136 OFFCURVE",
"197 41 OFFCURVE",
"178 41 CURVE SMOOTH",
"166 41 OFFCURVE",
"159 48 OFFCURVE",
"162 89 CURVE SMOOTH",
"169 202 OFFCURVE",
"207 580 OFFCURVE",
"207 626 CURVE SMOOTH",
"207 644 OFFCURVE",
"179 653 OFFCURVE",
"158 653 CURVE SMOOTH",
"150 653 OFFCURVE",
"149 650 OFFCURVE",
"149 645 CURVE SMOOTH",
"132 368 OFFCURVE",
"116 191 OFFCURVE",
"107 63 CURVE SMOOTH",
"105 40 OFFCURVE",
"106 26 OFFCURVE",
"109 20 CURVE SMOOTH",
"114 9 OFFCURVE",
"147 -13 OFFCURVE",
"158 -13 CURVE SMOOTH"
);
}
);
width = 312;
}
);
unicode = 0196;
},
{
color = 0;
glyphname = Istroke;
lastChange = "2022-09-23 16:26:40 +0000";
layers = (
{
anchors = (
{
name = bottom;
position = "{122, 0}";
},
{
name = ogonek;
position = "{261, 10}";
},
{
name = top;
position = "{176, 652}";
},
{
name = topleft;
position = "{20, 652}";
}
);
layerId = "220B7CD1-1E4F-4884-BA06-A44A5DCE8B14";
paths = (
{
closed = 1;
nodes = (
"157 -13 OFFCURVE",
"159 -10 OFFCURVE",
"159 -5 CURVE SMOOTH",
"159 317 OFFCURVE",
"194 612 OFFCURVE",
"194 626 CURVE SMOOTH",
"194 644 OFFCURVE",
"164 652 OFFCURVE",
"141 652 CURVE SMOOTH",
"132 652 OFFCURVE",
"131 650 OFFCURVE",
"131 645 CURVE SMOOTH",
"128 537 OFFCURVE",
"96 26 OFFCURVE",
"96 14 CURVE SMOOTH",
"96 -4 OFFCURVE",
"126 -13 OFFCURVE",
"149 -13 CURVE SMOOTH"
);
},
{
closed = 1;
nodes = (
"234 322 LINE",
"250 322 OFFCURVE",
"257 343 OFFCURVE",
"257 360 CURVE SMOOTH",
"257 366 OFFCURVE",
"254 368 OFFCURVE",
"249 368 CURVE",
"54 368 LINE",
"36 368 OFFCURVE",
"32 347 OFFCURVE",
"32 330 CURVE SMOOTH",
"32 323 OFFCURVE",
"34 322 OFFCURVE",
"39 322 CURVE"
);
}
);
width = 290;
},
{
anchors = (
{
name = bottom;
position = "{160, 0}";
},
{
name = ogonek;
position = "{261, 10}";
},
{
name = top;
position = "{194, 652}";
},
{
name = topleft;
position = "{20, 652}";
}
);
layerId = "63F4CE79-9D5F-46D3-B41C-385689F27F0A";
paths = (
{
closed = 1;
nodes = (
"268 -13 OFFCURVE",
"273 -4 OFFCURVE",
"273 21 CURVE",
"273 199 OFFCURVE",
"297 562 OFFCURVE",
"297 579 CURVE",
"297 630 OFFCURVE",
"190 652 OFFCURVE",
"126 652 CURVE",
"82 652 OFFCURVE",
"77 643 OFFCURVE",
"77 618 CURVE",
"77 440 OFFCURVE",
"53 77 OFFCURVE",
"53 59 CURVE",
"53 9 OFFCURVE",
"160 -13 OFFCURVE",
"224 -13 CURVE"
);
},
{
closed = 1;
nodes = (
"319 300 LINE",
"334 300 OFFCURVE",
"345 322 OFFCURVE",
"345 358 CURVE SMOOTH",
"345 381 OFFCURVE",
"342 384 OFFCURVE",
"332 384 CURVE",
"25 384 LINE",
"10 384 OFFCURVE",
"-1 362 OFFCURVE",
"-1 326 CURVE SMOOTH",
"-1 303 OFFCURVE",
"2 300 OFFCURVE",
"12 300 CURVE"
);
}
);
width = 350;
}
);
unicode = 0197;
},
{
color = 1;
glyphname = J;
lastChange = "2022-09-23 20:40:40 +0000";
layers = (
{
anchors = (
{
name = bottom;
position = "{137, 0}";
},
{
name = top;
position = "{194, 652}";
}
);
layerId = "220B7CD1-1E4F-4884-BA06-A44A5DCE8B14";
paths = (
{
closed = 1;
nodes = (
"96 -13 OFFCURVE",
"151 24 OFFCURVE",
"181 115 CURVE SMOOTH",
"209 200 OFFCURVE",
"218 543 OFFCURVE",
"218 626 CURVE SMOOTH",
"218 644 OFFCURVE",
"188 652 OFFCURVE",
"165 652 CURVE SMOOTH",
"156 652 OFFCURVE",
"155 650 OFFCURVE",
"155 645 CURVE SMOOTH",
"155 252 OFFCURVE",
"137 82 OFFCURVE",
"98 48 CURVE SMOOTH",
"82 34 OFFCURVE",
"64 26 OFFCURVE",
"42 26 CURVE SMOOTH",
"-1 26 OFFCURVE",
"-48 49 OFFCURVE",
"-59 49 CURVE SMOOTH",
"-64 49 OFFCURVE",
"-68 42 OFFCURVE",
"-68 31 CURVE SMOOTH",
"-68 12 OFFCURVE",
"-65 5 OFFCURVE",
"-53 -1 CURVE",
"-35 -10 OFFCURVE",
"-9 -13 OFFCURVE",
"33 -13 CURVE SMOOTH"
);
}
);
width = 302;
},
{
anchors = (
{
name = bottom;
position = "{137, 0}";
},
{
name = top;
position = "{222, 652}";
}
);
layerId = "63F4CE79-9D5F-46D3-B41C-385689F27F0A";
paths = (
{
closed = 1;
nodes = (
"193 -13 OFFCURVE",
"254 27 OFFCURVE",
"277 97 CURVE SMOOTH",
"311 200 OFFCURVE",
"320 503 OFFCURVE",
"320 580 CURVE SMOOTH",
"320 630 OFFCURVE",
"213 652 OFFCURVE",
"149 652 CURVE SMOOTH",
"105 652 OFFCURVE",
"100 643 OFFCURVE",
"100 618 CURVE SMOOTH",
"100 413 OFFCURVE",
"93 118 OFFCURVE",
"72 91 CURVE SMOOTH",
"64 80 OFFCURVE",
"54 77 OFFCURVE",
"40 77 CURVE SMOOTH",
"30 77 OFFCURVE",
"22 79 OFFCURVE",
"17 79 CURVE SMOOTH",
"10 79 OFFCURVE",
"5 61 OFFCURVE",
"5 49 CURVE SMOOTH",
"5 32 OFFCURVE",
"11 3 OFFCURVE",
"21 -1 CURVE",
"39 -9 OFFCURVE",
"77 -13 OFFCURVE",
"105 -13 CURVE SMOOTH"
);
}
);
width = 373;
}
);
note = J;
unicode = 004A;
},
{
color = 1;
glyphname = K;
lastChange = "2022-09-23 20:40:40 +0000";
layers = (
{
anchors = (
{
name = bottom;
position = "{286, 0}";
},
{
name = top;
position = "{330, 652}";
}
);
layerId = "220B7CD1-1E4F-4884-BA06-A44A5DCE8B14";
paths = (
{
closed = 1;
nodes = (
"157 -13 OFFCURVE",
"159 -10 OFFCURVE",
"159 -5 CURVE SMOOTH",
"159 111 OFFCURVE",
"164 222 OFFCURVE",
"169 316 CURVE",
"176 311 OFFCURVE",
"185 302 OFFCURVE",
"198 292 CURVE SMOOTH",
"275 228 OFFCURVE",
"448 69 OFFCURVE",
"537 -8 CURVE SMOOTH",
"540 -11 OFFCURVE",
"544 -13 OFFCURVE",
"553 -13 CURVE SMOOTH",
"562 -13 OFFCURVE",
"578 -2 OFFCURVE",
"588 7 CURVE SMOOTH",
"594 13 OFFCURVE",
"599 18 OFFCURVE",
"599 20 CURVE SMOOTH",
"599 23 OFFCURVE",
"598 24 OFFCURVE",
"592 29 CURVE SMOOTH",
"455 134 OFFCURVE",
"275 297 OFFCURVE",
"239 331 CURVE",
"288 374 OFFCURVE",
"497 557 OFFCURVE",
"579 633 CURVE SMOOTH",
"585 639 OFFCURVE",
"587 641 OFFCURVE",
"587 644 CURVE SMOOTH",
"587 649 OFFCURVE",
"572 652 OFFCURVE",
"557 652 CURVE SMOOTH",
"539 652 OFFCURVE",
"531 650 OFFCURVE",
"520 640 CURVE SMOOTH",
"366 500 OFFCURVE",
"213 359 OFFCURVE",
"169 322 CURVE",
"179 492 OFFCURVE",
"194 617 OFFCURVE",
"194 626 CURVE SMOOTH",
"194 644 OFFCURVE",
"164 652 OFFCURVE",
"141 652 CURVE SMOOTH",
"132 652 OFFCURVE",
"131 650 OFFCURVE",
"131 645 CURVE SMOOTH",
"128 537 OFFCURVE",
"96 26 OFFCURVE",
"96 14 CURVE SMOOTH",
"96 -4 OFFCURVE",
"126 -13 OFFCURVE",
"149 -13 CURVE SMOOTH"
);
}
);
width = 599;
},
{
anchors = (
{
name = bottom;
position = "{286, 0}";
},
{
name = top;
position = "{330, 652}";
}
);
layerId = "63F4CE79-9D5F-46D3-B41C-385689F27F0A";
paths = (
{
closed = 1;
nodes = (
"268 -13 OFFCURVE",
"273 -4 OFFCURVE",
"273 21 CURVE",
"273 88 OFFCURVE",
"276 185 OFFCURVE",
"280 276 CURVE",
"286 263 OFFCURVE",
"311 251 OFFCURVE",
"327 246 CURVE",
"371 168 OFFCURVE",
"414 89 OFFCURVE",
"458 14 CURVE",
"472 -10 OFFCURVE",
"482 -13 OFFCURVE",
"504 -13 CURVE",
"559 -13 OFFCURVE",
"617 17 OFFCURVE",
"659 48 CURVE",
"670 56 OFFCURVE",
"678 63 OFFCURVE",
"678 70 CURVE",
"678 77 OFFCURVE",
"676 83 OFFCURVE",
"663 101 CURVE",
"623 157 OFFCURVE",
"515 344 OFFCURVE",
"492 384 CURVE",
"563 476 OFFCURVE",
"618 538 OFFCURVE",
"645 570 CURVE",
"656 583 OFFCURVE",
"661 590 OFFCURVE",
"661 596 CURVE",
"661 614 OFFCURVE",
"626 652 OFFCURVE",
"579 652 CURVE",
"550 652 OFFCURVE",
"542 638 OFFCURVE",
"526 619 CURVE",
"488 573 OFFCURVE",
"346 390 OFFCURVE",
"282 311 CURVE",
"289 447 OFFCURVE",
"297 570 OFFCURVE",
"297 580 CURVE",
"297 630 OFFCURVE",
"190 652 OFFCURVE",
"126 652 CURVE",
"82 652 OFFCURVE",
"77 643 OFFCURVE",
"77 618 CURVE",
"77 440 OFFCURVE",
"53 77 OFFCURVE",
"53 59 CURVE",
"53 9 OFFCURVE",
"160 -13 OFFCURVE",
"224 -13 CURVE"
);
}
);
width = 599;
}
);
note = K;
unicode = 004B;
},
{
color = 1;
glyphname = L;
lastChange = "2022-09-23 20:40:40 +0000";
layers = (
{
anchors = (
{
name = bottom;
position = "{277, 0}";
},
{
name = center;
position = "{234, 326}";
},
{
name = top;
position = "{251, 652}";
},
{
name = topright;
position = "{414, 524}";
}
);
layerId = "220B7CD1-1E4F-4884-BA06-A44A5DCE8B14";
paths = (
{
closed = 1;
nodes = (
"437 0 LINE SMOOTH",
"445 0 OFFCURVE",
"455 26 OFFCURVE",
"455 44 CURVE SMOOTH",
"455 52 OFFCURVE",
"455 58 OFFCURVE",
"452 58 CURVE SMOOTH",
"450 58 OFFCURVE",
"360 37 OFFCURVE",
"251 37 CURVE SMOOTH",
"174 37 OFFCURVE",
"162 43 OFFCURVE",
"162 82 CURVE SMOOTH",
"162 322 OFFCURVE",
"195 620 OFFCURVE",
"195 626 CURVE SMOOTH",
"195 644 OFFCURVE",
"165 652 OFFCURVE",
"142 652 CURVE SMOOTH",
"134 652 OFFCURVE",
"132 650 OFFCURVE",
"132 645 CURVE SMOOTH",
"125 428 OFFCURVE",
"103 76 OFFCURVE",
"96 0 CURVE"
);
}
);
width = 461;
},
{
anchors = (
{
name = bottom;
position = "{277, 0}";
},
{
name = center;
position = "{234, 326}";
},
{
name = top;
position = "{251, 652}";
},
{
name = topright;
position = "{414, 524}";
}
);
layerId = "63F4CE79-9D5F-46D3-B41C-385689F27F0A";
paths = (
{
closed = 1;
nodes = (
"459 0 LINE SMOOTH",
"488 0 OFFCURVE",
"495 62 OFFCURVE",
"495 81 CURVE SMOOTH",
"495 107 OFFCURVE",
"495 113 OFFCURVE",
"487 113 CURVE SMOOTH",
"477 113 OFFCURVE",
"423 106 OFFCURVE",
"371 106 CURVE SMOOTH",
"294 106 OFFCURVE",
"283 115 OFFCURVE",
"283 146 CURVE SMOOTH",
"283 213 OFFCURVE",
"305 565 OFFCURVE",
"305 580 CURVE SMOOTH",
"305 630 OFFCURVE",
"198 652 OFFCURVE",
"134 652 CURVE SMOOTH",
"90 652 OFFCURVE",
"85 643 OFFCURVE",
"85 618 CURVE SMOOTH",
"85 432 OFFCURVE",
"58 28 OFFCURVE",
"58 0 CURVE"
);
}
);
width = 461;
}
);
note = L;
unicode = 004C;
},
{
color = 1;
glyphname = Lslash;
lastChange = "2022-09-24 03:12:39 +0000";
layers = (
{
layerId = "220B7CD1-1E4F-4884-BA06-A44A5DCE8B14";
paths = (
{
closed = 1;
nodes = (
"446 0 LINE SMOOTH",
"454 0 OFFCURVE",
"464 26 OFFCURVE",
"464 44 CURVE SMOOTH",
"464 52 OFFCURVE",
"464 58 OFFCURVE",
"461 58 CURVE SMOOTH",
"459 58 OFFCURVE",
"369 37 OFFCURVE",
"260 37 CURVE SMOOTH",
"183 37 OFFCURVE",
"171 43 OFFCURVE",
"171 82 CURVE SMOOTH",
"171 148 OFFCURVE",
"173 215 OFFCURVE",
"177 280 CURVE",
"221 321 OFFCURVE",
"282 373 OFFCURVE",
"306 401 CURVE SMOOTH",
"311 407 OFFCURVE",
"314 412 OFFCURVE",
"314 423 CURVE SMOOTH",
"314 438 OFFCURVE",
"309 464 OFFCURVE",
"300 464 CURVE SMOOTH",
"296 464 OFFCURVE",
"261 423 OFFCURVE",
"180 340 CURVE",
"190 496 OFFCURVE",
"204 622 OFFCURVE",
"204 626 CURVE SMOOTH",
"204 644 OFFCURVE",
"174 652 OFFCURVE",
"151 652 CURVE SMOOTH",
"143 652 OFFCURVE",
"141 650 OFFCURVE",
"141 645 CURVE SMOOTH",
"138 544 OFFCURVE",
"131 415 OFFCURVE",
"125 298 CURVE",
"80 256 OFFCURVE",
"40 219 OFFCURVE",
"33 210 CURVE SMOOTH",
"28 204 OFFCURVE",
"25 199 OFFCURVE",
"25 188 CURVE SMOOTH",
"25 173 OFFCURVE",
"30 147 OFFCURVE",
"39 147 CURVE SMOOTH",
"43 147 OFFCURVE",
"58 168 OFFCURVE",
"121 232 CURVE",
"114 123 OFFCURVE",
"108 34 OFFCURVE",
"105 0 CURVE"
);
}
);
width = 470;
},
{
layerId = "63F4CE79-9D5F-46D3-B41C-385689F27F0A";
paths = (
{
closed = 1;
nodes = (
"453 0 LINE SMOOTH",
"482 0 OFFCURVE",
"489 62 OFFCURVE",
"489 81 CURVE SMOOTH",
"489 107 OFFCURVE",
"489 113 OFFCURVE",
"481 113 CURVE SMOOTH",
"471 113 OFFCURVE",
"417 106 OFFCURVE",
"365 106 CURVE SMOOTH",
"288 106 OFFCURVE",
"277 115 OFFCURVE",
"277 146 CURVE SMOOTH",
"277 174 OFFCURVE",
"281 251 OFFCURVE",
"285 331 CURVE",
"329 373 OFFCURVE",
"390 428 OFFCURVE",
"397 437 CURVE SMOOTH",
"402 444 OFFCURVE",
"406 449 OFFCURVE",
"406 460 CURVE SMOOTH",
"406 475 OFFCURVE",
"399 503 OFFCURVE",
"386 504 CURVE SMOOTH",
"382 504 OFFCURVE",
"352 473 OFFCURVE",
"290 411 CURVE",
"295 503 OFFCURVE",
"299 573 OFFCURVE",
"299 580 CURVE SMOOTH",
"299 630 OFFCURVE",
"192 652 OFFCURVE",
"128 652 CURVE SMOOTH",
"84 652 OFFCURVE",
"79 643 OFFCURVE",
"79 618 CURVE SMOOTH",
"79 525 OFFCURVE",
"72 379 OFFCURVE",
"66 254 CURVE",
"24 215 OFFCURVE",
"-23 171 OFFCURVE",
"-29 163 CURVE SMOOTH",
"-34 156 OFFCURVE",
"-38 151 OFFCURVE",
"-38 140 CURVE SMOOTH",
"-38 125 OFFCURVE",
"-31 96 OFFCURVE",
"-18 96 CURVE SMOOTH",
"-14 96 OFFCURVE",
"11 122 OFFCURVE",
"62 173 CURVE",
"56 80 OFFCURVE",
"52 11 OFFCURVE",
"52 0 CURVE"
);
}
);
width = 455;
}
);
rightMetricsKey = L;
unicode = 0141;
},
{
color = 1;
glyphname = M;
lastChange = "2022-09-24 02:42:59 +0000";
layers = (
{
anchors = (
{
name = bottom;
position = "{484, 0}";
},
{
name = top;
position = "{518, 652}";
}
);
layerId = "220B7CD1-1E4F-4884-BA06-A44A5DCE8B14";
paths = (
{
closed = 1;
nodes = (
"158 -13 OFFCURVE",
"159 -10 OFFCURVE",
"159 -5 CURVE SMOOTH",
"159 49 OFFCURVE",
"202 379 OFFCURVE",
"227 562 CURVE",
"270 466 OFFCURVE",
"407 134 OFFCURVE",
"461 5 CURVE SMOOTH",
"465 -4 OFFCURVE",
"476 -13 OFFCURVE",
"491 -13 CURVE SMOOTH",
"496 -13 OFFCURVE",
"500 -8 OFFCURVE",
"502 -4 CURVE SMOOTH",
"605 183 OFFCURVE",
"770 477 OFFCURVE",
"825 576 CURVE",
"825 559 OFFCURVE",
"829 427 OFFCURVE",
"828 281 CURVE SMOOTH",
"827 194 OFFCURVE",
"823 83 OFFCURVE",
"823 14 CURVE SMOOTH",
"823 -4 OFFCURVE",
"852 -13 OFFCURVE",
"873 -13 CURVE SMOOTH",
"881 -13 OFFCURVE",
"883 -10 OFFCURVE",
"883 -3 CURVE SMOOTH",
"883 210 OFFCURVE",
"880 412 OFFCURVE",
"878 625 CURVE SMOOTH",
"878 645 OFFCURVE",
"842 652 OFFCURVE",
"821 652 CURVE SMOOTH",
"812 652 OFFCURVE",
"810 651 OFFCURVE",
"806 644 CURVE SMOOTH",
"764 567 OFFCURVE",
"602 262 OFFCURVE",
"497 76 CURVE",
"443 191 OFFCURVE",
"337 443 OFFCURVE",
"264 628 CURVE SMOOTH",
"258 644 OFFCURVE",
"233 652 OFFCURVE",
"203 652 CURVE SMOOTH",
"192 652 OFFCURVE",
"190 650 OFFCURVE",
"189 637 CURVE SMOOTH",
"167 429 OFFCURVE",
"104 24 OFFCURVE",
"104 14 CURVE SMOOTH",
"104 -4 OFFCURVE",
"131 -13 OFFCURVE",
"151 -13 CURVE SMOOTH"
);
}
);
width = 1036;
},
{
anchors = (
{
name = bottom;
position = "{464, 0}";
},
{
name = top;
position = "{538, 652}";
}
);
layerId = "63F4CE79-9D5F-46D3-B41C-385689F27F0A";
paths = (
{
closed = 1;
nodes = (
"165 -13 OFFCURVE",
"171 -7 OFFCURVE",
"172 4 CURVE SMOOTH",
"180 69 OFFCURVE",
"221 412 OFFCURVE",
"235 470 CURVE",
"258 381 OFFCURVE",
"320 119 OFFCURVE",
"330 59 CURVE SMOOTH",
"337 17 OFFCURVE",
"420 -13 OFFCURVE",
"509 -13 CURVE SMOOTH",
"547 -13 OFFCURVE",
"555 -8 OFFCURVE",
"562 14 CURVE SMOOTH",
"599 129 OFFCURVE",
"698 339 OFFCURVE",
"757 474 CURVE",
"759 410 OFFCURVE",
"761 335 OFFCURVE",
"761 266 CURVE SMOOTH",
"762 168 OFFCURVE",
"762 83 OFFCURVE",
"762 61 CURVE SMOOTH",
"762 12 OFFCURVE",
"862 -13 OFFCURVE",
"936 -13 CURVE SMOOTH",
"972 -13 OFFCURVE",
"986 -7 OFFCURVE",
"986 15 CURVE SMOOTH",
"986 43 OFFCURVE",
"968 519 OFFCURVE",
"968 579 CURVE SMOOTH",
"968 630 OFFCURVE",
"842 652 OFFCURVE",
"768 652 CURVE SMOOTH",
"729 652 OFFCURVE",
"716 648 OFFCURVE",
"711 634 CURVE SMOOTH",
"689 570 OFFCURVE",
"550 271 OFFCURVE",
"517 204 CURVE",
"498 268 OFFCURVE",
"438 520 OFFCURVE",
"424 581 CURVE SMOOTH",
"413 628 OFFCURVE",
"296 652 OFFCURVE",
"211 652 CURVE SMOOTH",
"157 652 OFFCURVE",
"153 648 OFFCURVE",
"149 618 CURVE SMOOTH",
"143 570 OFFCURVE",
"62 112 OFFCURVE",
"62 59 CURVE SMOOTH",
"62 9 OFFCURVE",
"116 -13 OFFCURVE",
"148 -13 CURVE SMOOTH"
);
}
);
width = 1036;
}
);
note = M;
unicode = 004D;
},
{
color = 1;
glyphname = N;
lastChange = "2022-09-24 03:16:06 +0000";
layers = (
{
anchors = (
{
name = bottom;
position = "{416, 0}";
},
{
name = top;
position = "{450, 652}";
}
);
layerId = "220B7CD1-1E4F-4884-BA06-A44A5DCE8B14";
paths = (
{
closed = 1;
nodes = (
"152 -13 OFFCURVE",
"154 -11 OFFCURVE",
"154 -3 CURVE SMOOTH",
"154 160 OFFCURVE",
"173 544 OFFCURVE",
"174 563 CURVE",
"204 518 OFFCURVE",
"558 123 OFFCURVE",
"674 -1 CURVE SMOOTH",
"679 -6 OFFCURVE",
"685 -13 OFFCURVE",
"689 -13 CURVE SMOOTH",
"696 -13 OFFCURVE",
"729 10 OFFCURVE",
"729 19 CURVE SMOOTH",
"729 132 OFFCURVE",
"763 613 OFFCURVE",
"763 626 CURVE SMOOTH",
"763 644 OFFCURVE",
"737 652 OFFCURVE",
"714 652 CURVE SMOOTH",
"705 652 OFFCURVE",
"704 651 OFFCURVE",
"704 642 CURVE SMOOTH",
"704 290 OFFCURVE",
"684 81 OFFCURVE",
"683 77 CURVE",
"605 152 OFFCURVE",
"241 564 OFFCURVE",
"185 641 CURVE SMOOTH",
"181 646 OFFCURVE",
"174 652 OFFCURVE",
"170 652 CURVE SMOOTH",
"160 652 OFFCURVE",
"130 630 OFFCURVE",
"130 621 CURVE SMOOTH",
"130 508 OFFCURVE",
"96 26 OFFCURVE",
"96 14 CURVE SMOOTH",
"96 -4 OFFCURVE",
"121 -13 OFFCURVE",
"144 -13 CURVE SMOOTH"
);
}
);
width = 859;
},
{
anchors = (
{
name = bottom;
position = "{366, 0}";
},
{
name = top;
position = "{410, 652}";
}
);
layerId = "63F4CE79-9D5F-46D3-B41C-385689F27F0A";
paths = (
{
closed = 1;
nodes = (
"175 -13 OFFCURVE",
"178 -4 OFFCURVE",
"178 21 CURVE SMOOTH",
"178 112 OFFCURVE",
"185 317 OFFCURVE",
"189 361 CURVE",
"231 319 OFFCURVE",
"526 8 OFFCURVE",
"533 0 CURVE SMOOTH",
"540 -9 OFFCURVE",
"550 -13 OFFCURVE",
"560 -13 CURVE SMOOTH",
"592 -13 OFFCURVE",
"686 53 OFFCURVE",
"686 86 CURVE SMOOTH",
"686 156 OFFCURVE",
"708 546 OFFCURVE",
"708 580 CURVE SMOOTH",
"708 630 OFFCURVE",
"651 652 OFFCURVE",
"617 652 CURVE SMOOTH",
"593 652 OFFCURVE",
"590 643 OFFCURVE",
"590 618 CURVE SMOOTH",
"590 527 OFFCURVE",
"583 322 OFFCURVE",
"579 280 CURVE",
"537 319 OFFCURVE",
"242 631 OFFCURVE",
"235 639 CURVE SMOOTH",
"228 648 OFFCURVE",
"218 652 OFFCURVE",
"208 652 CURVE SMOOTH",
"176 652 OFFCURVE",
"82 586 OFFCURVE",
"82 553 CURVE SMOOTH",
"82 483 OFFCURVE",
"60 93 OFFCURVE",
"60 59 CURVE SMOOTH",
"60 9 OFFCURVE",
"117 -13 OFFCURVE",
"152 -13 CURVE SMOOTH"
);
}
);
width = 768;
}
);
note = N;
unicode = 004E;
},
{
color = 0;
glyphname = Eng;
lastChange = "2022-09-24 03:08:52 +0000";
layers = (
{
background = {
paths = (
{
closed = 1;
nodes = (
"696 644 OFFCURVE",
"665 652 OFFCURVE",
"642 652 CURVE SMOOTH",
"633 652 OFFCURVE",
"632 650 OFFCURVE",
"632 645 CURVE SMOOTH",
"631 597 OFFCURVE",
"626 476 OFFCURVE",
"619 353 CURVE",
"172 353 LINE",
"182 509 OFFCURVE",
"195 618 OFFCURVE",
"195 626 CURVE SMOOTH",
"195 644 OFFCURVE",
"165 652 OFFCURVE",
"142 652 CURVE SMOOTH",
"133 652 OFFCURVE",
"132 650 OFFCURVE",
"132 645 CURVE SMOOTH",
"129 537 OFFCURVE",
"97 26 OFFCURVE",
"97 14 CURVE SMOOTH",
"97 -4 OFFCURVE",
"127 -13 OFFCURVE",
"150 -13 CURVE SMOOTH",
"158 -13 OFFCURVE",
"160 -10 OFFCURVE",
"160 -5 CURVE SMOOTH",
"160 107 OFFCURVE",
"163 214 OFFCURVE",
"170 309 CURVE",
"248 313 OFFCURVE",
"326 315 OFFCURVE",
"403 315 CURVE SMOOTH",
"475 315 OFFCURVE",
"547 313 OFFCURVE",
"617 310 CURVE",
"608 160 OFFCURVE",
"597 20 OFFCURVE",
"597 14 CURVE SMOOTH",
"597 -4 OFFCURVE",
"627 -13 OFFCURVE",
"650 -13 CURVE SMOOTH",
"658 -13 OFFCURVE",
"661 -10 OFFCURVE",
"661 -5 CURVE SMOOTH",
"661 317 OFFCURVE",
"696 612 OFFCURVE",
"696 626 CURVE SMOOTH"
);
}
);
};
layerId = "220B7CD1-1E4F-4884-BA06-A44A5DCE8B14";
paths = (
{
closed = 1;
nodes = (
"505 -244 OFFCURVE",
"548 -225 OFFCURVE",
"585 -190 CURVE SMOOTH",
"622 -155 OFFCURVE",
"646 -99 OFFCURVE",
"650 -28 CURVE SMOOTH",
"657 161 OFFCURVE",
"686 483 OFFCURVE",
"686 550 CURVE SMOOTH",
"686 578 OFFCURVE",
"685 596 OFFCURVE",
"681 603 CURVE",
"675 618 OFFCURVE",
"645 643 OFFCURVE",
"631 643 CURVE SMOOTH",
"558 643 OFFCURVE",
"234 352 OFFCURVE",
"159 175 CURVE",
"159 189 OFFCURVE",
"188 554 OFFCURVE",
"188 610 CURVE SMOOTH",
"188 632 OFFCURVE",
"166 643 OFFCURVE",
"139 643 CURVE SMOOTH",
"131 643 OFFCURVE",
"129 640 OFFCURVE",
"129 633 CURVE SMOOTH",
"129 473 OFFCURVE",
"96 25 OFFCURVE",
"96 20 CURVE SMOOTH",
"96 -2 OFFCURVE",
"122 -13 OFFCURVE",
"145 -13 CURVE SMOOTH",
"154 -13 OFFCURVE",
"158 -9 OFFCURVE",
"158 -3 CURVE SMOOTH",
"158 57 OFFCURVE",
"192 139 OFFCURVE",
"238 220 CURVE SMOOTH",
"326 378 OFFCURVE",
"585 577 OFFCURVE",
"607 577 CURVE SMOOTH",
"622 577 OFFCURVE",
"626 569 OFFCURVE",
"625 519 CURVE SMOOTH",
"625 512 OFFCURVE",
"595 46 OFFCURVE",
"595 40 CURVE SMOOTH",
"579 -173 OFFCURVE",
"556 -193 OFFCURVE",
"475 -193 CURVE SMOOTH",
"405 -193 OFFCURVE",
"324 -161 OFFCURVE",
"291 -147 CURVE SMOOTH",
"285 -145 OFFCURVE",
"278 -141 OFFCURVE",
"276 -141 CURVE SMOOTH",
"273 -141 OFFCURVE",
"269 -146 OFFCURVE",
"269 -164 CURVE SMOOTH",
"269 -174 OFFCURVE",
"273 -185 OFFCURVE",
"279 -189 CURVE SMOOTH",
"291 -198 OFFCURVE",
"383 -244 OFFCURVE",
"472 -244 CURVE SMOOTH"
);
}
);
width = 787;
},
{
background = {
paths = (
{
closed = 1;
nodes = (
"645 644 OFFCURVE",
"614 652 OFFCURVE",
"591 652 CURVE SMOOTH",
"582 652 OFFCURVE",
"581 650 OFFCURVE",
"581 645 CURVE SMOOTH",
"580 597 OFFCURVE",
"575 476 OFFCURVE",
"568 353 CURVE",
"121 353 LINE",
"131 509 OFFCURVE",
"144 618 OFFCURVE",
"144 626 CURVE SMOOTH",
"144 644 OFFCURVE",
"114 652 OFFCURVE",
"91 652 CURVE SMOOTH",
"82 652 OFFCURVE",
"81 650 OFFCURVE",
"81 645 CURVE SMOOTH",
"78 537 OFFCURVE",
"46 26 OFFCURVE",
"46 14 CURVE SMOOTH",
"46 -4 OFFCURVE",
"76 -13 OFFCURVE",
"99 -13 CURVE SMOOTH",
"107 -13 OFFCURVE",
"109 -10 OFFCURVE",
"109 -5 CURVE SMOOTH",
"109 107 OFFCURVE",
"112 214 OFFCURVE",
"119 309 CURVE",
"197 313 OFFCURVE",
"275 315 OFFCURVE",
"352 315 CURVE SMOOTH",
"424 315 OFFCURVE",
"496 313 OFFCURVE",
"566 310 CURVE",
"557 160 OFFCURVE",
"546 20 OFFCURVE",
"546 14 CURVE SMOOTH",
"546 -4 OFFCURVE",
"576 -13 OFFCURVE",
"599 -13 CURVE SMOOTH",
"607 -13 OFFCURVE",
"610 -10 OFFCURVE",
"610 -5 CURVE SMOOTH",
"610 317 OFFCURVE",
"645 612 OFFCURVE",
"645 626 CURVE SMOOTH"
);
}
);
};
layerId = "63F4CE79-9D5F-46D3-B41C-385689F27F0A";
paths = (
{
closed = 1;
nodes = (
"454 -244 OFFCURVE",
"497 -225 OFFCURVE",
"534 -190 CURVE SMOOTH",
"571 -155 OFFCURVE",
"595 -99 OFFCURVE",
"599 -28 CURVE SMOOTH",
"606 161 OFFCURVE",
"635 483 OFFCURVE",
"635 550 CURVE SMOOTH",
"635 578 OFFCURVE",
"634 596 OFFCURVE",
"630 603 CURVE",
"624 618 OFFCURVE",
"594 643 OFFCURVE",
"580 643 CURVE SMOOTH",
"507 643 OFFCURVE",
"183 352 OFFCURVE",
"108 175 CURVE",
"108 189 OFFCURVE",
"137 554 OFFCURVE",
"137 610 CURVE SMOOTH",
"137 632 OFFCURVE",
"115 643 OFFCURVE",
"88 643 CURVE SMOOTH",
"80 643 OFFCURVE",
"78 640 OFFCURVE",
"78 633 CURVE SMOOTH",
"78 473 OFFCURVE",
"45 25 OFFCURVE",
"45 20 CURVE SMOOTH",
"45 -2 OFFCURVE",
"71 -13 OFFCURVE",
"94 -13 CURVE SMOOTH",
"103 -13 OFFCURVE",
"107 -9 OFFCURVE",
"107 -3 CURVE SMOOTH",
"107 57 OFFCURVE",
"141 139 OFFCURVE",
"187 220 CURVE SMOOTH",
"275 378 OFFCURVE",
"534 577 OFFCURVE",
"556 577 CURVE SMOOTH",
"571 577 OFFCURVE",
"575 569 OFFCURVE",
"574 519 CURVE SMOOTH",
"574 512 OFFCURVE",
"544 46 OFFCURVE",
"544 40 CURVE SMOOTH",
"528 -173 OFFCURVE",
"505 -193 OFFCURVE",
"424 -193 CURVE SMOOTH",
"354 -193 OFFCURVE",
"273 -161 OFFCURVE",
"240 -147 CURVE SMOOTH",
"234 -145 OFFCURVE",
"227 -141 OFFCURVE",
"225 -141 CURVE SMOOTH",
"222 -141 OFFCURVE",
"218 -146 OFFCURVE",
"218 -164 CURVE SMOOTH",
"218 -174 OFFCURVE",
"222 -185 OFFCURVE",
"228 -189 CURVE SMOOTH",
"240 -198 OFFCURVE",
"332 -244 OFFCURVE",
"421 -244 CURVE SMOOTH"
);
}
);
width = 649;
}
);
leftMetricsKey = H;
rightMetricsKey = H;
unicode = 014A;
},
{
color = 0;
glyphname = Nhookleft;
lastChange = "2022-09-24 01:15:17 +0000";
layers = (
{
anchors = (
{
name = bottom;
position = "{416, 0}";
},
{
name = top;
position = "{450, 652}";
}
);
layerId = "220B7CD1-1E4F-4884-BA06-A44A5DCE8B14";
paths = (
{
closed = 1;
nodes = (
"55 -163 OFFCURVE",
"121 -126 OFFCURVE",
"140 -35 CURVE SMOOTH",
"158 50 OFFCURVE",
"156 283 OFFCURVE",
"160 366 CURVE SMOOTH",
"165 473 OFFCURVE",
"174 555 OFFCURVE",
"174 563 CURVE",
"204 518 OFFCURVE",
"558 123 OFFCURVE",
"674 -1 CURVE SMOOTH",
"679 -6 OFFCURVE",
"685 -13 OFFCURVE",
"689 -13 CURVE SMOOTH",
"696 -13 OFFCURVE",
"729 10 OFFCURVE",
"729 19 CURVE SMOOTH",
"729 132 OFFCURVE",
"763 613 OFFCURVE",
"763 626 CURVE SMOOTH",
"763 644 OFFCURVE",
"737 652 OFFCURVE",
"714 652 CURVE SMOOTH",
"705 652 OFFCURVE",
"704 651 OFFCURVE",
"704 642 CURVE SMOOTH",
"704 290 OFFCURVE",
"684 81 OFFCURVE",
"683 77 CURVE",
"605 152 OFFCURVE",
"241 564 OFFCURVE",
"185 641 CURVE SMOOTH",
"181 646 OFFCURVE",
"174 652 OFFCURVE",
"170 652 CURVE SMOOTH",
"160 652 OFFCURVE",
"130 630 OFFCURVE",
"130 621 CURVE SMOOTH",
"130 580 OFFCURVE",
"113 286 OFFCURVE",
"111 244 CURVE SMOOTH",
"106 169 OFFCURVE",
"101 101 OFFCURVE",
"99 58 CURVE SMOOTH",
"90 -50 OFFCURVE",
"81 -81 OFFCURVE",
"57 -102 CURVE SMOOTH",
"41 -116 OFFCURVE",
"23 -124 OFFCURVE",
"1 -124 CURVE SMOOTH",
"-42 -124 OFFCURVE",
"-89 -101 OFFCURVE",
"-100 -101 CURVE SMOOTH",
"-105 -101 OFFCURVE",
"-109 -108 OFFCURVE",
"-109 -119 CURVE SMOOTH",
"-109 -138 OFFCURVE",
"-106 -145 OFFCURVE",
"-94 -151 CURVE SMOOTH",
"-76 -160 OFFCURVE",
"-50 -163 OFFCURVE",
"-8 -163 CURVE SMOOTH"
);
}
);
width = 859;
},
{
anchors = (
{
name = bottom;
position = "{416, 0}";
},
{
name = top;
position = "{450, 652}";
}
);
layerId = "63F4CE79-9D5F-46D3-B41C-385689F27F0A";
paths = (
{
closed = 1;
nodes = (
"55 -163 OFFCURVE",
"121 -126 OFFCURVE",
"140 -35 CURVE SMOOTH",
"158 50 OFFCURVE",
"156 283 OFFCURVE",
"160 366 CURVE SMOOTH",
"165 473 OFFCURVE",
"174 555 OFFCURVE",
"174 563 CURVE",
"204 518 OFFCURVE",
"558 123 OFFCURVE",
"674 -1 CURVE SMOOTH",
"679 -6 OFFCURVE",
"685 -13 OFFCURVE",
"689 -13 CURVE SMOOTH",
"696 -13 OFFCURVE",
"729 10 OFFCURVE",
"729 19 CURVE SMOOTH",
"729 132 OFFCURVE",
"763 613 OFFCURVE",
"763 626 CURVE SMOOTH",
"763 644 OFFCURVE",
"737 652 OFFCURVE",
"714 652 CURVE SMOOTH",
"705 652 OFFCURVE",
"704 651 OFFCURVE",
"704 642 CURVE SMOOTH",
"704 290 OFFCURVE",
"684 81 OFFCURVE",
"683 77 CURVE",
"605 152 OFFCURVE",
"241 564 OFFCURVE",
"185 641 CURVE SMOOTH",
"181 646 OFFCURVE",
"174 652 OFFCURVE",
"170 652 CURVE SMOOTH",
"160 652 OFFCURVE",
"130 630 OFFCURVE",
"130 621 CURVE SMOOTH",
"130 580 OFFCURVE",
"113 286 OFFCURVE",
"111 244 CURVE SMOOTH",
"106 169 OFFCURVE",
"101 101 OFFCURVE",
"99 58 CURVE SMOOTH",
"90 -50 OFFCURVE",
"81 -81 OFFCURVE",
"57 -102 CURVE SMOOTH",
"41 -116 OFFCURVE",
"23 -124 OFFCURVE",
"1 -124 CURVE SMOOTH",
"-42 -124 OFFCURVE",
"-89 -101 OFFCURVE",
"-100 -101 CURVE SMOOTH",
"-105 -101 OFFCURVE",
"-109 -108 OFFCURVE",
"-109 -119 CURVE SMOOTH",
"-109 -138 OFFCURVE",
"-106 -145 OFFCURVE",
"-94 -151 CURVE SMOOTH",
"-76 -160 OFFCURVE",
"-50 -163 OFFCURVE",
"-8 -163 CURVE SMOOTH"
);
}
);
width = 859;
}
);
unicode = 019D;
},
{
color = 1;
glyphname = O;
lastChange = "2022-09-23 15:03:41 +0000";
layers = (
{
anchors = (
{
name = bottom;
position = "{360, 0}";
},
{
name = center;
position = "{377, 326}";
},
{
name = ogonek;
position = "{428, 10}";
},
{
name = top;
position = "{394, 652}";
},
{
name = topleft;
position = "{40, 652}";
},
{
name = topright;
position = "{748, 652}";
}
);
layerId = "220B7CD1-1E4F-4884-BA06-A44A5DCE8B14";
paths = (
{
closed = 1;
nodes = (
"586 -13 OFFCURVE",
"685 134 OFFCURVE",
"685 349 CURVE SMOOTH",
"685 528 OFFCURVE",
"596 652 OFFCURVE",
"378 652 CURVE SMOOTH",
"162 652 OFFCURVE",
"63 506 OFFCURVE",
"63 291 CURVE SMOOTH",
"63 112 OFFCURVE",
"152 -13 OFFCURVE",
"370 -13 CURVE SMOOTH"
);
},
{
closed = 1;
nodes = (
"196 24 OFFCURVE",
"124 135 OFFCURVE",
"124 294 CURVE SMOOTH",
"124 485 OFFCURVE",
"204 615 OFFCURVE",
"377 615 CURVE SMOOTH",
"552 615 OFFCURVE",
"624 505 OFFCURVE",
"624 346 CURVE SMOOTH",
"624 154 OFFCURVE",
"544 24 OFFCURVE",
"371 24 CURVE SMOOTH"
);
}
);
width = 748;
},
{
anchors = (
{
name = bottom;
position = "{360, 0}";
},
{
name = center;
position = "{377, 326}";
},
{
name = ogonek;
position = "{428, 10}";
},
{
name = top;
position = "{394, 652}";
},
{
name = topleft;
position = "{40, 652}";
},
{
name = topright;
position = "{748, 652}";
}
);
background = {
paths = (
{
closed = 1;
nodes = (
"567 -13 OFFCURVE",
"723 45 OFFCURVE",
"723 364 CURVE",
"723 365 LINE",
"723 635 OFFCURVE",
"562 652 OFFCURVE",
"406 652 CURVE",
"191 652 OFFCURVE",
"35 594 OFFCURVE",
"35 275 CURVE",
"35 5 OFFCURVE",
"196 -13 OFFCURVE",
"353 -13 CURVE"
);
},
{
closed = 1;
nodes = (
"315 68 OFFCURVE",
"263 125 OFFCURVE",
"263 279 CURVE",
"263 401 OFFCURVE",
"280 580 OFFCURVE",
"358 580 CURVE",
"443 580 OFFCURVE",
"495 522 OFFCURVE",
"495 370 CURVE",
"495 369 LINE",
"495 246 OFFCURVE",
"479 68 OFFCURVE",
"400 68 CURVE"
);
}
);
};
layerId = "63F4CE79-9D5F-46D3-B41C-385689F27F0A";
paths = (
{
closed = 1;
nodes = (
"567 -13 OFFCURVE",
"723 45 OFFCURVE",
"723 365 CURVE SMOOTH",
"723 635 OFFCURVE",
"562 652 OFFCURVE",
"406 652 CURVE SMOOTH",
"191 652 OFFCURVE",
"35 594 OFFCURVE",
"35 275 CURVE SMOOTH",
"35 5 OFFCURVE",
"196 -13 OFFCURVE",
"353 -13 CURVE SMOOTH"
);
},
{
closed = 1;
nodes = (
"315 68 OFFCURVE",
"263 125 OFFCURVE",
"263 279 CURVE SMOOTH",
"263 401 OFFCURVE",
"280 580 OFFCURVE",
"358 580 CURVE SMOOTH",
"443 580 OFFCURVE",
"495 522 OFFCURVE",
"495 370 CURVE SMOOTH",
"495 246 OFFCURVE",
"479 68 OFFCURVE",
"400 68 CURVE SMOOTH"
);
}
);
width = 748;
}
);
note = O;
unicode = 004F;
},
{
color = 0;
glyphname = Oopen;
lastChange = "2022-09-24 01:15:32 +0000";
layers = (
{
anchors = (
{
name = bottom;
position = "{229, 0}";
},
{
name = top;
position = "{268, 652}";
}
);
layerId = "220B7CD1-1E4F-4884-BA06-A44A5DCE8B14";
paths = (
{
closed = 1;
nodes = (
"493 0 OFFCURVE",
"588 176 OFFCURVE",
"594 340 CURVE SMOOTH",
"602 594 OFFCURVE",
"425 665 OFFCURVE",
"268 665 CURVE SMOOTH",
"173 665 OFFCURVE",
"87 642 OFFCURVE",
"61 626 CURVE SMOOTH",
"51 620 OFFCURVE",
"48 602 OFFCURVE",
"46 584 CURVE SMOOTH",
"46 576 OFFCURVE",
"46 570 OFFCURVE",
"49 570 CURVE SMOOTH",
"52 570 OFFCURVE",
"59 573 OFFCURVE",
"69 578 CURVE SMOOTH",
"102 595 OFFCURVE",
"179 620 OFFCURVE",
"276 620 CURVE SMOOTH",
"420 620 OFFCURVE",
"539 531 OFFCURVE",
"533 336 CURVE SMOOTH",
"525 139 OFFCURVE",
"401 39 OFFCURVE",
"248 39 CURVE SMOOTH",
"119 39 OFFCURVE",
"59 97 OFFCURVE",
"41 97 CURVE SMOOTH",
"35 97 OFFCURVE",
"28 71 OFFCURVE",
"28 56 CURVE SMOOTH",
"28 49 OFFCURVE",
"26 42 OFFCURVE",
"47 32 CURVE SMOOTH",
"86 12 OFFCURVE",
"151 0 OFFCURVE",
"258 0 CURVE SMOOTH"
);
}
);
width = 629;
},
{
anchors = (
{
name = bottom;
position = "{229, 0}";
},
{
name = top;
position = "{268, 652}";
}
);
layerId = "63F4CE79-9D5F-46D3-B41C-385689F27F0A";
paths = (
{
closed = 1;
nodes = (
"493 0 OFFCURVE",
"588 176 OFFCURVE",
"594 340 CURVE SMOOTH",
"602 594 OFFCURVE",
"425 665 OFFCURVE",
"268 665 CURVE SMOOTH",
"173 665 OFFCURVE",
"87 642 OFFCURVE",
"61 626 CURVE SMOOTH",
"51 620 OFFCURVE",
"48 602 OFFCURVE",
"46 584 CURVE SMOOTH",
"46 576 OFFCURVE",
"46 570 OFFCURVE",
"49 570 CURVE SMOOTH",
"52 570 OFFCURVE",
"59 573 OFFCURVE",
"69 578 CURVE SMOOTH",
"102 595 OFFCURVE",
"179 620 OFFCURVE",
"276 620 CURVE SMOOTH",
"420 620 OFFCURVE",
"539 531 OFFCURVE",
"533 336 CURVE SMOOTH",
"525 139 OFFCURVE",
"401 39 OFFCURVE",
"248 39 CURVE SMOOTH",
"119 39 OFFCURVE",
"59 97 OFFCURVE",
"41 97 CURVE SMOOTH",
"35 97 OFFCURVE",
"28 71 OFFCURVE",
"28 56 CURVE SMOOTH",
"28 49 OFFCURVE",
"26 42 OFFCURVE",
"47 32 CURVE SMOOTH",
"86 12 OFFCURVE",
"151 0 OFFCURVE",
"258 0 CURVE SMOOTH"
);
}
);
width = 629;
}
);
unicode = 0186;
},
{
color = 1;
glyphname = Oslash;
lastChange = "2022-09-23 20:40:40 +0000";
layers = (
{
anchors = (
{
name = bottom;
position = "{360, 0}";
},
{
name = top;
position = "{394, 652}";
}
);
layerId = "220B7CD1-1E4F-4884-BA06-A44A5DCE8B14";
paths = (
{
closed = 1;
nodes = (
"88 -101 OFFCURVE",
"91 -97 OFFCURVE",
"96 -90 CURVE SMOOTH",
"185 31 LINE",
"232 3 OFFCURVE",
"293 -13 OFFCURVE",
"370 -13 CURVE SMOOTH",
"586 -13 OFFCURVE",
"685 134 OFFCURVE",
"685 349 CURVE SMOOTH",
"685 442 OFFCURVE",
"661 520 OFFCURVE",
"607 573 CURVE",
"692 682 LINE SMOOTH",
"699 690 OFFCURVE",
"701 695 OFFCURVE",
"701 700 CURVE SMOOTH",
"701 717 OFFCURVE",
"679 733 OFFCURVE",
"673 733 CURVE SMOOTH",
"669 733 OFFCURVE",
"666 729 OFFCURVE",
"661 722 CURVE SMOOTH",
"572 602 LINE",
"524 635 OFFCURVE",
"460 652 OFFCURVE",
"378 652 CURVE SMOOTH",
"162 652 OFFCURVE",
"63 506 OFFCURVE",
"63 291 CURVE SMOOTH",
"63 193 OFFCURVE",
"89 111 OFFCURVE",
"150 58 CURVE",
"65 -50 LINE SMOOTH",
"58 -58 OFFCURVE",
"56 -63 OFFCURVE",
"56 -68 CURVE SMOOTH",
"56 -85 OFFCURVE",
"78 -101 OFFCURVE",
"84 -101 CURVE SMOOTH"
);
},
{
closed = 1;
nodes = (
"160 124 OFFCURVE",
"124 182 OFFCURVE",
"124 296 CURVE SMOOTH",
"124 485 OFFCURVE",
"209 617 OFFCURVE",
"374 617 CURVE SMOOTH",
"450 617 OFFCURVE",
"505 596 OFFCURVE",
"539 566 CURVE",
"479 482 OFFCURVE",
"272 213 OFFCURVE",
"186 95 CURVE"
);
},
{
closed = 1;
nodes = (
"309 24 OFFCURVE",
"257 38 OFFCURVE",
"218 66 CURVE",
"281 152 OFFCURVE",
"492 428 OFFCURVE",
"571 534 CURVE",
"609 488 OFFCURVE",
"624 414 OFFCURVE",
"624 346 CURVE SMOOTH",
"624 154 OFFCURVE",
"544 24 OFFCURVE",
"371 24 CURVE SMOOTH"
);
}
);
width = 748;
},
{
anchors = (
{
name = bottom;
position = "{360, 0}";
},
{
name = top;
position = "{394, 652}";
}
);
layerId = "63F4CE79-9D5F-46D3-B41C-385689F27F0A";
paths = (
{
closed = 1;
nodes = (
"75 -95 OFFCURVE",
"81 -89 OFFCURVE",
"88 -80 CURVE SMOOTH",
"166 14 LINE",
"232 -11 OFFCURVE",
"293 -13 OFFCURVE",
"352 -13 CURVE SMOOTH",
"567 -13 OFFCURVE",
"723 45 OFFCURVE",
"723 364 CURVE SMOOTH",
"723 492 OFFCURVE",
"688 555 OFFCURVE",
"649 589 CURVE",
"719 666 LINE SMOOTH",
"727 674 OFFCURVE",
"730 680 OFFCURVE",
"730 685 CURVE SMOOTH",
"730 708 OFFCURVE",
"697 734 OFFCURVE",
"687 734 CURVE SMOOTH",
"683 734 OFFCURVE",
"677 728 OFFCURVE",
"670 719 CURVE SMOOTH",
"592 625 LINE",
"542 647 OFFCURVE",
"478 652 OFFCURVE",
"405 652 CURVE SMOOTH",
"191 652 OFFCURVE",
"35 594 OFFCURVE",
"35 274 CURVE SMOOTH",
"35 155 OFFCURVE",
"66 86 OFFCURVE",
"109 50 CURVE",
"39 -27 LINE SMOOTH",
"31 -35 OFFCURVE",
"28 -41 OFFCURVE",
"28 -46 CURVE SMOOTH",
"28 -69 OFFCURVE",
"61 -95 OFFCURVE",
"71 -95 CURVE SMOOTH"
);
},
{
closed = 1;
nodes = (
"345 69 OFFCURVE",
"307 86 OFFCURVE",
"285 132 CURVE",
"345 211 OFFCURVE",
"424 320 OFFCURVE",
"493 412 CURVE",
"494 390 OFFCURVE",
"494 372 OFFCURVE",
"494 354 CURVE SMOOTH",
"494 249 OFFCURVE",
"478 69 OFFCURVE",
"400 69 CURVE SMOOTH"
);
},
{
closed = 1;
nodes = (
"264 236 OFFCURVE",
"263 258 OFFCURVE",
"263 278 CURVE SMOOTH",
"263 402 OFFCURVE",
"280 581 OFFCURVE",
"357 581 CURVE SMOOTH",
"415 582 OFFCURVE",
"456 559 OFFCURVE",
"478 497 CURVE",
"418 416 OFFCURVE",
"336 302 OFFCURVE",
"266 212 CURVE"
);
}
);
width = 748;
}
);
note = Oslash;
unicode = 00D8;
},
{
color = 1;
glyphname = OE;
lastChange = "2022-09-24 02:42:27 +0000";
layers = (
{
layerId = "220B7CD1-1E4F-4884-BA06-A44A5DCE8B14";
paths = (
{
closed = 1;
nodes = (
"854 0 LINE SMOOTH",
"861 0 OFFCURVE",
"871 26 OFFCURVE",
"871 44 CURVE SMOOTH",
"871 52 OFFCURVE",
"871 58 OFFCURVE",
"869 58 CURVE SMOOTH",
"866 58 OFFCURVE",
"787 37 OFFCURVE",
"646 37 CURVE SMOOTH",
"569 37 OFFCURVE",
"558 43 OFFCURVE",
"558 82 CURVE SMOOTH",
"558 149 OFFCURVE",
"559 228 OFFCURVE",
"564 312 CURVE",
"604 312 LINE SMOOTH",
"745 312 OFFCURVE",
"793 304 OFFCURVE",
"797 304 CURVE SMOOTH",
"801 304 OFFCURVE",
"807 326 OFFCURVE",
"807 341 CURVE SMOOTH",
"807 349 OFFCURVE",
"805 355 OFFCURVE",
"802 355 CURVE SMOOTH",
"567 355 LINE",
"573 458 OFFCURVE",
"582 552 OFFCURVE",
"588 596 CURVE",
"621 596 LINE SMOOTH",
"762 596 OFFCURVE",
"810 587 OFFCURVE",
"813 587 CURVE SMOOTH",
"817 587 OFFCURVE",
"824 610 OFFCURVE",
"824 625 CURVE SMOOTH",
"824 633 OFFCURVE",
"821 639 OFFCURVE",
"819 639 CURVE SMOOTH",
"394 639 LINE SMOOTH",
"152 639 OFFCURVE",
"63 506 OFFCURVE",
"63 335 CURVE SMOOTH",
"63 122 OFFCURVE",
"184 0 OFFCURVE",
"402 0 CURVE SMOOTH"
);
},
{
closed = 1;
nodes = (
"328 37 OFFCURVE",
"265 55 OFFCURVE",
"201 114 CURVE SMOOTH",
"147 164 OFFCURVE",
"124 237 OFFCURVE",
"124 319 CURVE SMOOTH",
"124 511 OFFCURVE",
"212 596 OFFCURVE",
"384 596 CURVE SMOOTH",
"527 596 LINE",
"518 407 OFFCURVE",
"504 140 OFFCURVE",
"495 37 CURVE",
"434 37 LINE SMOOTH"
);
}
);
width = 928;
},
{
layerId = "63F4CE79-9D5F-46D3-B41C-385689F27F0A";
paths = (
{
closed = 1;
nodes = (
"904 0 LINE SMOOTH",
"933 0 OFFCURVE",
"939 67 OFFCURVE",
"939 86 CURVE SMOOTH",
"939 112 OFFCURVE",
"939 119 OFFCURVE",
"932 119 CURVE SMOOTH",
"922 119 OFFCURVE",
"850 106 OFFCURVE",
"774 106 CURVE SMOOTH",
"697 106 OFFCURVE",
"686 115 OFFCURVE",
"686 146 CURVE SMOOTH",
"686 190 OFFCURVE",
"691 264 OFFCURVE",
"691 277 CURVE",
"713 277 LINE SMOOTH",
"792 277 OFFCURVE",
"866 272 OFFCURVE",
"875 272 CURVE SMOOTH",
"885 272 OFFCURVE",
"891 313 OFFCURVE",
"891 342 CURVE SMOOTH",
"891 367 OFFCURVE",
"886 374 OFFCURVE",
"870 374 CURVE SMOOTH",
"694 374 LINE",
"694 418 OFFCURVE",
"701 524 OFFCURVE",
"706 541 CURVE",
"732 541 LINE SMOOTH",
"794 541 OFFCURVE",
"877 537 OFFCURVE",
"886 537 CURVE SMOOTH",
"896 537 OFFCURVE",
"902 577 OFFCURVE",
"902 606 CURVE SMOOTH",
"902 631 OFFCURVE",
"897 639 OFFCURVE",
"881 639 CURVE SMOOTH",
"350 639 LINE SMOOTH",
"165 639 OFFCURVE",
"35 568 OFFCURVE",
"35 302 CURVE SMOOTH",
"35 80 OFFCURVE",
"161 0 OFFCURVE",
"351 0 CURVE SMOOTH"
);
},
{
closed = 1;
nodes = (
"357 92 OFFCURVE",
"325 99 OFFCURVE",
"302 120 CURVE SMOOTH",
"274 146 OFFCURVE",
"261 194 OFFCURVE",
"261 281 CURVE SMOOTH",
"261 468 OFFCURVE",
"316 547 OFFCURVE",
"421 547 CURVE SMOOTH",
"488 547 LINE",
"484 398 OFFCURVE",
"472 206 OFFCURVE",
"465 92 CURVE",
"399 92 LINE SMOOTH"
);
}
);
width = 950;
}
);
note = OE;
unicode = 0152;
},
{
color = 1;
glyphname = P;
lastChange = "2022-09-24 02:43:25 +0000";
layers = (
{
anchors = (
{
name = bottom;
position = "{255, 0}";
},
{
name = top;
position = "{289, 652}";
}
);
layerId = "220B7CD1-1E4F-4884-BA06-A44A5DCE8B14";
paths = (
{
closed = 1;
nodes = (
"157 -13 OFFCURVE",
"159 -10 OFFCURVE",
"159 -5 CURVE SMOOTH",
"159 86 OFFCURVE",
"161 174 OFFCURVE",
"165 251 CURVE",
"171 245 OFFCURVE",
"184 244 OFFCURVE",
"220 244 CURVE SMOOTH",
"384 244 OFFCURVE",
"492 345 OFFCURVE",
"492 470 CURVE SMOOTH",
"492 575 OFFCURVE",
"418 639 OFFCURVE",
"266 639 CURVE SMOOTH",
"131 639 LINE",
"127 523 OFFCURVE",
"96 26 OFFCURVE",
"96 14 CURVE SMOOTH",
"96 -4 OFFCURVE",
"126 -13 OFFCURVE",
"149 -13 CURVE SMOOTH"
);
},
{
closed = 1;
nodes = (
"175 432 OFFCURVE",
"188 548 OFFCURVE",
"191 596 CURVE",
"208 598 OFFCURVE",
"224 602 OFFCURVE",
"251 602 CURVE SMOOTH",
"392 602 OFFCURVE",
"432 539 OFFCURVE",
"432 457 CURVE SMOOTH",
"432 401 OFFCURVE",
"410 360 OFFCURVE",
"378 331 CURVE SMOOTH",
"311 270 OFFCURVE",
"211 269 OFFCURVE",
"166 277 CURVE"
);
}
);
width = 537;
},
{
anchors = (
{
name = bottom;
position = "{251, 0}";
},
{
name = top;
position = "{285, 652}";
}
);
layerId = "63F4CE79-9D5F-46D3-B41C-385689F27F0A";
paths = (
{
closed = 1;
nodes = (
"264 -13 OFFCURVE",
"268 -4 OFFCURVE",
"268 21 CURVE SMOOTH",
"268 79 OFFCURVE",
"271 154 OFFCURVE",
"274 231 CURVE",
"279 223 OFFCURVE",
"305 204 OFFCURVE",
"325 204 CURVE SMOOTH",
"525 204 OFFCURVE",
"656 319 OFFCURVE",
"656 459 CURVE SMOOTH",
"656 571 OFFCURVE",
"587 639 OFFCURVE",
"442 639 CURVE SMOOTH",
"73 639 LINE",
"73 426 OFFCURVE",
"49 77 OFFCURVE",
"49 59 CURVE SMOOTH",
"49 9 OFFCURVE",
"156 -13 OFFCURVE",
"220 -13 CURVE SMOOTH"
);
},
{
closed = 1;
nodes = (
"275 287 OFFCURVE",
"290 541 OFFCURVE",
"291 553 CURVE",
"300 553 OFFCURVE",
"309 553 OFFCURVE",
"327 553 CURVE SMOOTH",
"396 553 OFFCURVE",
"429 498 OFFCURVE",
"429 437 CURVE SMOOTH",
"429 390 OFFCURVE",
"414 343 OFFCURVE",
"380 311 CURVE SMOOTH",
"344 278 OFFCURVE",
"306 272 OFFCURVE",
"275 272 CURVE"
);
}
);
width = 643;
}
);
note = P;
unicode = 0050;
},
{
color = 1;
glyphname = Thorn;
lastChange = "2022-09-24 02:45:14 +0000";
layers = (
{
layerId = "220B7CD1-1E4F-4884-BA06-A44A5DCE8B14";
paths = (
{
closed = 1;
nodes = (
"157 -13 OFFCURVE",
"159 -10 OFFCURVE",
"159 -5 CURVE SMOOTH",
"159 55 OFFCURVE",
"162 117 OFFCURVE",
"164 156 CURVE",
"170 150 OFFCURVE",
"183 149 OFFCURVE",
"214 149 CURVE SMOOTH",
"379 149 OFFCURVE",
"487 243 OFFCURVE",
"487 356 CURVE SMOOTH",
"487 453 OFFCURVE",
"413 511 OFFCURVE",
"261 511 CURVE SMOOTH",
"184 511 LINE",
"190 584 OFFCURVE",
"194 622 OFFCURVE",
"194 626 CURVE SMOOTH",
"194 644 OFFCURVE",
"164 652 OFFCURVE",
"141 652 CURVE SMOOTH",
"132 652 OFFCURVE",
"131 650 OFFCURVE",
"131 645 CURVE SMOOTH",
"128 537 OFFCURVE",
"96 26 OFFCURVE",
"96 14 CURVE SMOOTH",
"96 -4 OFFCURVE",
"126 -13 OFFCURVE",
"149 -13 CURVE SMOOTH"
);
},
{
closed = 1;
nodes = (
"170 322 OFFCURVE",
"176 426 OFFCURVE",
"180 470 CURVE",
"196 471 OFFCURVE",
"219 474 OFFCURVE",
"247 474 CURVE SMOOTH",
"388 474 OFFCURVE",
"430 418 OFFCURVE",
"430 345 CURVE SMOOTH",
"430 300 OFFCURVE",
"414 268 OFFCURVE",
"388 242 CURVE SMOOTH",
"320 174 OFFCURVE",
"187 174 OFFCURVE",
"164 183 CURVE"
);
}
);
width = 537;
},
{
layerId = "63F4CE79-9D5F-46D3-B41C-385689F27F0A";
paths = (
{
closed = 1;
nodes = (
"258 -13 OFFCURVE",
"263 -4 OFFCURVE",
"263 21 CURVE SMOOTH",
"263 48 OFFCURVE",
"263 80 OFFCURVE",
"264 115 CURVE",
"269 107 OFFCURVE",
"295 88 OFFCURVE",
"315 88 CURVE SMOOTH",
"501 88 OFFCURVE",
"623 203 OFFCURVE",
"623 343 CURVE SMOOTH",
"623 455 OFFCURVE",
"559 523 OFFCURVE",
"424 523 CURVE SMOOTH",
"284 523 LINE",
"286 555 OFFCURVE",
"287 576 OFFCURVE",
"287 580 CURVE SMOOTH",
"287 630 OFFCURVE",
"180 652 OFFCURVE",
"116 652 CURVE SMOOTH",
"72 652 OFFCURVE",
"67 643 OFFCURVE",
"67 618 CURVE SMOOTH",
"67 440 OFFCURVE",
"43 77 OFFCURVE",
"43 59 CURVE SMOOTH",
"43 9 OFFCURVE",
"150 -13 OFFCURVE",
"214 -13 CURVE SMOOTH"
);
},
{
closed = 1;
nodes = (
"266 171 OFFCURVE",
"278 425 OFFCURVE",
"279 437 CURVE",
"288 437 OFFCURVE",
"297 437 OFFCURVE",
"311 437 CURVE SMOOTH",
"369 437 OFFCURVE",
"396 382 OFFCURVE",
"396 321 CURVE SMOOTH",
"396 272 OFFCURVE",
"382 221 OFFCURVE",
"349 189 CURVE SMOOTH",
"329 169 OFFCURVE",
"302 156 OFFCURVE",
"266 156 CURVE"
);
}
);
width = 630;
}
);
note = Thorn;
unicode = 00DE;
},
{
color = 1;
glyphname = Q;
lastChange = "2022-09-24 02:45:27 +0000";
layers = (
{
layerId = "220B7CD1-1E4F-4884-BA06-A44A5DCE8B14";
paths = (
{
closed = 1;
nodes = (
"727 -85 OFFCURVE",
"739 -57 OFFCURVE",
"739 -42 CURVE SMOOTH",
"739 -39 OFFCURVE",
"738 -35 OFFCURVE",
"731 -35 CURVE SMOOTH",
"654 -35 OFFCURVE",
"552 -16 OFFCURVE",
"453 -3 CURVE",
"597 30 OFFCURVE",
"685 166 OFFCURVE",
"685 349 CURVE SMOOTH",
"685 528 OFFCURVE",
"596 652 OFFCURVE",
"378 652 CURVE SMOOTH",
"162 652 OFFCURVE",
"63 506 OFFCURVE",
"63 291 CURVE SMOOTH",
"63 139 OFFCURVE",
"128 31 OFFCURVE",
"280 -4 CURVE SMOOTH",
"392 -30 OFFCURVE",
"574 -69 OFFCURVE",
"656 -80 CURVE SMOOTH",
"682 -83 OFFCURVE",
"696 -85 OFFCURVE",
"705 -85 CURVE SMOOTH"
);
},
{
closed = 1;
nodes = (
"196 24 OFFCURVE",
"124 135 OFFCURVE",
"124 294 CURVE SMOOTH",
"124 485 OFFCURVE",
"204 615 OFFCURVE",
"377 615 CURVE SMOOTH",
"552 615 OFFCURVE",
"624 505 OFFCURVE",
"624 346 CURVE SMOOTH",
"624 154 OFFCURVE",
"544 24 OFFCURVE",
"371 24 CURVE SMOOTH"
);
}
);
width = 748;
},
{
layerId = "63F4CE79-9D5F-46D3-B41C-385689F27F0A";
paths = (
{
closed = 1;
nodes = (
"668 -152 OFFCURVE",
"744 -67 OFFCURVE",
"744 -14 CURVE SMOOTH",
"744 -4 OFFCURVE",
"741 -2 OFFCURVE",
"733 0 CURVE SMOOTH",
"691 8 OFFCURVE",
"613 35 OFFCURVE",
"581 53 CURVE",
"656 94 OFFCURVE",
"723 195 OFFCURVE",
"723 365 CURVE SMOOTH",
"723 635 OFFCURVE",
"562 652 OFFCURVE",
"406 652 CURVE SMOOTH",
"191 652 OFFCURVE",
"35 594 OFFCURVE",
"35 275 CURVE SMOOTH",
"35 107 OFFCURVE",
"110 33 OFFCURVE",
"242 0 CURVE SMOOTH",
"276 -8 OFFCURVE",
"495 -121 OFFCURVE",
"553 -140 CURVE SMOOTH",
"572 -146 OFFCURVE",
"585 -152 OFFCURVE",
"604 -152 CURVE SMOOTH"
);
},
{
closed = 1;
nodes = (
"315 50 OFFCURVE",
"263 109 OFFCURVE",
"263 269 CURVE SMOOTH",
"263 395 OFFCURVE",
"280 580 OFFCURVE",
"358 580 CURVE SMOOTH",
"443 580 OFFCURVE",
"495 520 OFFCURVE",
"495 363 CURVE SMOOTH",
"495 234 OFFCURVE",
"479 50 OFFCURVE",
"400 50 CURVE SMOOTH"
);
}
);
width = 748;
}
);
note = Q;
unicode = 0051;
},
{
color = 1;
glyphname = R;
lastChange = "2022-09-23 15:03:41 +0000";
layers = (
{
anchors = (
{
name = bottom;
position = "{276, 0}";
},
{
name = top;
position = "{310, 652}";
}
);
layerId = "220B7CD1-1E4F-4884-BA06-A44A5DCE8B14";
paths = (
{
closed = 1;
nodes = (
"157 -13 OFFCURVE",
"159 -10 OFFCURVE",
"159 -5 CURVE SMOOTH",
"159 112 OFFCURVE",
"162 218 OFFCURVE",
"168 307 CURVE",
"175 298 OFFCURVE",
"194 296 OFFCURVE",
"202 293 CURVE",
"252 253 OFFCURVE",
"383 125 OFFCURVE",
"490 8 CURVE SMOOTH",
"501 -4 OFFCURVE",
"511 -13 OFFCURVE",
"521 -13 CURVE SMOOTH",
"538 -13 OFFCURVE",
"564 7 OFFCURVE",
"564 14 CURVE SMOOTH",
"564 17 OFFCURVE",
"563 21 OFFCURVE",
"556 27 CURVE SMOOTH",
"540 40 OFFCURVE",
"319 262 OFFCURVE",
"276 306 CURVE",
"402 314 OFFCURVE",
"481 407 OFFCURVE",
"481 491 CURVE SMOOTH",
"481 566 OFFCURVE",
"422 639 OFFCURVE",
"280 639 CURVE SMOOTH",
"134 639 LINE",
"128 529 OFFCURVE",
"96 26 OFFCURVE",
"96 14 CURVE SMOOTH",
"96 -4 OFFCURVE",
"126 -13 OFFCURVE",
"149 -13 CURVE SMOOTH"
);
},
{
closed = 1;
nodes = (
"178 485 OFFCURVE",
"189 559 OFFCURVE",
"193 597 CURVE",
"209 600 OFFCURVE",
"224 602 OFFCURVE",
"249 602 CURVE SMOOTH",
"382 602 OFFCURVE",
"421 554 OFFCURVE",
"421 480 CURVE SMOOTH",
"421 440 OFFCURVE",
"405 411 OFFCURVE",
"381 388 CURVE SMOOTH",
"327 337 OFFCURVE",
"233 324 OFFCURVE",
"170 331 CURVE"
);
}
);
width = 580;
},
{
anchors = (
{
name = bottom;
position = "{336, 0}";
},
{
name = top;
position = "{370, 652}";
}
);
layerId = "63F4CE79-9D5F-46D3-B41C-385689F27F0A";
paths = (
{
closed = 1;
nodes = (
"268 -13 OFFCURVE",
"273 -4 OFFCURVE",
"273 21 CURVE",
"273 88 OFFCURVE",
"277 170 OFFCURVE",
"281 261 CURVE",
"291 250 OFFCURVE",
"317 239 OFFCURVE",
"326 239 CURVE",
"385 125 OFFCURVE",
"439 24 OFFCURVE",
"451 7 CURVE",
"463 -10 OFFCURVE",
"475 -13 OFFCURVE",
"500 -13 CURVE",
"552 -13 OFFCURVE",
"668 37 OFFCURVE",
"668 66 CURVE",
"668 75 OFFCURVE",
"663 80 OFFCURVE",
"649 104 CURVE",
"619 156 OFFCURVE",
"554 273 OFFCURVE",
"540 298 CURVE",
"601 327 OFFCURVE",
"661 394 OFFCURVE",
"661 478 CURVE",
"661 597 OFFCURVE",
"590 639 OFFCURVE",
"446 639 CURVE",
"77 639 LINE",
"77 426 OFFCURVE",
"53 77 OFFCURVE",
"53 59 CURVE",
"53 9 OFFCURVE",
"160 -13 OFFCURVE",
"224 -13 CURVE"
);
},
{
closed = 1;
nodes = (
"283 320 OFFCURVE",
"294 523 OFFCURVE",
"296 553 CURVE",
"308 553 OFFCURVE",
"319 553 OFFCURVE",
"331 553 CURVE",
"399 553 OFFCURVE",
"434 505 OFFCURVE",
"434 451 CURVE",
"434 411 OFFCURVE",
"421 373 OFFCURVE",
"392 344 CURVE",
"355 307 OFFCURVE",
"305 304 OFFCURVE",
"282 304 CURVE"
);
}
);
width = 705;
}
);
note = R;
unicode = 0052;
},
{
color = 1;
glyphname = S;
lastChange = "2022-09-23 15:15:36 +0000";
layers = (
{
anchors = (
{
name = bottom;
position = "{177, 0}";
},
{
name = top;
position = "{241, 652}";
}
);
layerId = "220B7CD1-1E4F-4884-BA06-A44A5DCE8B14";
paths = (
{
closed = 1;
nodes = (
"273 -13 OFFCURVE",
"379 59 OFFCURVE",
"379 175 CURVE SMOOTH",
"379 218 OFFCURVE",
"361 251 OFFCURVE",
"329 282 CURVE SMOOTH",
"297 313 OFFCURVE",
"196 375 OFFCURVE",
"162 409 CURVE SMOOTH",
"131 440 OFFCURVE",
"116 472 OFFCURVE",
"116 510 CURVE SMOOTH",
"116 587 OFFCURVE",
"172 613 OFFCURVE",
"208 613 CURVE SMOOTH",
"282 613 OFFCURVE",
"322 574 OFFCURVE",
"346 550 CURVE SMOOTH",
"358 538 OFFCURVE",
"365 529 OFFCURVE",
"371 529 CURVE SMOOTH",
"381 529 OFFCURVE",
"386 544 OFFCURVE",
"386 572 CURVE SMOOTH",
"386 578 OFFCURVE",
"384 587 OFFCURVE",
"378 593 CURVE SMOOTH",
"342 632 OFFCURVE",
"283 652 OFFCURVE",
"232 652 CURVE SMOOTH",
"107 652 OFFCURVE",
"57 569 OFFCURVE",
"57 487 CURVE SMOOTH",
"57 434 OFFCURVE",
"80 397 OFFCURVE",
"112 367 CURVE SMOOTH",
"159 323 OFFCURVE",
"249 272 OFFCURVE",
"283 235 CURVE SMOOTH",
"307 209 OFFCURVE",
"323 180 OFFCURVE",
"323 141 CURVE SMOOTH",
"323 61 OFFCURVE",
"248 29 OFFCURVE",
"208 29 CURVE SMOOTH",
"138 29 OFFCURVE",
"86 63 OFFCURVE",
"56 89 CURVE SMOOTH",
"38 105 OFFCURVE",
"30 117 OFFCURVE",
"26 117 CURVE SMOOTH",
"15 117 OFFCURVE",
"11 77 OFFCURVE",
"11 68 CURVE SMOOTH",
"11 63 OFFCURVE",
"12 52 OFFCURVE",
"19 45 CURVE SMOOTH",
"50 15 OFFCURVE",
"103 -13 OFFCURVE",
"186 -13 CURVE SMOOTH"
);
}
);
width = 433;
},
{
anchors = (
{
name = bottom;
position = "{269, 0}";
},
{
name = top;
position = "{305, 652}";
}
);
layerId = "63F4CE79-9D5F-46D3-B41C-385689F27F0A";
paths = (
{
closed = 1;
nodes = (
"409 -13 OFFCURVE",
"522 70 OFFCURVE",
"522 200 CURVE SMOOTH",
"522 240 OFFCURVE",
"516 285 OFFCURVE",
"477 326 CURVE SMOOTH",
"418 388 OFFCURVE",
"337 420 OFFCURVE",
"299 455 CURVE SMOOTH",
"287 466 OFFCURVE",
"282 474 OFFCURVE",
"282 489 CURVE SMOOTH",
"282 521 OFFCURVE",
"310 526 OFFCURVE",
"340 526 CURVE SMOOTH",
"396 526 OFFCURVE",
"438 507 OFFCURVE",
"468 492 CURVE SMOOTH",
"480 486 OFFCURVE",
"492 483 OFFCURVE",
"502 483 CURVE SMOOTH",
"517 483 OFFCURVE",
"526 511 OFFCURVE",
"526 551 CURVE SMOOTH",
"526 576 OFFCURVE",
"522 592 OFFCURVE",
"498 608 CURVE SMOOTH",
"443 645 OFFCURVE",
"366 652 OFFCURVE",
"302 652 CURVE SMOOTH",
"163 652 OFFCURVE",
"70 560 OFFCURVE",
"70 437 CURVE SMOOTH",
"70 392 OFFCURVE",
"81 342 OFFCURVE",
"134 293 CURVE SMOOTH",
"180 251 OFFCURVE",
"246 225 OFFCURVE",
"285 186 CURVE SMOOTH",
"301 170 OFFCURVE",
"306 158 OFFCURVE",
"306 146 CURVE SMOOTH",
"306 124 OFFCURVE",
"280 112 OFFCURVE",
"241 112 CURVE SMOOTH",
"193 112 OFFCURVE",
"146 130 OFFCURVE",
"121 141 CURVE SMOOTH",
"100 150 OFFCURVE",
"84 155 OFFCURVE",
"74 155 CURVE SMOOTH",
"58 155 OFFCURVE",
"48 127 OFFCURVE",
"48 87 CURVE SMOOTH",
"48 58 OFFCURVE",
"53 41 OFFCURVE",
"90 23 CURVE SMOOTH",
"140 -1 OFFCURVE",
"194 -13 OFFCURVE",
"280 -13 CURVE SMOOTH"
);
}
);
width = 574;
}
);
note = S;
unicode = 0053;
},
{
color = 0;
glyphname = Saltillo;
lastChange = "2022-09-24 03:08:52 +0000";
layers = (
{
layerId = "220B7CD1-1E4F-4884-BA06-A44A5DCE8B14";
paths = (
{
closed = 1;
nodes = (
"173 291 OFFCURVE",
"175 294 OFFCURVE",
"175 299 CURVE SMOOTH",
"175 621 OFFCURVE",
"201 700 OFFCURVE",
"201 714 CURVE SMOOTH",
"201 732 OFFCURVE",
"171 740 OFFCURVE",
"148 740 CURVE SMOOTH",
"139 740 OFFCURVE",
"138 738 OFFCURVE",
"138 733 CURVE SMOOTH",
"135 625 OFFCURVE",
"112 330 OFFCURVE",
"112 318 CURVE SMOOTH",
"112 300 OFFCURVE",
"142 291 OFFCURVE",
"165 291 CURVE SMOOTH"
);
}
);
width = 292;
},
{
layerId = "63F4CE79-9D5F-46D3-B41C-385689F27F0A";
paths = (
{
closed = 1;
nodes = (
"122 291 OFFCURVE",
"124 294 OFFCURVE",
"124 299 CURVE SMOOTH",
"124 621 OFFCURVE",
"150 700 OFFCURVE",
"150 714 CURVE SMOOTH",
"150 732 OFFCURVE",
"120 740 OFFCURVE",
"97 740 CURVE SMOOTH",
"88 740 OFFCURVE",
"87 738 OFFCURVE",
"87 733 CURVE SMOOTH",
"84 625 OFFCURVE",
"61 330 OFFCURVE",
"61 318 CURVE SMOOTH",
"61 300 OFFCURVE",
"91 291 OFFCURVE",
"114 291 CURVE SMOOTH"
);
}
);
width = 190;
}
);
leftMetricsKey = I;
rightMetricsKey = I;
unicode = A78B;
},
{
color = 0;
glyphname = Germandbls;
lastChange = "2022-09-24 01:15:32 +0000";
layers = (
{
layerId = "220B7CD1-1E4F-4884-BA06-A44A5DCE8B14";
paths = (
{
closed = 1;
nodes = (
"77 -13 OFFCURVE",
"78 -11 OFFCURVE",
"78 -6 CURVE SMOOTH",
"108 346 OFFCURVE",
"131 475 OFFCURVE",
"197 540 CURVE SMOOTH",
"232 574 OFFCURVE",
"280 612 OFFCURVE",
"359 612 CURVE SMOOTH",
"440 612 OFFCURVE",
"475 606 OFFCURVE",
"516 600 CURVE",
"474 555 OFFCURVE",
"386 465 OFFCURVE",
"343 418 CURVE SMOOTH",
"331 404 OFFCURVE",
"333 392 OFFCURVE",
"340 381 CURVE",
"341 377 OFFCURVE",
"344 374 OFFCURVE",
"348 370 CURVE SMOOTH",
"395 326 OFFCURVE",
"455 275 OFFCURVE",
"489 238 CURVE SMOOTH",
"513 212 OFFCURVE",
"524 180 OFFCURVE",
"524 141 CURVE SMOOTH",
"524 61 OFFCURVE",
"449 29 OFFCURVE",
"409 29 CURVE SMOOTH",
"339 29 OFFCURVE",
"287 63 OFFCURVE",
"257 89 CURVE SMOOTH",
"239 105 OFFCURVE",
"231 117 OFFCURVE",
"227 117 CURVE SMOOTH",
"216 117 OFFCURVE",
"212 77 OFFCURVE",
"212 68 CURVE SMOOTH",
"212 63 OFFCURVE",
"213 52 OFFCURVE",
"220 45 CURVE SMOOTH",
"251 15 OFFCURVE",
"304 -13 OFFCURVE",
"387 -13 CURVE SMOOTH",
"474 -13 OFFCURVE",
"580 59 OFFCURVE",
"580 175 CURVE SMOOTH",
"580 218 OFFCURVE",
"562 251 OFFCURVE",
"530 282 CURVE SMOOTH",
"499 312 OFFCURVE",
"431 372 OFFCURVE",
"396 406 CURVE",
"435 450 OFFCURVE",
"539 557 OFFCURVE",
"565 581 CURVE SMOOTH",
"574 589 OFFCURVE",
"574 604 OFFCURVE",
"574 611 CURVE SMOOTH",
"574 625 OFFCURVE",
"570 639 OFFCURVE",
"561 639 CURVE",
"498 652 OFFCURVE",
"441 652 OFFCURVE",
"378 652 CURVE SMOOTH",
"267 652 OFFCURVE",
"215 613 OFFCURVE",
"169 571 CURVE SMOOTH",
"74 484 OFFCURVE",
"55 322 OFFCURVE",
"27 13 CURVE SMOOTH",
"25 -5 OFFCURVE",
"47 -13 OFFCURVE",
"68 -13 CURVE SMOOTH"
);
}
);
width = 614;
},
{
layerId = "63F4CE79-9D5F-46D3-B41C-385689F27F0A";
paths = (
{
closed = 1;
nodes = (
"77 -13 OFFCURVE",
"78 -11 OFFCURVE",
"78 -6 CURVE SMOOTH",
"108 346 OFFCURVE",
"131 475 OFFCURVE",
"197 540 CURVE SMOOTH",
"232 574 OFFCURVE",
"280 612 OFFCURVE",
"359 612 CURVE SMOOTH",
"440 612 OFFCURVE",
"475 606 OFFCURVE",
"516 600 CURVE",
"474 555 OFFCURVE",
"386 465 OFFCURVE",
"343 418 CURVE SMOOTH",
"331 404 OFFCURVE",
"333 392 OFFCURVE",
"340 381 CURVE",
"341 377 OFFCURVE",
"344 374 OFFCURVE",
"348 370 CURVE SMOOTH",
"395 326 OFFCURVE",
"455 275 OFFCURVE",
"489 238 CURVE SMOOTH",
"513 212 OFFCURVE",
"524 180 OFFCURVE",
"524 141 CURVE SMOOTH",
"524 61 OFFCURVE",
"449 29 OFFCURVE",
"409 29 CURVE SMOOTH",
"339 29 OFFCURVE",
"287 63 OFFCURVE",
"257 89 CURVE SMOOTH",
"239 105 OFFCURVE",
"231 117 OFFCURVE",
"227 117 CURVE SMOOTH",
"216 117 OFFCURVE",
"212 77 OFFCURVE",
"212 68 CURVE SMOOTH",
"212 63 OFFCURVE",
"213 52 OFFCURVE",
"220 45 CURVE SMOOTH",
"251 15 OFFCURVE",
"304 -13 OFFCURVE",
"387 -13 CURVE SMOOTH",
"474 -13 OFFCURVE",
"580 59 OFFCURVE",
"580 175 CURVE SMOOTH",
"580 218 OFFCURVE",
"562 251 OFFCURVE",
"530 282 CURVE SMOOTH",
"499 312 OFFCURVE",
"431 372 OFFCURVE",
"396 406 CURVE",
"435 450 OFFCURVE",
"539 557 OFFCURVE",
"565 581 CURVE SMOOTH",
"574 589 OFFCURVE",
"574 604 OFFCURVE",
"574 611 CURVE SMOOTH",
"574 625 OFFCURVE",
"570 639 OFFCURVE",
"561 639 CURVE",
"498 652 OFFCURVE",
"441 652 OFFCURVE",
"378 652 CURVE SMOOTH",
"267 652 OFFCURVE",
"215 613 OFFCURVE",
"169 571 CURVE SMOOTH",
"74 484 OFFCURVE",
"55 322 OFFCURVE",
"27 13 CURVE SMOOTH",
"25 -5 OFFCURVE",
"47 -13 OFFCURVE",
"68 -13 CURVE SMOOTH"
);
}
);
width = 614;
}
);
unicode = 1E9E;
},
{
color = 0;
glyphname = Schwa;
lastChange = "2022-09-24 01:15:32 +0000";
layers = (
{
layerId = "220B7CD1-1E4F-4884-BA06-A44A5DCE8B14";
paths = (
{
closed = 1;
nodes = (
"367 5 OFFCURVE",
"459 135 OFFCURVE",
"459 365 CURVE SMOOTH",
"459 545 OFFCURVE",
"386 645 OFFCURVE",
"254 645 CURVE SMOOTH",
"172 645 OFFCURVE",
"102 615 OFFCURVE",
"47 556 CURVE SMOOTH",
"41 550 OFFCURVE",
"40 547 OFFCURVE",
"40 541 CURVE SMOOTH",
"40 530 OFFCURVE",
"46 514 OFFCURVE",
"49 514 CURVE SMOOTH",
"50 514 OFFCURVE",
"51 514 OFFCURVE",
"62 525 CURVE SMOOTH",
"64 527 OFFCURVE",
"66 529 OFFCURVE",
"69 532 CURVE SMOOTH",
"95 555 OFFCURVE",
"159 603 OFFCURVE",
"234 603 CURVE SMOOTH",
"339 603 OFFCURVE",
"397 515 OFFCURVE",
"397 359 CURVE SMOOTH",
"397 317 OFFCURVE",
"396 298 OFFCURVE",
"394 291 CURVE",
"388 288 LINE",
"357 295 OFFCURVE",
"309 301 OFFCURVE",
"259 301 CURVE SMOOTH",
"160 301 OFFCURVE",
"42 255 OFFCURVE",
"42 134 CURVE SMOOTH",
"42 52 OFFCURVE",
"101 5 OFFCURVE",
"202 5 CURVE SMOOTH"
);
},
{
closed = 1;
nodes = (
"152 34 OFFCURVE",
"111 71 OFFCURVE",
"111 131 CURVE SMOOTH",
"111 216 OFFCURVE",
"165 264 OFFCURVE",
"261 264 CURVE SMOOTH",
"309 264 OFFCURVE",
"371 248 OFFCURVE",
"380 234 CURVE",
"381 230 LINE",
"359 107 OFFCURVE",
"298 34 OFFCURVE",
"217 34 CURVE SMOOTH"
);
}
);
width = 522;
},
{
layerId = "63F4CE79-9D5F-46D3-B41C-385689F27F0A";
paths = (
{
closed = 1;
nodes = (
"367 5 OFFCURVE",
"459 135 OFFCURVE",
"459 365 CURVE SMOOTH",
"459 545 OFFCURVE",
"386 645 OFFCURVE",
"254 645 CURVE SMOOTH",
"172 645 OFFCURVE",
"102 615 OFFCURVE",
"47 556 CURVE SMOOTH",
"41 550 OFFCURVE",
"40 547 OFFCURVE",
"40 541 CURVE SMOOTH",
"40 530 OFFCURVE",
"46 514 OFFCURVE",
"49 514 CURVE SMOOTH",
"50 514 OFFCURVE",
"51 514 OFFCURVE",
"62 525 CURVE SMOOTH",
"64 527 OFFCURVE",
"66 529 OFFCURVE",
"69 532 CURVE SMOOTH",
"95 555 OFFCURVE",
"159 603 OFFCURVE",
"234 603 CURVE SMOOTH",
"339 603 OFFCURVE",
"397 515 OFFCURVE",
"397 359 CURVE SMOOTH",
"397 317 OFFCURVE",
"396 298 OFFCURVE",
"394 291 CURVE",
"388 288 LINE",
"357 295 OFFCURVE",
"309 301 OFFCURVE",
"259 301 CURVE SMOOTH",
"160 301 OFFCURVE",
"42 255 OFFCURVE",
"42 134 CURVE SMOOTH",
"42 52 OFFCURVE",
"101 5 OFFCURVE",
"202 5 CURVE SMOOTH"
);
},
{
closed = 1;
nodes = (
"152 34 OFFCURVE",
"111 71 OFFCURVE",
"111 131 CURVE SMOOTH",
"111 216 OFFCURVE",
"165 264 OFFCURVE",
"261 264 CURVE SMOOTH",
"309 264 OFFCURVE",
"371 248 OFFCURVE",
"380 234 CURVE",
"381 230 LINE",
"359 107 OFFCURVE",
"298 34 OFFCURVE",
"217 34 CURVE SMOOTH"
);
}
);
width = 484;
}
);
rightMetricsKey = O;
unicode = 018F;
},
{
color = 1;
glyphname = T;
lastChange = "2022-09-23 15:03:41 +0000";
layers = (
{
anchors = (
{
name = bottom;
position = "{200, 0}";
},
{
name = center;
position = "{247, 326}";
},
{
name = top;
position = "{264, 652}";
}
);
layerId = "220B7CD1-1E4F-4884-BA06-A44A5DCE8B14";
paths = (
{
closed = 1;
nodes = (
"239 -13 OFFCURVE",
"241 -10 OFFCURVE",
"241 -5 CURVE SMOOTH",
"241 264 OFFCURVE",
"263 514 OFFCURVE",
"271 596 CURVE",
"277 596 LINE",
"409 596 OFFCURVE",
"471 588 OFFCURVE",
"481 588 CURVE SMOOTH",
"491 588 OFFCURVE",
"496 607 OFFCURVE",
"496 630 CURVE SMOOTH",
"496 638 OFFCURVE",
"494 639 OFFCURVE",
"489 639 CURVE SMOOTH",
"6 639 LINE SMOOTH",
"-4 639 OFFCURVE",
"-9 620 OFFCURVE",
"-9 597 CURVE SMOOTH",
"-9 590 OFFCURVE",
"-6 588 OFFCURVE",
"-1 588 CURVE SMOOTH",
"10 588 OFFCURVE",
"61 596 OFFCURVE",
"204 596 CURVE",
"210 596 LINE",
"205 358 OFFCURVE",
"178 24 OFFCURVE",
"178 14 CURVE SMOOTH",
"178 -4 OFFCURVE",
"208 -13 OFFCURVE",
"230 -13 CURVE SMOOTH"
);
}
);
width = 487;
},
{
anchors = (
{
name = bottom;
position = "{200, 0}";
},
{
name = center;
position = "{247, 326}";
},
{
name = top;
position = "{264, 652}";
}
);
layerId = "63F4CE79-9D5F-46D3-B41C-385689F27F0A";
paths = (
{
closed = 1;
nodes = (
"342 -13 OFFCURVE",
"347 -4 OFFCURVE",
"347 21 CURVE",
"347 157 OFFCURVE",
"361 401 OFFCURVE",
"368 514 CURVE",
"371 514 LINE",
"384 514 OFFCURVE",
"497 505 OFFCURVE",
"506 505 CURVE",
"516 505 OFFCURVE",
"522 570 OFFCURVE",
"522 599 CURVE",
"522 624 OFFCURVE",
"518 639 OFFCURVE",
"502 639 CURVE",
"21 639 LINE",
"7 639 OFFCURVE",
"-6 603 OFFCURVE",
"-6 550 CURVE",
"-6 526 OFFCURVE",
"-2 505 OFFCURVE",
"6 505 CURVE",
"15 505 OFFCURVE",
"116 514 OFFCURVE",
"145 514 CURVE",
"149 514 LINE",
"144 327 OFFCURVE",
"127 74 OFFCURVE",
"127 59 CURVE",
"127 9 OFFCURVE",
"234 -13 OFFCURVE",
"298 -13 CURVE"
);
}
);
width = 497;
}
);
note = T;
unicode = 0054;
},
{
color = 0;
glyphname = Tbar;
lastChange = "2022-09-24 01:15:32 +0000";
layers = (
{
anchors = (
{
name = bottom;
position = "{230, 0}";
},
{
name = center;
position = "{247, 326}";
},
{
name = top;
position = "{264, 652}";
}
);
layerId = "220B7CD1-1E4F-4884-BA06-A44A5DCE8B14";
paths = (
{
closed = 1;
nodes = (
"239 -13 OFFCURVE",
"241 -10 OFFCURVE",
"241 -5 CURVE SMOOTH",
"241 264 OFFCURVE",
"263 514 OFFCURVE",
"271 596 CURVE",
"407 596 OFFCURVE",
"471 588 OFFCURVE",
"481 588 CURVE SMOOTH",
"491 588 OFFCURVE",
"496 607 OFFCURVE",
"496 630 CURVE SMOOTH",
"496 638 OFFCURVE",
"494 639 OFFCURVE",
"489 639 CURVE SMOOTH",
"6 639 LINE SMOOTH",
"-4 639 OFFCURVE",
"-9 620 OFFCURVE",
"-9 597 CURVE SMOOTH",
"-9 590 OFFCURVE",
"-6 588 OFFCURVE",
"-1 588 CURVE SMOOTH",
"10 588 OFFCURVE",
"63 596 OFFCURVE",
"210 596 CURVE",
"205 358 OFFCURVE",
"178 24 OFFCURVE",
"178 14 CURVE SMOOTH",
"178 -4 OFFCURVE",
"208 -13 OFFCURVE",
"230 -13 CURVE SMOOTH"
);
},
{
closed = 1;
nodes = (
"38 341 OFFCURVE",
"422 342 OFFCURVE",
"426 342 CURVE SMOOTH",
"435 342 OFFCURVE",
"440 356 OFFCURVE",
"440 374 CURVE SMOOTH",
"440 380 OFFCURVE",
"437 384 OFFCURVE",
"432 384 CURVE",
"43 384 LINE",
"34 384 OFFCURVE",
"28 369 OFFCURVE",
"28 351 CURVE SMOOTH",
"28 345 OFFCURVE",
"30 341 OFFCURVE",
"35 341 CURVE SMOOTH"
);
}
);
width = 487;
},
{
anchors = (
{
name = bottom;
position = "{230, 0}";
},
{
name = center;
position = "{247, 326}";
},
{
name = top;
position = "{264, 652}";
}
);
layerId = "63F4CE79-9D5F-46D3-B41C-385689F27F0A";
paths = (
{
closed = 1;
nodes = (
"239 -13 OFFCURVE",
"241 -10 OFFCURVE",
"241 -5 CURVE SMOOTH",
"241 264 OFFCURVE",
"263 514 OFFCURVE",
"271 596 CURVE",
"407 596 OFFCURVE",
"471 588 OFFCURVE",
"481 588 CURVE SMOOTH",
"491 588 OFFCURVE",
"496 607 OFFCURVE",
"496 630 CURVE SMOOTH",
"496 638 OFFCURVE",
"494 639 OFFCURVE",
"489 639 CURVE SMOOTH",
"6 639 LINE SMOOTH",
"-4 639 OFFCURVE",
"-9 620 OFFCURVE",
"-9 597 CURVE SMOOTH",
"-9 590 OFFCURVE",
"-6 588 OFFCURVE",
"-1 588 CURVE SMOOTH",
"10 588 OFFCURVE",
"63 596 OFFCURVE",
"210 596 CURVE",
"205 358 OFFCURVE",
"178 24 OFFCURVE",
"178 14 CURVE SMOOTH",
"178 -4 OFFCURVE",
"208 -13 OFFCURVE",
"230 -13 CURVE SMOOTH"
);
},
{
closed = 1;
nodes = (
"38 341 OFFCURVE",
"422 342 OFFCURVE",
"426 342 CURVE SMOOTH",
"435 342 OFFCURVE",
"440 356 OFFCURVE",
"440 374 CURVE SMOOTH",
"440 380 OFFCURVE",
"437 384 OFFCURVE",
"432 384 CURVE",
"43 384 LINE",
"34 384 OFFCURVE",
"28 369 OFFCURVE",
"28 351 CURVE SMOOTH",
"28 345 OFFCURVE",
"30 341 OFFCURVE",
"35 341 CURVE SMOOTH"
);
}
);
width = 487;
}
);
unicode = 0166;
},
{
color = 1;
glyphname = U;
lastChange = "2022-09-24 02:45:53 +0000";
layers = (
{
anchors = (
{
name = bottom;
position = "{344, 0}";
},
{
name = ogonek;
position = "{381, 0}";
},
{
name = top;
position = "{380, 652}";
},
{
name = topright;
position = "{680, 652}";
}
);
layerId = "220B7CD1-1E4F-4884-BA06-A44A5DCE8B14";
paths = (
{
closed = 1;
nodes = (
"417 -13 OFFCURVE",
"479 6 OFFCURVE",
"525 48 CURVE SMOOTH",
"620 135 OFFCURVE",
"649 317 OFFCURVE",
"649 626 CURVE SMOOTH",
"649 644 OFFCURVE",
"627 652 OFFCURVE",
"606 652 CURVE SMOOTH",
"597 652 OFFCURVE",
"596 650 OFFCURVE",
"596 645 CURVE SMOOTH",
"596 293 OFFCURVE",
"563 144 OFFCURVE",
"497 79 CURVE SMOOTH",
"462 45 OFFCURVE",
"404 27 OFFCURVE",
"355 27 CURVE SMOOTH",
"294 27 OFFCURVE",
"239 42 OFFCURVE",
"203 80 CURVE SMOOTH",
"160 125 OFFCURVE",
"144 212 OFFCURVE",
"144 307 CURVE SMOOTH",
"144 411 OFFCURVE",
"162 589 OFFCURVE",
"162 626 CURVE SMOOTH",
"162 644 OFFCURVE",
"132 652 OFFCURVE",
"109 652 CURVE SMOOTH",
"100 652 OFFCURVE",
"99 650 OFFCURVE",
"99 645 CURVE SMOOTH",
"99 635 OFFCURVE",
"83 456 OFFCURVE",
"83 298 CURVE SMOOTH",
"83 195 OFFCURVE",
"97 104 OFFCURVE",
"147 53 CURVE SMOOTH",
"189 10 OFFCURVE",
"263 -13 OFFCURVE",
"336 -13 CURVE SMOOTH"
);
}
);
width = 700;
},
{
anchors = (
{
name = bottom;
position = "{374, 0}";
},
{
name = ogonek;
position = "{617, 10}";
},
{
name = top;
position = "{408, 652}";
},
{
name = topright;
position = "{700, 652}";
}
);
layerId = "63F4CE79-9D5F-46D3-B41C-385689F27F0A";
paths = (
{
closed = 1;
nodes = (
"453 -13 OFFCURVE",
"529 13 OFFCURVE",
"583 64 CURVE SMOOTH",
"679 155 OFFCURVE",
"708 327 OFFCURVE",
"708 580 CURVE SMOOTH",
"708 630 OFFCURVE",
"642 652 OFFCURVE",
"603 652 CURVE SMOOTH",
"576 652 OFFCURVE",
"573 643 OFFCURVE",
"573 618 CURVE SMOOTH",
"573 343 OFFCURVE",
"548 201 OFFCURVE",
"506 145 CURVE SMOOTH",
"484 116 OFFCURVE",
"450 99 OFFCURVE",
"420 99 CURVE SMOOTH",
"384 99 OFFCURVE",
"350 112 OFFCURVE",
"328 146 CURVE SMOOTH",
"302 186 OFFCURVE",
"295 264 OFFCURVE",
"295 347 CURVE SMOOTH",
"295 420 OFFCURVE",
"310 569 OFFCURVE",
"310 580 CURVE SMOOTH",
"310 630 OFFCURVE",
"203 652 OFFCURVE",
"139 652 CURVE SMOOTH",
"95 652 OFFCURVE",
"93 643 OFFCURVE",
"90 618 CURVE SMOOTH",
"89 608 OFFCURVE",
"74 447 OFFCURVE",
"72 298 CURVE SMOOTH",
"71 195 OFFCURVE",
"84 105 OFFCURVE",
"139 55 CURVE SMOOTH",
"187 12 OFFCURVE",
"266 -13 OFFCURVE",
"348 -13 CURVE SMOOTH"
);
}
);
width = 700;
}
);
note = U;
unicode = 0055;
},
{
color = 1;
glyphname = Ubar;
lastChange = "2022-09-24 03:09:45 +0000";
layers = (
{
anchors = (
{
name = bottom;
position = "{344, 0}";
},
{
name = ogonek;
position = "{381, 0}";
},
{
name = top;
position = "{380, 652}";
},
{
name = topright;
position = "{680, 652}";
}
);
layerId = "220B7CD1-1E4F-4884-BA06-A44A5DCE8B14";
paths = (
{
closed = 1;
nodes = (
"417 -13 OFFCURVE",
"479 6 OFFCURVE",
"525 48 CURVE SMOOTH",
"620 135 OFFCURVE",
"649 317 OFFCURVE",
"649 626 CURVE SMOOTH",
"649 644 OFFCURVE",
"627 652 OFFCURVE",
"606 652 CURVE SMOOTH",
"597 652 OFFCURVE",
"596 650 OFFCURVE",
"596 645 CURVE SMOOTH",
"596 293 OFFCURVE",
"563 144 OFFCURVE",
"497 79 CURVE SMOOTH",
"462 45 OFFCURVE",
"404 27 OFFCURVE",
"355 27 CURVE SMOOTH",
"294 27 OFFCURVE",
"239 42 OFFCURVE",
"203 80 CURVE SMOOTH",
"160 125 OFFCURVE",
"144 212 OFFCURVE",
"144 307 CURVE SMOOTH",
"144 411 OFFCURVE",
"162 589 OFFCURVE",
"162 626 CURVE SMOOTH",
"162 644 OFFCURVE",
"132 652 OFFCURVE",
"109 652 CURVE SMOOTH",
"100 652 OFFCURVE",
"99 650 OFFCURVE",
"99 645 CURVE SMOOTH",
"99 635 OFFCURVE",
"83 456 OFFCURVE",
"83 298 CURVE SMOOTH",
"83 195 OFFCURVE",
"97 104 OFFCURVE",
"147 53 CURVE SMOOTH",
"189 10 OFFCURVE",
"263 -13 OFFCURVE",
"336 -13 CURVE SMOOTH"
);
},
{
closed = 1;
nodes = (
"26 455 OFFCURVE",
"203 458 OFFCURVE",
"379 459 CURVE SMOOTH",
"552 459 OFFCURVE",
"705 456 OFFCURVE",
"707 456 CURVE",
"716 456 OFFCURVE",
"721 475 OFFCURVE",
"721 489 CURVE SMOOTH",
"721 495 OFFCURVE",
"718 499 OFFCURVE",
"713 499 CURVE",
"32 499 LINE",
"23 499 OFFCURVE",
"17 483 OFFCURVE",
"17 465 CURVE SMOOTH",
"17 459 OFFCURVE",
"19 455 OFFCURVE",
"24 455 CURVE"
);
}
);
width = 700;
},
{
anchors = (
{
name = bottom;
position = "{374, 0}";
},
{
name = ogonek;
position = "{617, 10}";
},
{
name = top;
position = "{408, 652}";
},
{
name = topright;
position = "{700, 652}";
}
);
layerId = "63F4CE79-9D5F-46D3-B41C-385689F27F0A";
paths = (
{
closed = 1;
nodes = (
"453 -13 OFFCURVE",
"529 13 OFFCURVE",
"583 64 CURVE SMOOTH",
"679 155 OFFCURVE",
"708 327 OFFCURVE",
"708 580 CURVE SMOOTH",
"708 630 OFFCURVE",
"642 652 OFFCURVE",
"603 652 CURVE SMOOTH",
"576 652 OFFCURVE",
"573 643 OFFCURVE",
"573 618 CURVE SMOOTH",
"573 343 OFFCURVE",
"548 201 OFFCURVE",
"506 145 CURVE SMOOTH",
"484 116 OFFCURVE",
"450 99 OFFCURVE",
"420 99 CURVE SMOOTH",
"384 99 OFFCURVE",
"350 112 OFFCURVE",
"328 146 CURVE SMOOTH",
"302 186 OFFCURVE",
"295 264 OFFCURVE",
"295 347 CURVE SMOOTH",
"295 420 OFFCURVE",
"310 569 OFFCURVE",
"310 580 CURVE SMOOTH",
"310 630 OFFCURVE",
"203 652 OFFCURVE",
"139 652 CURVE SMOOTH",
"95 652 OFFCURVE",
"93 643 OFFCURVE",
"90 618 CURVE SMOOTH",
"89 608 OFFCURVE",
"74 447 OFFCURVE",
"72 298 CURVE SMOOTH",
"71 195 OFFCURVE",
"84 105 OFFCURVE",
"139 55 CURVE SMOOTH",
"187 12 OFFCURVE",
"266 -13 OFFCURVE",
"348 -13 CURVE SMOOTH"
);
},
{
closed = 1;
nodes = (
"167 415 OFFCURVE",
"298 419 OFFCURVE",
"429 419 CURVE SMOOTH",
"558 419 OFFCURVE",
"616 415 OFFCURVE",
"745 415 CURVE SMOOTH",
"760 415 OFFCURVE",
"771 437 OFFCURVE",
"771 473 CURVE SMOOTH",
"771 496 OFFCURVE",
"768 499 OFFCURVE",
"758 499 CURVE SMOOTH",
"49 499 LINE",
"34 499 OFFCURVE",
"23 477 OFFCURVE",
"23 441 CURVE SMOOTH",
"23 418 OFFCURVE",
"26 415 OFFCURVE",
"36 415 CURVE"
);
}
);
width = 700;
}
);
unicode = 0244;
},
{
color = 1;
glyphname = V;
lastChange = "2022-09-24 02:47:35 +0000";
layers = (
{
anchors = (
{
name = bottom;
position = "{227, 0}";
},
{
name = top;
position = "{284, 652}";
}
);
layerId = "220B7CD1-1E4F-4884-BA06-A44A5DCE8B14";
paths = (
{
closed = 1;
nodes = (
"247 -13 OFFCURVE",
"249 -11 OFFCURVE",
"252 -6 CURVE SMOOTH",
"312 107 OFFCURVE",
"530 558 OFFCURVE",
"555 613 CURVE SMOOTH",
"557 617 OFFCURVE",
"560 623 OFFCURVE",
"560 626 CURVE SMOOTH",
"560 641 OFFCURVE",
"537 652 OFFCURVE",
"516 652 CURVE SMOOTH",
"511 652 OFFCURVE",
"508 651 OFFCURVE",
"506 644 CURVE SMOOTH",
"475 548 OFFCURVE",
"273 121 OFFCURVE",
"237 64 CURVE",
"198 151 OFFCURVE",
"62 593 OFFCURVE",
"50 628 CURVE SMOOTH",
"47 637 OFFCURVE",
"32 652 OFFCURVE",
"-7 652 CURVE SMOOTH",
"-17 652 OFFCURVE",
"-18 650 OFFCURVE",
"-18 645 CURVE SMOOTH",
"-18 641 OFFCURVE",
"-17 639 OFFCURVE",
"-14 630 CURVE SMOOTH",
"13 538 OFFCURVE",
"168 77 OFFCURVE",
"192 6 CURVE SMOOTH",
"195 -3 OFFCURVE",
"215 -13 OFFCURVE",
"239 -13 CURVE SMOOTH"
);
}
);
width = 511;
},
{
anchors = (
{
name = bottom;
position = "{290, 0}";
},
{
name = top;
position = "{361, 652}";
}
);
layerId = "63F4CE79-9D5F-46D3-B41C-385689F27F0A";
paths = (
{
closed = 1;
nodes = (
"373 -13 OFFCURVE",
"382 -6 OFFCURVE",
"388 8 CURVE SMOOTH",
"408 59 OFFCURVE",
"525 327 OFFCURVE",
"621 540 CURVE SMOOTH",
"629 557 OFFCURVE",
"634 569 OFFCURVE",
"634 579 CURVE SMOOTH",
"634 630 OFFCURVE",
"582 652 OFFCURVE",
"550 652 CURVE SMOOTH",
"538 652 OFFCURVE",
"532 649 OFFCURVE",
"529 641 CURVE SMOOTH",
"489 532 OFFCURVE",
"386 267 OFFCURVE",
"342 185 CURVE",
"324 248 OFFCURVE",
"281 545 OFFCURVE",
"278 579 CURVE SMOOTH",
"274 625 OFFCURVE",
"169 652 OFFCURVE",
"81 652 CURVE SMOOTH",
"43 652 OFFCURVE",
"28 646 OFFCURVE",
"28 632 CURVE SMOOTH",
"28 626 OFFCURVE",
"31 618 OFFCURVE",
"34 607 CURVE SMOOTH",
"37 596 OFFCURVE",
"118 236 OFFCURVE",
"151 66 CURVE SMOOTH",
"161 15 OFFCURVE",
"247 -13 OFFCURVE",
"338 -13 CURVE SMOOTH"
);
}
);
width = 607;
}
);
note = V;
unicode = 0056;
},
{
color = 1;
glyphname = W;
lastChange = "2022-09-24 02:46:40 +0000";
layers = (
{
anchors = (
{
name = bottom;
position = "{496, 0}";
},
{
name = top;
position = "{530, 652}";
}
);
layerId = "220B7CD1-1E4F-4884-BA06-A44A5DCE8B14";
paths = (
{
closed = 1;
nodes = (
"233 -13 OFFCURVE",
"236 -12 OFFCURVE",
"240 -4 CURVE SMOOTH",
"249 14 OFFCURVE",
"412 341 OFFCURVE",
"504 550 CURVE",
"551 420 OFFCURVE",
"707 50 OFFCURVE",
"718 11 CURVE SMOOTH",
"722 -4 OFFCURVE",
"748 -13 OFFCURVE",
"778 -13 CURVE SMOOTH",
"788 -13 OFFCURVE",
"791 -10 OFFCURVE",
"792 3 CURVE SMOOTH",
"797 50 OFFCURVE",
"956 616 OFFCURVE",
"956 626 CURVE SMOOTH",
"956 644 OFFCURVE",
"929 652 OFFCURVE",
"909 652 CURVE SMOOTH",
"901 652 OFFCURVE",
"901 650 OFFCURVE",
"901 645 CURVE SMOOTH",
"901 591 OFFCURVE",
"807 248 OFFCURVE",
"759 69 CURVE",
"699 194 OFFCURVE",
"586 506 OFFCURVE",
"532 635 CURVE SMOOTH",
"528 644 OFFCURVE",
"515 652 OFFCURVE",
"500 652 CURVE SMOOTH",
"495 652 OFFCURVE",
"491 647 OFFCURVE",
"490 644 CURVE SMOOTH",
"423 476 OFFCURVE",
"327 256 OFFCURVE",
"224 69 CURVE",
"195 204 OFFCURVE",
"147 612 OFFCURVE",
"147 626 CURVE SMOOTH",
"147 644 OFFCURVE",
"115 652 OFFCURVE",
"95 652 CURVE SMOOTH",
"86 652 OFFCURVE",
"83 650 OFFCURVE",
"83 642 CURVE SMOOTH",
"83 638 OFFCURVE",
"83 631 OFFCURVE",
"84 623 CURVE SMOOTH",
"94 530 OFFCURVE",
"147 210 OFFCURVE",
"170 15 CURVE SMOOTH",
"172 -5 OFFCURVE",
"204 -13 OFFCURVE",
"225 -13 CURVE SMOOTH"
);
}
);
width = 1020;
},
{
anchors = (
{
name = bottom;
position = "{515, 0}";
},
{
name = top;
position = "{599, 652}";
}
);
layerId = "63F4CE79-9D5F-46D3-B41C-385689F27F0A";
paths = (
{
closed = 1;
nodes = (
"351 -13 OFFCURVE",
"358 -9 OFFCURVE",
"365 11 CURVE SMOOTH",
"383 64 OFFCURVE",
"501 333 OFFCURVE",
"543 422 CURVE",
"567 336 OFFCURVE",
"620 119 OFFCURVE",
"633 59 CURVE SMOOTH",
"643 14 OFFCURVE",
"740 -13 OFFCURVE",
"813 -13 CURVE SMOOTH",
"845 -13 OFFCURVE",
"876 -8 OFFCURVE",
"881 15 CURVE SMOOTH",
"911 152 OFFCURVE",
"1044 533 OFFCURVE",
"1044 580 CURVE SMOOTH",
"1044 630 OFFCURVE",
"990 652 OFFCURVE",
"957 652 CURVE SMOOTH",
"944 652 OFFCURVE",
"935 650 OFFCURVE",
"933 626 CURVE SMOOTH",
"928 567 OFFCURVE",
"833 251 OFFCURVE",
"816 193 CURVE",
"793 282 OFFCURVE",
"736 519 OFFCURVE",
"725 587 CURVE SMOOTH",
"719 626 OFFCURVE",
"634 652 OFFCURVE",
"560 652 CURVE SMOOTH",
"529 652 OFFCURVE",
"521 650 OFFCURVE",
"513 627 CURVE SMOOTH",
"489 556 OFFCURVE",
"343 216 OFFCURVE",
"336 194 CURVE",
"308 377 OFFCURVE",
"290 536 OFFCURVE",
"288 573 CURVE SMOOTH",
"285 621 OFFCURVE",
"175 652 OFFCURVE",
"111 652 CURVE SMOOTH",
"79 652 OFFCURVE",
"57 648 OFFCURVE",
"57 633 CURVE SMOOTH",
"57 628 OFFCURVE",
"60 614 OFFCURVE",
"62 602 CURVE SMOOTH",
"68 566 OFFCURVE",
"133 117 OFFCURVE",
"138 59 CURVE SMOOTH",
"142 9 OFFCURVE",
"243 -13 OFFCURVE",
"319 -13 CURVE SMOOTH"
);
}
);
width = 1027;
}
);
note = W;
unicode = 0057;
},
{
color = 1;
glyphname = X;
lastChange = "2022-09-24 02:48:04 +0000";
layers = (
{
anchors = (
{
name = bottom;
position = "{238, 0}";
},
{
name = top;
position = "{272, 652}";
}
);
layerId = "220B7CD1-1E4F-4884-BA06-A44A5DCE8B14";
paths = (
{
closed = 1;
nodes = (
"1 -13 OFFCURVE",
"3 -13 OFFCURVE",
"13 1 CURVE SMOOTH",
"74 86 OFFCURVE",
"147 174 OFFCURVE",
"247 297 CURVE",
"297 224 OFFCURVE",
"425 28 OFFCURVE",
"448 0 CURVE SMOOTH",
"456 -10 OFFCURVE",
"458 -13 OFFCURVE",
"465 -13 CURVE SMOOTH",
"477 -13 OFFCURVE",
"497 -4 OFFCURVE",
"509 6 CURVE SMOOTH",
"514 10 OFFCURVE",
"515 13 OFFCURVE",
"515 14 CURVE SMOOTH",
"515 15 OFFCURVE",
"511 21 OFFCURVE",
"504 31 CURVE SMOOTH",
"472 75 OFFCURVE",
"377 200 OFFCURVE",
"293 331 CURVE",
"355 409 OFFCURVE",
"410 484 OFFCURVE",
"476 577 CURVE SMOOTH",
"481 585 OFFCURVE",
"483 590 OFFCURVE",
"483 598 CURVE SMOOTH",
"483 622 OFFCURVE",
"470 652 OFFCURVE",
"457 652 CURVE SMOOTH",
"454 652 OFFCURVE",
"453 650 OFFCURVE",
"450 644 CURVE SMOOTH",
"428 592 OFFCURVE",
"347 465 OFFCURVE",
"271 366 CURVE",
"195 474 OFFCURVE",
"128 581 OFFCURVE",
"88 645 CURVE SMOOTH",
"84 651 OFFCURVE",
"79 652 OFFCURVE",
"70 652 CURVE SMOOTH",
"49 652 OFFCURVE",
"23 636 OFFCURVE",
"23 628 CURVE SMOOTH",
"23 625 OFFCURVE",
"24 623 OFFCURVE",
"30 614 CURVE SMOOTH",
"51 583 OFFCURVE",
"122 493 OFFCURVE",
"224 334 CURVE",
"150 243 OFFCURVE",
"74 155 OFFCURVE",
"-19 52 CURVE SMOOTH",
"-25 46 OFFCURVE",
"-27 43 OFFCURVE",
"-27 38 CURVE SMOOTH",
"-27 20 OFFCURVE",
"-18 -13 OFFCURVE",
"-3 -13 CURVE SMOOTH"
);
}
);
width = 503;
},
{
anchors = (
{
name = bottom;
position = "{199, 0}";
},
{
name = top;
position = "{339, 652}";
}
);
layerId = "63F4CE79-9D5F-46D3-B41C-385689F27F0A";
paths = (
{
closed = 1;
nodes = (
"53 -13 OFFCURVE",
"59 -8 OFFCURVE",
"75 15 CURVE SMOOTH",
"99 49 OFFCURVE",
"185 166 OFFCURVE",
"217 203 CURVE",
"264 102 OFFCURVE",
"305 16 OFFCURVE",
"309 8 CURVE SMOOTH",
"317 -7 OFFCURVE",
"336 -13 OFFCURVE",
"358 -13 CURVE SMOOTH",
"401 -13 OFFCURVE",
"458 7 OFFCURVE",
"494 27 CURVE SMOOTH",
"519 41 OFFCURVE",
"528 49 OFFCURVE",
"528 60 CURVE SMOOTH",
"528 66 OFFCURVE",
"524 72 OFFCURVE",
"520 80 CURVE SMOOTH",
"485 146 OFFCURVE",
"438 242 OFFCURVE",
"394 333 CURVE",
"474 424 OFFCURVE",
"521 469 OFFCURVE",
"540 509 CURVE SMOOTH",
"546 522 OFFCURVE",
"549 535 OFFCURVE",
"549 547 CURVE SMOOTH",
"549 594 OFFCURVE",
"503 652 OFFCURVE",
"492 652 CURVE SMOOTH",
"487 652 OFFCURVE",
"481 647 OFFCURVE",
"465 624 CURVE SMOOTH",
"441 590 OFFCURVE",
"362 481 OFFCURVE",
"330 444 CURVE",
"285 540 OFFCURVE",
"247 623 OFFCURVE",
"243 630 CURVE SMOOTH",
"234 646 OFFCURVE",
"215 652 OFFCURVE",
"192 652 CURVE SMOOTH",
"143 652 OFFCURVE",
"24 612 OFFCURVE",
"24 579 CURVE SMOOTH",
"24 573 OFFCURVE",
"27 566 OFFCURVE",
"31 558 CURVE SMOOTH",
"66 494 OFFCURVE",
"110 398 OFFCURVE",
"154 312 CURVE",
"70 217 OFFCURVE",
"18 168 OFFCURVE",
"-1 125 CURVE SMOOTH",
"-6 114 OFFCURVE",
"-9 102 OFFCURVE",
"-9 91 CURVE SMOOTH",
"-9 36 OFFCURVE",
"42 -13 OFFCURVE",
"48 -13 CURVE SMOOTH"
);
}
);
width = 549;
}
);
note = X;
unicode = 0058;
},
{
color = 1;
glyphname = Y;
lastChange = "2022-09-24 02:48:16 +0000";
layers = (
{
anchors = (
{
name = bottom;
position = "{224, 0}";
},
{
name = top;
position = "{258, 652}";
},
{
name = topleft;
position = "{40, 652}";
}
);
layerId = "220B7CD1-1E4F-4884-BA06-A44A5DCE8B14";
paths = (
{
closed = 1;
nodes = (
"255 -13 OFFCURVE",
"256 -10 OFFCURVE",
"256 -5 CURVE SMOOTH",
"259 85 OFFCURVE",
"262 174 OFFCURVE",
"265 264 CURVE",
"320 363 OFFCURVE",
"432 531 OFFCURVE",
"466 590 CURVE SMOOTH",
"474 604 OFFCURVE",
"476 610 OFFCURVE",
"476 614 CURVE SMOOTH",
"476 626 OFFCURVE",
"465 652 OFFCURVE",
"451 652 CURVE SMOOTH",
"447 652 OFFCURVE",
"444 650 OFFCURVE",
"442 646 CURVE SMOOTH",
"429 621 OFFCURVE",
"308 418 OFFCURVE",
"246 320 CURVE",
"212 378 OFFCURVE",
"149 504 OFFCURVE",
"68 630 CURVE SMOOTH",
"55 651 OFFCURVE",
"21 652 OFFCURVE",
"7 652 CURVE SMOOTH",
"-7 652 OFFCURVE",
"-10 650 OFFCURVE",
"-10 643 CURVE SMOOTH",
"-10 638 OFFCURVE",
"-2 626 OFFCURVE",
"3 618 CURVE SMOOTH",
"22 590 OFFCURVE",
"90 502 OFFCURVE",
"211 275 CURVE",
"204 188 OFFCURVE",
"193 25 OFFCURVE",
"193 14 CURVE SMOOTH",
"193 -4 OFFCURVE",
"223 -13 OFFCURVE",
"246 -13 CURVE SMOOTH"
);
}
);
width = 476;
},
{
anchors = (
{
name = bottom;
position = "{243, 0}";
},
{
name = top;
position = "{277, 652}";
},
{
name = topleft;
position = "{59, 652}";
}
);
layerId = "63F4CE79-9D5F-46D3-B41C-385689F27F0A";
paths = (
{
closed = 1;
nodes = (
"353 -13 OFFCURVE",
"358 -4 OFFCURVE",
"358 21 CURVE SMOOTH",
"358 81 OFFCURVE",
"361 149 OFFCURVE",
"364 232 CURVE",
"392 277 OFFCURVE",
"502 453 OFFCURVE",
"521 483 CURVE SMOOTH",
"536 506 OFFCURVE",
"543 535 OFFCURVE",
"543 559 CURVE SMOOTH",
"543 610 OFFCURVE",
"498 652 OFFCURVE",
"483 652 CURVE SMOOTH",
"473 652 OFFCURVE",
"468 642 OFFCURVE",
"453 614 CURVE SMOOTH",
"429 568 OFFCURVE",
"367 447 OFFCURVE",
"324 381 CURVE",
"304 446 OFFCURVE",
"287 509 OFFCURVE",
"274 576 CURVE SMOOTH",
"263 633 OFFCURVE",
"145 652 OFFCURVE",
"67 652 CURVE SMOOTH",
"20 652 OFFCURVE",
"9 641 OFFCURVE",
"9 626 CURVE SMOOTH",
"9 622 OFFCURVE",
"10 618 OFFCURVE",
"12 613 CURVE SMOOTH",
"53 530 OFFCURVE",
"121 336 OFFCURVE",
"149 261 CURVE",
"143 153 OFFCURVE",
"138 68 OFFCURVE",
"138 59 CURVE SMOOTH",
"138 9 OFFCURVE",
"245 -13 OFFCURVE",
"309 -13 CURVE SMOOTH"
);
}
);
width = 514;
}
);
note = Y;
unicode = 0059;
},
{
color = 1;
glyphname = Z;
lastChange = "2022-09-23 20:40:40 +0000";
layers = (
{
anchors = (
{
name = bottom;
position = "{192, 0}";
},
{
name = center;
position = "{209, 326}";
},
{
name = top;
position = "{226, 652}";
}
);
layerId = "220B7CD1-1E4F-4884-BA06-A44A5DCE8B14";
paths = (
{
closed = 1;
nodes = (
"417 0 LINE SMOOTH",
"423 0 OFFCURVE",
"434 23 OFFCURVE",
"434 43 CURVE SMOOTH",
"434 53 OFFCURVE",
"432 61 OFFCURVE",
"427 61 CURVE SMOOTH",
"420 61 OFFCURVE",
"394 46 OFFCURVE",
"139 46 CURVE SMOOTH",
"45 46 LINE",
"58 72 OFFCURVE",
"403 551 OFFCURVE",
"423 578 CURVE SMOOTH",
"431 588 OFFCURVE",
"432 598 OFFCURVE",
"432 605 CURVE SMOOTH",
"432 619 OFFCURVE",
"423 639 OFFCURVE",
"414 639 CURVE SMOOTH",
"42 639 LINE SMOOTH",
"33 639 OFFCURVE",
"24 616 OFFCURVE",
"24 594 CURVE SMOOTH",
"24 584 OFFCURVE",
"25 578 OFFCURVE",
"30 578 CURVE SMOOTH",
"43 578 OFFCURVE",
"55 594 OFFCURVE",
"271 594 CURVE SMOOTH",
"364 594 LINE",
"301 482 OFFCURVE",
"76 179 OFFCURVE",
"-15 58 CURVE SMOOTH",
"-23 48 OFFCURVE",
"-23 44 OFFCURVE",
"-23 38 CURVE SMOOTH",
"-23 24 OFFCURVE",
"-15 0 OFFCURVE",
"-6 0 CURVE SMOOTH"
);
}
);
width = 411;
},
{
anchors = (
{
name = bottom;
position = "{186, 0}";
},
{
name = center;
position = "{203, 326}";
},
{
name = top;
position = "{220, 652}";
}
);
layerId = "63F4CE79-9D5F-46D3-B41C-385689F27F0A";
paths = (
{
closed = 1;
nodes = (
"55 639 LINE SMOOTH",
"41 639 OFFCURVE",
"21 622 OFFCURVE",
"21 561 CURVE SMOOTH",
"21 524 OFFCURVE",
"23 506 OFFCURVE",
"30 506 CURVE SMOOTH",
"38 506 OFFCURVE",
"127 519 OFFCURVE",
"183 519 CURVE SMOOTH",
"265 519 LINE",
"237 477 OFFCURVE",
"26 180 OFFCURVE",
"6 148 CURVE SMOOTH",
"-1 136 OFFCURVE",
"-1 128 OFFCURVE",
"-1 116 CURVE SMOOTH",
"-1 95 OFFCURVE",
"32 0 OFFCURVE",
"63 0 CURVE SMOOTH",
"471 0 LINE SMOOTH",
"485 0 OFFCURVE",
"505 20 OFFCURVE",
"505 73 CURVE SMOOTH",
"505 115 OFFCURVE",
"503 133 OFFCURVE",
"496 133 CURVE SMOOTH",
"488 133 OFFCURVE",
"399 120 OFFCURVE",
"343 120 CURVE SMOOTH",
"244 120 LINE",
"252 140 OFFCURVE",
"486 460 OFFCURVE",
"505 491 CURVE SMOOTH",
"513 503 OFFCURVE",
"513 511 OFFCURVE",
"513 523 CURVE SMOOTH",
"513 544 OFFCURVE",
"480 639 OFFCURVE",
"449 639 CURVE SMOOTH"
);
}
);
width = 538;
}
);
note = Z;
unicode = 005A;
},
{
color = 0;
glyphname = Eng.loclNSM;
lastChange = "2022-09-24 03:08:52 +0000";
layers = (
{
anchors = (
{
name = bottom;
position = "{416, 0}";
},
{
name = top;
position = "{450, 652}";
}
);
layerId = "220B7CD1-1E4F-4884-BA06-A44A5DCE8B14";
paths = (
{
closed = 1;
nodes = (
"582 -244 OFFCURVE",
"625 -225 OFFCURVE",
"662 -190 CURVE SMOOTH",
"699 -155 OFFCURVE",
"723 -99 OFFCURVE",
"727 -28 CURVE SMOOTH",
"728 -14 OFFCURVE",
"763 613 OFFCURVE",
"763 626 CURVE SMOOTH",
"763 644 OFFCURVE",
"737 652 OFFCURVE",
"714 652 CURVE SMOOTH",
"705 652 OFFCURVE",
"704 651 OFFCURVE",
"704 642 CURVE SMOOTH",
"704 290 OFFCURVE",
"684 81 OFFCURVE",
"683 77 CURVE",
"605 152 OFFCURVE",
"241 564 OFFCURVE",
"185 641 CURVE SMOOTH",
"181 646 OFFCURVE",
"174 652 OFFCURVE",
"170 652 CURVE SMOOTH",
"160 652 OFFCURVE",
"130 630 OFFCURVE",
"130 621 CURVE SMOOTH",
"130 508 OFFCURVE",
"96 26 OFFCURVE",
"96 14 CURVE SMOOTH",
"96 -4 OFFCURVE",
"121 -13 OFFCURVE",
"144 -13 CURVE SMOOTH",
"152 -13 OFFCURVE",
"154 -11 OFFCURVE",
"154 -3 CURVE SMOOTH",
"154 160 OFFCURVE",
"173 544 OFFCURVE",
"174 563 CURVE",
"204 518 OFFCURVE",
"558 123 OFFCURVE",
"674 -1 CURVE",
"678 -6 LINE",
"652 -176 OFFCURVE",
"627 -193 OFFCURVE",
"552 -193 CURVE SMOOTH",
"482 -193 OFFCURVE",
"401 -161 OFFCURVE",
"368 -147 CURVE SMOOTH",
"362 -145 OFFCURVE",
"355 -141 OFFCURVE",
"353 -141 CURVE SMOOTH",
"350 -141 OFFCURVE",
"346 -146 OFFCURVE",
"346 -164 CURVE SMOOTH",
"346 -174 OFFCURVE",
"350 -185 OFFCURVE",
"356 -189 CURVE SMOOTH",
"368 -198 OFFCURVE",
"460 -244 OFFCURVE",
"549 -244 CURVE SMOOTH"
);
}
);
width = 859;
},
{
anchors = (
{
name = bottom;
position = "{365, 0}";
},
{
name = top;
position = "{399, 652}";
}
);
layerId = "63F4CE79-9D5F-46D3-B41C-385689F27F0A";
paths = (
{
closed = 1;
nodes = (
"531 -244 OFFCURVE",
"574 -225 OFFCURVE",
"611 -190 CURVE SMOOTH",
"648 -155 OFFCURVE",
"672 -99 OFFCURVE",
"676 -28 CURVE SMOOTH",
"677 -14 OFFCURVE",
"712 613 OFFCURVE",
"712 626 CURVE SMOOTH",
"712 644 OFFCURVE",
"686 652 OFFCURVE",
"663 652 CURVE SMOOTH",
"654 652 OFFCURVE",
"653 651 OFFCURVE",
"653 642 CURVE SMOOTH",
"653 290 OFFCURVE",
"633 81 OFFCURVE",
"632 77 CURVE",
"554 152 OFFCURVE",
"190 564 OFFCURVE",
"134 641 CURVE SMOOTH",
"130 646 OFFCURVE",
"123 652 OFFCURVE",
"119 652 CURVE SMOOTH",
"109 652 OFFCURVE",
"79 630 OFFCURVE",
"79 621 CURVE SMOOTH",
"79 508 OFFCURVE",
"45 26 OFFCURVE",
"45 14 CURVE SMOOTH",
"45 -4 OFFCURVE",
"70 -13 OFFCURVE",
"93 -13 CURVE SMOOTH",
"101 -13 OFFCURVE",
"103 -11 OFFCURVE",
"103 -3 CURVE SMOOTH",
"103 160 OFFCURVE",
"122 544 OFFCURVE",
"123 563 CURVE",
"153 518 OFFCURVE",
"507 123 OFFCURVE",
"623 -1 CURVE",
"627 -6 LINE",
"601 -176 OFFCURVE",
"576 -193 OFFCURVE",
"501 -193 CURVE SMOOTH",
"431 -193 OFFCURVE",
"350 -161 OFFCURVE",
"317 -147 CURVE SMOOTH",
"311 -145 OFFCURVE",
"304 -141 OFFCURVE",
"302 -141 CURVE SMOOTH",
"299 -141 OFFCURVE",
"295 -146 OFFCURVE",
"295 -164 CURVE SMOOTH",
"295 -174 OFFCURVE",
"299 -185 OFFCURVE",
"305 -189 CURVE SMOOTH",
"317 -198 OFFCURVE",
"409 -244 OFFCURVE",
"498 -244 CURVE SMOOTH"
);
}
);
width = 721;
}
);
leftMetricsKey = H;
rightMetricsKey = H;
},
{
color = 1;
glyphname = a;
lastChange = "2022-09-24 01:16:02 +0000";
layers = (
{
anchors = (
{
name = bottom;
position = "{303, 0}";
},
{
name = ogonek;
position = "{529, 10}";
},
{
name = top;
position = "{339, 524}";
}
);
layerId = "220B7CD1-1E4F-4884-BA06-A44A5DCE8B14";
paths = (
{
closed = 1;
nodes = (
"205 -13 OFFCURVE",
"379 210 OFFCURVE",
"451 355 CURVE",
"445 262 OFFCURVE",
"438 121 OFFCURVE",
"438 63 CURVE SMOOTH",
"438 40 OFFCURVE",
"438 26 OFFCURVE",
"441 20 CURVE SMOOTH",
"446 9 OFFCURVE",
"480 -13 OFFCURVE",
"491 -13 CURVE SMOOTH",
"533 -13 OFFCURVE",
"618 88 OFFCURVE",
"651 131 CURVE SMOOTH",
"653 133 OFFCURVE",
"654 137 OFFCURVE",
"654 141 CURVE SMOOTH",
"654 154 OFFCURVE",
"644 170 OFFCURVE",
"640 170 CURVE SMOOTH",
"637 170 OFFCURVE",
"636 167 OFFCURVE",
"633 164 CURVE",
"612 136 OFFCURVE",
"530 41 OFFCURVE",
"511 41 CURVE SMOOTH",
"499 41 OFFCURVE",
"495 48 OFFCURVE",
"495 89 CURVE SMOOTH",
"495 237 OFFCURVE",
"511 451 OFFCURVE",
"511 460 CURVE",
"516 460 OFFCURVE",
"523 472 OFFCURVE",
"523 490 CURVE SMOOTH",
"523 495 OFFCURVE",
"520 496 OFFCURVE",
"519 496 CURVE SMOOTH",
"442 513 OFFCURVE",
"338 524 OFFCURVE",
"320 524 CURVE SMOOTH",
"253 524 OFFCURVE",
"191 484 OFFCURVE",
"142 417 CURVE SMOOTH",
"91 348 OFFCURVE",
"88 141 OFFCURVE",
"88 63 CURVE SMOOTH",
"88 40 OFFCURVE",
"89 26 OFFCURVE",
"92 20 CURVE SMOOTH",
"97 9 OFFCURVE",
"131 -13 OFFCURVE",
"142 -13 CURVE SMOOTH"
);
},
{
closed = 1;
nodes = (
"149 41 OFFCURVE",
"145 48 OFFCURVE",
"145 89 CURVE SMOOTH",
"145 339 OFFCURVE",
"199 481 OFFCURVE",
"282 481 CURVE SMOOTH",
"320 481 OFFCURVE",
"377 476 OFFCURVE",
"460 460 CURVE",
"418 319 OFFCURVE",
"194 41 OFFCURVE",
"161 41 CURVE SMOOTH"
);
}
);
width = 645;
},
{
anchors = (
{
name = bottom;
position = "{303, 0}";
},
{
name = ogonek;
position = "{550, 10}";
},
{
name = top;
position = "{370, 524}";
}
);
layerId = "63F4CE79-9D5F-46D3-B41C-385689F27F0A";
paths = (
{
closed = 1;
nodes = (
"228 -13 OFFCURVE",
"370 160 OFFCURVE",
"386 224 CURVE",
"384 200 OFFCURVE",
"381 144 OFFCURVE",
"381 112 CURVE",
"381 97 OFFCURVE",
"382 84 OFFCURVE",
"384 69 CURVE",
"391 18 OFFCURVE",
"494 -13 OFFCURVE",
"512 -13 CURVE",
"556 -13 OFFCURVE",
"653 104 OFFCURVE",
"675 137 CURVE",
"682 147 OFFCURVE",
"686 157 OFFCURVE",
"686 167 CURVE",
"686 187 OFFCURVE",
"669 211 OFFCURVE",
"658 211 CURVE",
"654 211 OFFCURVE",
"652 209 OFFCURVE",
"646 201 CURVE",
"639 192 OFFCURVE",
"620 168 OFFCURVE",
"612 168 CURVE",
"604 168 OFFCURVE",
"601 173 OFFCURVE",
"601 226 CURVE",
"601 263 OFFCURVE",
"611 424 OFFCURVE",
"611 433 CURVE",
"617 433 OFFCURVE",
"628 455 OFFCURVE",
"628 482 CURVE",
"628 494 OFFCURVE",
"625 495 OFFCURVE",
"620 496 CURVE",
"466 519 OFFCURVE",
"385 524 OFFCURVE",
"302 524 CURVE",
"201 524 OFFCURVE",
"146 482 OFFCURVE",
"98 417 CURVE",
"47 348 OFFCURVE",
"44 142 OFFCURVE",
"44 112 CURVE",
"44 97 OFFCURVE",
"45 84 OFFCURVE",
"47 69 CURVE",
"54 18 OFFCURVE",
"157 -13 OFFCURVE",
"175 -13 CURVE"
);
},
{
closed = 1;
nodes = (
"267 167 OFFCURVE",
"264 172 OFFCURVE",
"264 224 CURVE",
"264 368 OFFCURVE",
"286 454 OFFCURVE",
"341 454 CURVE",
"358 454 OFFCURVE",
"378 452 OFFCURVE",
"395 446 CURVE",
"395 297 OFFCURVE",
"292 167 OFFCURVE",
"275 167 CURVE"
);
}
);
width = 686;
}
);
note = a;
unicode = 0061;
},
{
color = 5;
glyphname = aacute;
lastChange = "2022-09-24 01:17:05 +0000";
layers = (
{
background = {
paths = (
{
closed = 1;
nodes = (
"205 -13 OFFCURVE",
"379 210 OFFCURVE",
"451 355 CURVE",
"445 262 OFFCURVE",
"438 121 OFFCURVE",
"438 63 CURVE SMOOTH",
"438 40 OFFCURVE",
"438 26 OFFCURVE",
"441 20 CURVE SMOOTH",
"446 9 OFFCURVE",
"480 -13 OFFCURVE",
"491 -13 CURVE SMOOTH",
"533 -13 OFFCURVE",
"618 88 OFFCURVE",
"651 131 CURVE SMOOTH",
"653 133 OFFCURVE",
"654 137 OFFCURVE",
"654 141 CURVE SMOOTH",
"654 154 OFFCURVE",
"644 170 OFFCURVE",
"640 170 CURVE SMOOTH",
"637 170 OFFCURVE",
"636 167 OFFCURVE",
"633 164 CURVE",
"612 136 OFFCURVE",
"530 41 OFFCURVE",
"511 41 CURVE SMOOTH",
"499 41 OFFCURVE",
"495 48 OFFCURVE",
"495 89 CURVE SMOOTH",
"495 237 OFFCURVE",
"511 451 OFFCURVE",
"511 460 CURVE",
"516 460 OFFCURVE",
"523 472 OFFCURVE",
"523 490 CURVE SMOOTH",
"523 495 OFFCURVE",
"520 496 OFFCURVE",
"519 496 CURVE SMOOTH",
"442 513 OFFCURVE",
"338 524 OFFCURVE",
"320 524 CURVE SMOOTH",
"253 524 OFFCURVE",
"191 484 OFFCURVE",
"142 417 CURVE SMOOTH",
"91 348 OFFCURVE",
"88 141 OFFCURVE",
"88 63 CURVE SMOOTH",
"88 40 OFFCURVE",
"89 26 OFFCURVE",
"92 20 CURVE SMOOTH",
"97 9 OFFCURVE",
"131 -13 OFFCURVE",
"142 -13 CURVE SMOOTH"
);
},
{
closed = 1;
nodes = (
"149 41 OFFCURVE",
"145 48 OFFCURVE",
"145 89 CURVE SMOOTH",
"145 339 OFFCURVE",
"199 481 OFFCURVE",
"282 481 CURVE SMOOTH",
"320 481 OFFCURVE",
"377 476 OFFCURVE",
"460 460 CURVE",
"418 319 OFFCURVE",
"194 41 OFFCURVE",
"161 41 CURVE SMOOTH"
);
},
{
closed = 1;
nodes = (
"296 614 OFFCURVE",
"411 722 OFFCURVE",
"463 759 CURVE SMOOTH",
"466 761 OFFCURVE",
"466 766 OFFCURVE",
"466 771 CURVE SMOOTH",
"466 783 OFFCURVE",
"455 806 OFFCURVE",
"443 806 CURVE SMOOTH",
"439 806 OFFCURVE",
"435 805 OFFCURVE",
"430 800 CURVE SMOOTH",
"413 783 OFFCURVE",
"293 673 OFFCURVE",
"280 652 CURVE SMOOTH",
"277 647 OFFCURVE",
"275 641 OFFCURVE",
"275 636 CURVE SMOOTH",
"275 622 OFFCURVE",
"288 610 OFFCURVE",
"290 607 CURVE"
);
}
);
};
components = (
{
name = a;
},
{
name = acutecomb;
transform = "{1, 0, 0, 1, 277, 0}";
}
);
layerId = "220B7CD1-1E4F-4884-BA06-A44A5DCE8B14";
width = 645;
},
{
components = (
{
name = a;
},
{
name = acutecomb;
transform = "{1, 0, 0, 1, 308, 0}";
}
);
layerId = "63F4CE79-9D5F-46D3-B41C-385689F27F0A";
width = 686;
}
);
note = aacute;
unicode = 00E1;
},
{
color = 5;
glyphname = acircumflex;
lastChange = "2022-09-23 14:50:00 +0000";
layers = (
{
layerId = "220B7CD1-1E4F-4884-BA06-A44A5DCE8B14";
paths = (
{
closed = 1;
nodes = (
"205 -13 OFFCURVE",
"379 210 OFFCURVE",
"451 355 CURVE",
"445 262 OFFCURVE",
"438 121 OFFCURVE",
"438 63 CURVE SMOOTH",
"438 40 OFFCURVE",
"438 26 OFFCURVE",
"441 20 CURVE SMOOTH",
"446 9 OFFCURVE",
"480 -13 OFFCURVE",
"491 -13 CURVE SMOOTH",
"533 -13 OFFCURVE",
"618 88 OFFCURVE",
"651 131 CURVE SMOOTH",
"653 133 OFFCURVE",
"654 137 OFFCURVE",
"654 141 CURVE SMOOTH",
"654 154 OFFCURVE",
"644 170 OFFCURVE",
"640 170 CURVE SMOOTH",
"637 170 OFFCURVE",
"636 167 OFFCURVE",
"633 164 CURVE",
"612 136 OFFCURVE",
"530 41 OFFCURVE",
"511 41 CURVE SMOOTH",
"499 41 OFFCURVE",
"495 48 OFFCURVE",
"495 89 CURVE SMOOTH",
"495 237 OFFCURVE",
"511 451 OFFCURVE",
"511 460 CURVE",
"516 460 OFFCURVE",
"523 472 OFFCURVE",
"523 490 CURVE SMOOTH",
"523 495 OFFCURVE",
"520 496 OFFCURVE",
"519 496 CURVE SMOOTH",
"442 513 OFFCURVE",
"338 524 OFFCURVE",
"320 524 CURVE SMOOTH",
"253 524 OFFCURVE",
"191 484 OFFCURVE",
"142 417 CURVE SMOOTH",
"91 348 OFFCURVE",
"88 141 OFFCURVE",
"88 63 CURVE SMOOTH",
"88 40 OFFCURVE",
"89 26 OFFCURVE",
"92 20 CURVE SMOOTH",
"97 9 OFFCURVE",
"131 -13 OFFCURVE",
"142 -13 CURVE SMOOTH"
);
},
{
closed = 1;
nodes = (
"149 41 OFFCURVE",
"145 48 OFFCURVE",
"145 89 CURVE SMOOTH",
"145 339 OFFCURVE",
"199 481 OFFCURVE",
"282 481 CURVE SMOOTH",
"320 481 OFFCURVE",
"377 476 OFFCURVE",
"460 460 CURVE",
"418 319 OFFCURVE",
"194 41 OFFCURVE",
"161 41 CURVE SMOOTH"
);
},
{
closed = 1;
nodes = (
"220 612 OFFCURVE",
"308 696 OFFCURVE",
"366 744 CURVE",
"401 700 OFFCURVE",
"463 612 OFFCURVE",
"464 607 CURVE",
"466 608 OFFCURVE",
"485 621 OFFCURVE",
"485 631 CURVE SMOOTH",
"485 640 OFFCURVE",
"480 652 OFFCURVE",
"475 660 CURVE SMOOTH",
"454 696 OFFCURVE",
"410 761 OFFCURVE",
"380 800 CURVE SMOOTH",
"376 805 OFFCURVE",
"371 806 OFFCURVE",
"368 806 CURVE SMOOTH",
"364 806 OFFCURVE",
"361 805 OFFCURVE",
"356 800 CURVE SMOOTH",
"338 785 OFFCURVE",
"220 673 OFFCURVE",
"207 652 CURVE SMOOTH",
"204 647 OFFCURVE",
"202 641 OFFCURVE",
"202 636 CURVE SMOOTH",
"202 622 OFFCURVE",
"215 610 OFFCURVE",
"217 607 CURVE"
);
}
);
width = 645;
},
{
layerId = "63F4CE79-9D5F-46D3-B41C-385689F27F0A";
paths = (
{
closed = 1;
nodes = (
"205 -13 OFFCURVE",
"379 210 OFFCURVE",
"451 355 CURVE",
"445 262 OFFCURVE",
"438 121 OFFCURVE",
"438 63 CURVE SMOOTH",
"438 40 OFFCURVE",
"438 26 OFFCURVE",
"441 20 CURVE SMOOTH",
"446 9 OFFCURVE",
"480 -13 OFFCURVE",
"491 -13 CURVE SMOOTH",
"533 -13 OFFCURVE",
"618 88 OFFCURVE",
"651 131 CURVE SMOOTH",
"653 133 OFFCURVE",
"654 137 OFFCURVE",
"654 141 CURVE SMOOTH",
"654 154 OFFCURVE",
"644 170 OFFCURVE",
"640 170 CURVE SMOOTH",
"637 170 OFFCURVE",
"636 167 OFFCURVE",
"633 164 CURVE",
"612 136 OFFCURVE",
"530 41 OFFCURVE",
"511 41 CURVE SMOOTH",
"499 41 OFFCURVE",
"495 48 OFFCURVE",
"495 89 CURVE SMOOTH",
"495 237 OFFCURVE",
"511 451 OFFCURVE",
"511 460 CURVE",
"516 460 OFFCURVE",
"523 472 OFFCURVE",
"523 490 CURVE SMOOTH",
"523 495 OFFCURVE",
"520 496 OFFCURVE",
"519 496 CURVE SMOOTH",
"442 513 OFFCURVE",
"338 524 OFFCURVE",
"320 524 CURVE SMOOTH",
"253 524 OFFCURVE",
"191 484 OFFCURVE",
"142 417 CURVE SMOOTH",
"91 348 OFFCURVE",
"88 141 OFFCURVE",
"88 63 CURVE SMOOTH",
"88 40 OFFCURVE",
"89 26 OFFCURVE",
"92 20 CURVE SMOOTH",
"97 9 OFFCURVE",
"131 -13 OFFCURVE",
"142 -13 CURVE SMOOTH"
);
},
{
closed = 1;
nodes = (
"149 41 OFFCURVE",
"145 48 OFFCURVE",
"145 89 CURVE SMOOTH",
"145 339 OFFCURVE",
"199 481 OFFCURVE",
"282 481 CURVE SMOOTH",
"320 481 OFFCURVE",
"377 476 OFFCURVE",
"460 460 CURVE",
"418 319 OFFCURVE",
"194 41 OFFCURVE",
"161 41 CURVE SMOOTH"
);
},
{
closed = 1;
nodes = (
"220 612 OFFCURVE",
"308 696 OFFCURVE",
"366 744 CURVE",
"401 700 OFFCURVE",
"463 612 OFFCURVE",
"464 607 CURVE",
"466 608 OFFCURVE",
"485 621 OFFCURVE",
"485 631 CURVE SMOOTH",
"485 640 OFFCURVE",
"480 652 OFFCURVE",
"475 660 CURVE SMOOTH",
"454 696 OFFCURVE",
"410 761 OFFCURVE",
"380 800 CURVE SMOOTH",
"376 805 OFFCURVE",
"371 806 OFFCURVE",
"368 806 CURVE SMOOTH",
"364 806 OFFCURVE",
"361 805 OFFCURVE",
"356 800 CURVE SMOOTH",
"338 785 OFFCURVE",
"220 673 OFFCURVE",
"207 652 CURVE SMOOTH",
"204 647 OFFCURVE",
"202 641 OFFCURVE",
"202 636 CURVE SMOOTH",
"202 622 OFFCURVE",
"215 610 OFFCURVE",
"217 607 CURVE"
);
}
);
width = 645;
}
);
note = acircumflex;
unicode = 00E2;
},
{
color = 5;
glyphname = adieresis;
lastChange = "2022-09-24 01:16:21 +0000";
layers = (
{
background = {
paths = (
{
closed = 1;
nodes = (
"205 -13 OFFCURVE",
"379 210 OFFCURVE",
"451 355 CURVE",
"445 262 OFFCURVE",
"438 121 OFFCURVE",
"438 63 CURVE SMOOTH",
"438 40 OFFCURVE",
"438 26 OFFCURVE",
"441 20 CURVE SMOOTH",
"446 9 OFFCURVE",
"480 -13 OFFCURVE",
"491 -13 CURVE SMOOTH",
"533 -13 OFFCURVE",
"618 88 OFFCURVE",
"651 131 CURVE SMOOTH",
"653 133 OFFCURVE",
"654 137 OFFCURVE",
"654 141 CURVE SMOOTH",
"654 154 OFFCURVE",
"644 170 OFFCURVE",
"640 170 CURVE SMOOTH",
"637 170 OFFCURVE",
"636 167 OFFCURVE",
"633 164 CURVE",
"612 136 OFFCURVE",
"530 41 OFFCURVE",
"511 41 CURVE SMOOTH",
"499 41 OFFCURVE",
"495 48 OFFCURVE",
"495 89 CURVE SMOOTH",
"495 237 OFFCURVE",
"511 451 OFFCURVE",
"511 460 CURVE",
"516 460 OFFCURVE",
"523 472 OFFCURVE",
"523 490 CURVE SMOOTH",
"523 495 OFFCURVE",
"520 496 OFFCURVE",
"519 496 CURVE SMOOTH",
"442 513 OFFCURVE",
"338 524 OFFCURVE",
"320 524 CURVE SMOOTH",
"253 524 OFFCURVE",
"191 484 OFFCURVE",
"142 417 CURVE SMOOTH",
"91 348 OFFCURVE",
"88 141 OFFCURVE",
"88 63 CURVE SMOOTH",
"88 40 OFFCURVE",
"89 26 OFFCURVE",
"92 20 CURVE SMOOTH",
"97 9 OFFCURVE",
"131 -13 OFFCURVE",
"142 -13 CURVE SMOOTH"
);
},
{
closed = 1;
nodes = (
"149 41 OFFCURVE",
"145 48 OFFCURVE",
"145 89 CURVE SMOOTH",
"145 339 OFFCURVE",
"199 481 OFFCURVE",
"282 481 CURVE SMOOTH",
"320 481 OFFCURVE",
"377 476 OFFCURVE",
"460 460 CURVE",
"418 319 OFFCURVE",
"194 41 OFFCURVE",
"161 41 CURVE SMOOTH"
);
},
{
closed = 1;
nodes = (
"271 664 OFFCURVE",
"290 689 OFFCURVE",
"290 710 CURVE SMOOTH",
"290 744 OFFCURVE",
"276 756 OFFCURVE",
"261 756 CURVE SMOOTH",
"240 756 OFFCURVE",
"217 732 OFFCURVE",
"217 699 CURVE SMOOTH",
"217 675 OFFCURVE",
"231 664 OFFCURVE",
"251 664 CURVE SMOOTH"
);
},
{
closed = 1;
nodes = (
"471 664 OFFCURVE",
"490 689 OFFCURVE",
"490 710 CURVE SMOOTH",
"490 744 OFFCURVE",
"476 756 OFFCURVE",
"461 756 CURVE SMOOTH",
"440 756 OFFCURVE",
"417 732 OFFCURVE",
"417 699 CURVE SMOOTH",
"417 675 OFFCURVE",
"431 664 OFFCURVE",
"451 664 CURVE SMOOTH"
);
}
);
};
components = (
{
name = a;
},
{
name = dieresiscomb;
transform = "{1, 0, 0, 1, 194, 0}";
}
);
layerId = "220B7CD1-1E4F-4884-BA06-A44A5DCE8B14";
width = 645;
},
{
components = (
{
name = a;
},
{
name = dieresiscomb;
transform = "{1, 0, 0, 1, 225, 0}";
}
);
layerId = "63F4CE79-9D5F-46D3-B41C-385689F27F0A";
width = 686;
}
);
note = adieresis;
unicode = 00E4;
},
{
color = 0;
glyphname = "alpha-latin";
lastChange = "2022-09-24 03:08:52 +0000";
layers = (
{
anchors = (
{
name = top;
position = "{285, 524}";
}
);
layerId = "220B7CD1-1E4F-4884-BA06-A44A5DCE8B14";
paths = (
{
closed = 1;
nodes = (
"331 -13 OFFCURVE",
"388 16 OFFCURVE",
"431 62 CURVE SMOOTH",
"437 68 OFFCURVE",
"438 71 OFFCURVE",
"438 77 CURVE SMOOTH",
"438 89 OFFCURVE",
"432 103 OFFCURVE",
"426 103 CURVE SMOOTH",
"422 103 OFFCURVE",
"420 100 OFFCURVE",
"407 88 CURVE SMOOTH",
"386 69 OFFCURVE",
"339 30 OFFCURVE",
"258 30 CURVE SMOOTH",
"168 30 OFFCURVE",
"125 112 OFFCURVE",
"125 227 CURVE SMOOTH",
"125 387 OFFCURVE",
"208 489 OFFCURVE",
"278 489 CURVE SMOOTH",
"341 489 OFFCURVE",
"351 478 OFFCURVE",
"384 440 CURVE SMOOTH",
"393 430 OFFCURVE",
"397 426 OFFCURVE",
"405 426 CURVE SMOOTH",
"414 426 OFFCURVE",
"422 448 OFFCURVE",
"422 464 CURVE SMOOTH",
"422 472 OFFCURVE",
"418 480 OFFCURVE",
"408 489 CURVE SMOOTH",
"380 514 OFFCURVE",
"371 524 OFFCURVE",
"290 524 CURVE SMOOTH",
"199 524 OFFCURVE",
"63 450 OFFCURVE",
"63 222 CURVE SMOOTH",
"63 53 OFFCURVE",
"139 -13 OFFCURVE",
"237 -13 CURVE SMOOTH"
);
},
{
closed = 1;
nodes = (
"471 -13 OFFCURVE",
"556 88 OFFCURVE",
"589 131 CURVE SMOOTH",
"591 133 OFFCURVE",
"592 137 OFFCURVE",
"592 141 CURVE SMOOTH",
"592 154 OFFCURVE",
"582 170 OFFCURVE",
"578 170 CURVE SMOOTH",
"575 170 OFFCURVE",
"574 167 OFFCURVE",
"571 164 CURVE",
"550 136 OFFCURVE",
"468 41 OFFCURVE",
"449 41 CURVE SMOOTH",
"437 41 OFFCURVE",
"433 48 OFFCURVE",
"433 89 CURVE SMOOTH",
"433 164 OFFCURVE",
"458 451 OFFCURVE",
"458 497 CURVE SMOOTH",
"458 515 OFFCURVE",
"431 524 OFFCURVE",
"409 524 CURVE SMOOTH",
"402 524 OFFCURVE",
"401 521 OFFCURVE",
"401 516 CURVE SMOOTH",
"401 447 OFFCURVE",
"380 191 OFFCURVE",
"378 63 CURVE SMOOTH",
"378 40 OFFCURVE",
"377 26 OFFCURVE",
"380 20 CURVE SMOOTH",
"385 9 OFFCURVE",
"418 -13 OFFCURVE",
"429 -13 CURVE SMOOTH"
);
}
);
width = 583;
},
{
anchors = (
{
name = top;
position = "{289, 524}";
}
);
layerId = "63F4CE79-9D5F-46D3-B41C-385689F27F0A";
paths = (
{
closed = 1;
nodes = (
"310 -13 OFFCURVE",
"366 6 OFFCURVE",
"404 41 CURVE SMOOTH",
"413 49 OFFCURVE",
"416 55 OFFCURVE",
"416 67 CURVE SMOOTH",
"416 85 OFFCURVE",
"412 105 OFFCURVE",
"403 105 CURVE SMOOTH",
"399 105 OFFCURVE",
"395 103 OFFCURVE",
"384 99 CURVE SMOOTH",
"371 94 OFFCURVE",
"336 87 OFFCURVE",
"316 87 CURVE SMOOTH",
"262 87 OFFCURVE",
"237 109 OFFCURVE",
"237 208 CURVE SMOOTH",
"237 366 OFFCURVE",
"269 430 OFFCURVE",
"301 430 CURVE SMOOTH",
"333 430 OFFCURVE",
"360 409 OFFCURVE",
"383 398 CURVE SMOOTH",
"390 395 OFFCURVE",
"397 393 OFFCURVE",
"404 393 CURVE SMOOTH",
"423 393 OFFCURVE",
"429 445 OFFCURVE",
"429 464 CURVE SMOOTH",
"429 480 OFFCURVE",
"425 493 OFFCURVE",
"408 500 CURVE SMOOTH",
"378 512 OFFCURVE",
"334 524 OFFCURVE",
"276 524 CURVE SMOOTH",
"131 524 OFFCURVE",
"35 441 OFFCURVE",
"35 219 CURVE SMOOTH",
"35 8 OFFCURVE",
"147 -13 OFFCURVE",
"267 -13 CURVE SMOOTH"
);
},
{
closed = 1;
nodes = (
"546 -14 OFFCURVE",
"643 103 OFFCURVE",
"665 136 CURVE SMOOTH",
"672 146 OFFCURVE",
"676 156 OFFCURVE",
"676 166 CURVE SMOOTH",
"676 186 OFFCURVE",
"659 210 OFFCURVE",
"648 210 CURVE SMOOTH",
"644 210 OFFCURVE",
"642 208 OFFCURVE",
"636 200 CURVE",
"629 191 OFFCURVE",
"610 167 OFFCURVE",
"602 167 CURVE SMOOTH",
"594 167 OFFCURVE",
"591 172 OFFCURVE",
"591 225 CURVE SMOOTH",
"591 241 OFFCURVE",
"609 420 OFFCURVE",
"609 432 CURVE SMOOTH",
"609 493 OFFCURVE",
"506 523 OFFCURVE",
"425 523 CURVE SMOOTH",
"399 523 OFFCURVE",
"392 515 OFFCURVE",
"392 496 CURVE SMOOTH",
"392 485 OFFCURVE",
"371 129 OFFCURVE",
"371 111 CURVE SMOOTH",
"371 86 OFFCURVE",
"373 75 OFFCURVE",
"374 68 CURVE SMOOTH",
"381 17 OFFCURVE",
"484 -14 OFFCURVE",
"502 -14 CURVE SMOOTH"
);
}
);
width = 629;
}
);
leftMetricsKey = c;
rightMetricsKey = i;
unicode = 0251;
},
{
color = 4;
glyphname = aogonek;
lastChange = "2022-09-23 14:50:00 +0000";
layers = (
{
layerId = "220B7CD1-1E4F-4884-BA06-A44A5DCE8B14";
paths = (
{
closed = 1;
nodes = (
"205 -13 OFFCURVE",
"379 210 OFFCURVE",
"451 355 CURVE",
"445 262 OFFCURVE",
"438 121 OFFCURVE",
"438 63 CURVE SMOOTH",
"438 40 OFFCURVE",
"438 26 OFFCURVE",
"441 20 CURVE SMOOTH",
"446 9 OFFCURVE",
"480 -13 OFFCURVE",
"491 -13 CURVE SMOOTH",
"533 -13 OFFCURVE",
"618 88 OFFCURVE",
"651 131 CURVE SMOOTH",
"653 133 OFFCURVE",
"654 137 OFFCURVE",
"654 141 CURVE SMOOTH",
"654 154 OFFCURVE",
"644 170 OFFCURVE",
"640 170 CURVE SMOOTH",
"637 170 OFFCURVE",
"636 167 OFFCURVE",
"633 164 CURVE",
"612 136 OFFCURVE",
"530 41 OFFCURVE",
"511 41 CURVE SMOOTH",
"499 41 OFFCURVE",
"495 48 OFFCURVE",
"495 89 CURVE SMOOTH",
"495 237 OFFCURVE",
"511 451 OFFCURVE",
"511 460 CURVE",
"516 460 OFFCURVE",
"523 472 OFFCURVE",
"523 490 CURVE SMOOTH",
"523 495 OFFCURVE",
"520 496 OFFCURVE",
"519 496 CURVE SMOOTH",
"442 513 OFFCURVE",
"338 524 OFFCURVE",
"320 524 CURVE SMOOTH",
"253 524 OFFCURVE",
"191 484 OFFCURVE",
"142 417 CURVE SMOOTH",
"91 348 OFFCURVE",
"88 141 OFFCURVE",
"88 63 CURVE SMOOTH",
"88 40 OFFCURVE",
"89 26 OFFCURVE",
"92 20 CURVE SMOOTH",
"97 9 OFFCURVE",
"131 -13 OFFCURVE",
"142 -13 CURVE SMOOTH"
);
},
{
closed = 1;
nodes = (
"538 -188 OFFCURVE",
"603 -137 OFFCURVE",
"636 -94 CURVE SMOOTH",
"638 -92 OFFCURVE",
"639 -88 OFFCURVE",
"639 -84 CURVE SMOOTH",
"639 -71 OFFCURVE",
"629 -55 OFFCURVE",
"625 -55 CURVE SMOOTH",
"622 -55 OFFCURVE",
"621 -58 OFFCURVE",
"618 -61 CURVE",
"597 -89 OFFCURVE",
"535 -134 OFFCURVE",
"516 -134 CURVE SMOOTH",
"504 -134 OFFCURVE",
"500 -127 OFFCURVE",
"500 -99 CURVE SMOOTH",
"500 -40 OFFCURVE",
"603 69 OFFCURVE",
"603 78 CURVE",
"509 32 OFFCURVE",
"443 -54 OFFCURVE",
"443 -112 CURVE SMOOTH",
"443 -135 OFFCURVE",
"443 -149 OFFCURVE",
"446 -155 CURVE SMOOTH",
"451 -166 OFFCURVE",
"485 -188 OFFCURVE",
"496 -188 CURVE SMOOTH"
);
},
{
closed = 1;
nodes = (
"149 41 OFFCURVE",
"145 48 OFFCURVE",
"145 89 CURVE SMOOTH",
"145 339 OFFCURVE",
"199 481 OFFCURVE",
"282 481 CURVE SMOOTH",
"320 481 OFFCURVE",
"377 476 OFFCURVE",
"460 460 CURVE",
"418 319 OFFCURVE",
"194 41 OFFCURVE",
"161 41 CURVE SMOOTH"
);
}
);
width = 645;
},
{
layerId = "63F4CE79-9D5F-46D3-B41C-385689F27F0A";
paths = (
{
closed = 1;
nodes = (
"205 -13 OFFCURVE",
"379 210 OFFCURVE",
"451 355 CURVE",
"445 262 OFFCURVE",
"438 121 OFFCURVE",
"438 63 CURVE SMOOTH",
"438 40 OFFCURVE",
"438 26 OFFCURVE",
"441 20 CURVE SMOOTH",
"446 9 OFFCURVE",
"480 -13 OFFCURVE",
"491 -13 CURVE SMOOTH",
"533 -13 OFFCURVE",
"618 88 OFFCURVE",
"651 131 CURVE SMOOTH",
"653 133 OFFCURVE",
"654 137 OFFCURVE",
"654 141 CURVE SMOOTH",
"654 154 OFFCURVE",
"644 170 OFFCURVE",
"640 170 CURVE SMOOTH",
"637 170 OFFCURVE",
"636 167 OFFCURVE",
"633 164 CURVE",
"612 136 OFFCURVE",
"530 41 OFFCURVE",
"511 41 CURVE SMOOTH",
"499 41 OFFCURVE",
"495 48 OFFCURVE",
"495 89 CURVE SMOOTH",
"495 237 OFFCURVE",
"511 451 OFFCURVE",
"511 460 CURVE",
"516 460 OFFCURVE",
"523 472 OFFCURVE",
"523 490 CURVE SMOOTH",
"523 495 OFFCURVE",
"520 496 OFFCURVE",
"519 496 CURVE SMOOTH",
"442 513 OFFCURVE",
"338 524 OFFCURVE",
"320 524 CURVE SMOOTH",
"253 524 OFFCURVE",
"191 484 OFFCURVE",
"142 417 CURVE SMOOTH",
"91 348 OFFCURVE",
"88 141 OFFCURVE",
"88 63 CURVE SMOOTH",
"88 40 OFFCURVE",
"89 26 OFFCURVE",
"92 20 CURVE SMOOTH",
"97 9 OFFCURVE",
"131 -13 OFFCURVE",
"142 -13 CURVE SMOOTH"
);
},
{
closed = 1;
nodes = (
"538 -188 OFFCURVE",
"603 -137 OFFCURVE",
"636 -94 CURVE SMOOTH",
"638 -92 OFFCURVE",
"639 -88 OFFCURVE",
"639 -84 CURVE SMOOTH",
"639 -71 OFFCURVE",
"629 -55 OFFCURVE",
"625 -55 CURVE SMOOTH",
"622 -55 OFFCURVE",
"621 -58 OFFCURVE",
"618 -61 CURVE",
"597 -89 OFFCURVE",
"535 -134 OFFCURVE",
"516 -134 CURVE SMOOTH",
"504 -134 OFFCURVE",
"500 -127 OFFCURVE",
"500 -99 CURVE SMOOTH",
"500 -40 OFFCURVE",
"603 69 OFFCURVE",
"603 78 CURVE",
"509 32 OFFCURVE",
"443 -54 OFFCURVE",
"443 -112 CURVE SMOOTH",
"443 -135 OFFCURVE",
"443 -149 OFFCURVE",
"446 -155 CURVE SMOOTH",
"451 -166 OFFCURVE",
"485 -188 OFFCURVE",
"496 -188 CURVE SMOOTH"
);
},
{
closed = 1;
nodes = (
"149 41 OFFCURVE",
"145 48 OFFCURVE",
"145 89 CURVE SMOOTH",
"145 339 OFFCURVE",
"199 481 OFFCURVE",
"282 481 CURVE SMOOTH",
"320 481 OFFCURVE",
"377 476 OFFCURVE",
"460 460 CURVE",
"418 319 OFFCURVE",
"194 41 OFFCURVE",
"161 41 CURVE SMOOTH"
);
}
);
width = 645;
}
);
unicode = 0105;
},
{
color = 5;
glyphname = atilde;
lastChange = "2022-09-24 02:12:20 +0000";
layers = (
{
background = {
paths = (
{
closed = 1;
nodes = (
"205 -13 OFFCURVE",
"379 210 OFFCURVE",
"451 355 CURVE",
"445 262 OFFCURVE",
"438 121 OFFCURVE",
"438 63 CURVE SMOOTH",
"438 40 OFFCURVE",
"438 26 OFFCURVE",
"441 20 CURVE SMOOTH",
"446 9 OFFCURVE",
"480 -13 OFFCURVE",
"491 -13 CURVE SMOOTH",
"533 -13 OFFCURVE",
"618 88 OFFCURVE",
"651 131 CURVE SMOOTH",
"653 133 OFFCURVE",
"654 137 OFFCURVE",
"654 141 CURVE SMOOTH",
"654 154 OFFCURVE",
"644 170 OFFCURVE",
"640 170 CURVE SMOOTH",
"637 170 OFFCURVE",
"636 167 OFFCURVE",
"633 164 CURVE",
"612 136 OFFCURVE",
"530 41 OFFCURVE",
"511 41 CURVE SMOOTH",
"499 41 OFFCURVE",
"495 48 OFFCURVE",
"495 89 CURVE SMOOTH",
"495 237 OFFCURVE",
"511 451 OFFCURVE",
"511 460 CURVE",
"516 460 OFFCURVE",
"523 472 OFFCURVE",
"523 490 CURVE SMOOTH",
"523 495 OFFCURVE",
"520 496 OFFCURVE",
"519 496 CURVE SMOOTH",
"442 513 OFFCURVE",
"338 524 OFFCURVE",
"320 524 CURVE SMOOTH",
"253 524 OFFCURVE",
"191 484 OFFCURVE",
"142 417 CURVE SMOOTH",
"91 348 OFFCURVE",
"88 141 OFFCURVE",
"88 63 CURVE SMOOTH",
"88 40 OFFCURVE",
"89 26 OFFCURVE",
"92 20 CURVE SMOOTH",
"97 9 OFFCURVE",
"131 -13 OFFCURVE",
"142 -13 CURVE SMOOTH"
);
},
{
closed = 1;
nodes = (
"149 41 OFFCURVE",
"145 48 OFFCURVE",
"145 89 CURVE SMOOTH",
"145 339 OFFCURVE",
"199 481 OFFCURVE",
"282 481 CURVE SMOOTH",
"320 481 OFFCURVE",
"377 476 OFFCURVE",
"460 460 CURVE",
"418 319 OFFCURVE",
"194 41 OFFCURVE",
"161 41 CURVE SMOOTH"
);
},
{
closed = 1;
nodes = (
"453 626 OFFCURVE",
"466 631 OFFCURVE",
"481 654 CURVE SMOOTH",
"492 671 OFFCURVE",
"505 712 OFFCURVE",
"505 737 CURVE SMOOTH",
"505 742 OFFCURVE",
"495 746 OFFCURVE",
"486 746 CURVE SMOOTH",
"482 746 OFFCURVE",
"481 744 OFFCURVE",
"480 739 CURVE SMOOTH",
"468 691 OFFCURVE",
"460 675 OFFCURVE",
"439 675 CURVE SMOOTH",
"409 675 OFFCURVE",
"287 756 OFFCURVE",
"253 756 CURVE SMOOTH",
"232 756 OFFCURVE",
"218 751 OFFCURVE",
"204 728 CURVE SMOOTH",
"193 710 OFFCURVE",
"180 670 OFFCURVE",
"180 645 CURVE SMOOTH",
"180 640 OFFCURVE",
"190 636 OFFCURVE",
"199 636 CURVE SMOOTH",
"203 636 OFFCURVE",
"204 637 OFFCURVE",
"205 642 CURVE SMOOTH",
"217 690 OFFCURVE",
"225 707 OFFCURVE",
"245 707 CURVE SMOOTH",
"276 707 OFFCURVE",
"398 626 OFFCURVE",
"432 626 CURVE SMOOTH"
);
}
);
};
components = (
{
name = a;
},
{
name = tildecomb;
transform = "{1, 0, 0, 1, 176, 0}";
}
);
layerId = "220B7CD1-1E4F-4884-BA06-A44A5DCE8B14";
width = 645;
},
{
components = (
{
name = a;
},
{
name = tildecomb;
transform = "{1, 0, 0, 1, 207, 0}";
}
);
layerId = "63F4CE79-9D5F-46D3-B41C-385689F27F0A";
width = 686;
}
);
note = atilde;
unicode = 00E3;
},
{
color = 1;
glyphname = ae;
lastChange = "2022-09-24 01:17:27 +0000";
layers = (
{
anchors = (
{
name = bottom;
position = "{387, 0}";
},
{
name = top;
position = "{501, 524}";
}
);
layerId = "220B7CD1-1E4F-4884-BA06-A44A5DCE8B14";
paths = (
{
closed = 1;
nodes = (
"204 -13 OFFCURVE",
"365 200 OFFCURVE",
"407 277 CURVE",
"406 271 OFFCURVE",
"404 236 OFFCURVE",
"404 222 CURVE SMOOTH",
"404 53 OFFCURVE",
"480 -13 OFFCURVE",
"578 -13 CURVE SMOOTH",
"652 -13 OFFCURVE",
"709 16 OFFCURVE",
"752 62 CURVE SMOOTH",
"758 68 OFFCURVE",
"759 71 OFFCURVE",
"759 77 CURVE SMOOTH",
"759 89 OFFCURVE",
"753 103 OFFCURVE",
"747 103 CURVE SMOOTH",
"743 103 OFFCURVE",
"741 101 OFFCURVE",
"728 88 CURVE SMOOTH",
"708 69 OFFCURVE",
"660 30 OFFCURVE",
"599 30 CURVE SMOOTH",
"504 30 OFFCURVE",
"465 112 OFFCURVE",
"465 227 CURVE SMOOTH",
"465 246 OFFCURVE",
"465 275 OFFCURVE",
"466 282 CURVE",
"492 276 OFFCURVE",
"533 271 OFFCURVE",
"574 271 CURVE SMOOTH",
"656 271 OFFCURVE",
"757 311 OFFCURVE",
"757 413 CURVE SMOOTH",
"757 472 OFFCURVE",
"719 524 OFFCURVE",
"621 524 CURVE SMOOTH",
"581 524 OFFCURVE",
"542 514 OFFCURVE",
"516 496 CURVE",
"446 513 OFFCURVE",
"338 524 OFFCURVE",
"320 524 CURVE SMOOTH",
"253 524 OFFCURVE",
"191 484 OFFCURVE",
"142 417 CURVE SMOOTH",
"91 348 OFFCURVE",
"88 141 OFFCURVE",
"88 63 CURVE SMOOTH",
"88 40 OFFCURVE",
"89 26 OFFCURVE",
"92 20 CURVE SMOOTH",
"97 9 OFFCURVE",
"131 -13 OFFCURVE",
"142 -13 CURVE SMOOTH"
);
},
{
closed = 1;
nodes = (
"149 42 OFFCURVE",
"145 48 OFFCURVE",
"145 89 CURVE SMOOTH",
"145 339 OFFCURVE",
"199 481 OFFCURVE",
"282 481 CURVE SMOOTH",
"320 481 OFFCURVE",
"377 476 OFFCURVE",
"460 460 CURVE",
"418 319 OFFCURVE",
"194 42 OFFCURVE",
"161 42 CURVE SMOOTH"
);
},
{
closed = 1;
nodes = (
"527 310 OFFCURVE",
"483 325 OFFCURVE",
"478 333 CURVE",
"497 441 OFFCURVE",
"550 492 OFFCURVE",
"609 492 CURVE SMOOTH",
"668 492 OFFCURVE",
"693 456 OFFCURVE",
"693 416 CURVE SMOOTH",
"693 348 OFFCURVE",
"650 310 OFFCURVE",
"573 310 CURVE SMOOTH"
);
}
);
width = 803;
},
{
anchors = (
{
name = bottom;
position = "{387, 0}";
},
{
name = top;
position = "{501, 524}";
}
);
layerId = "63F4CE79-9D5F-46D3-B41C-385689F27F0A";
paths = (
{
closed = 1;
nodes = (
"228 -13 OFFCURVE",
"370 160 OFFCURVE",
"386 224 CURVE",
"386 206 OFFCURVE",
"386 190 OFFCURVE",
"388 174 CURVE SMOOTH",
"403 19 OFFCURVE",
"490 -13 OFFCURVE",
"598 -13 CURVE SMOOTH",
"659 -13 OFFCURVE",
"730 16 OFFCURVE",
"774 60 CURVE SMOOTH",
"786 72 OFFCURVE",
"789 82 OFFCURVE",
"789 88 CURVE SMOOTH",
"789 111 OFFCURVE",
"785 129 OFFCURVE",
"776 129 CURVE SMOOTH",
"772 129 OFFCURVE",
"765 125 OFFCURVE",
"755 119 CURVE SMOOTH",
"730 104 OFFCURVE",
"692 87 OFFCURVE",
"664 87 CURVE SMOOTH",
"613 87 OFFCURVE",
"568 110 OFFCURVE",
"568 207 CURVE SMOOTH",
"568 217 OFFCURVE",
"568 228 OFFCURVE",
"568 239 CURVE",
"578 239 OFFCURVE",
"588 239 OFFCURVE",
"598 239 CURVE SMOOTH",
"701 239 OFFCURVE",
"822 285 OFFCURVE",
"822 392 CURVE SMOOTH",
"822 487 OFFCURVE",
"757 524 OFFCURVE",
"607 524 CURVE SMOOTH",
"574 524 OFFCURVE",
"541 516 OFFCURVE",
"513 507 CURVE",
"449 518 OFFCURVE",
"363 524 OFFCURVE",
"302 524 CURVE SMOOTH",
"201 524 OFFCURVE",
"146 482 OFFCURVE",
"98 417 CURVE SMOOTH",
"47 348 OFFCURVE",
"44 142 OFFCURVE",
"44 112 CURVE SMOOTH",
"44 97 OFFCURVE",
"45 84 OFFCURVE",
"47 69 CURVE SMOOTH",
"54 18 OFFCURVE",
"157 -13 OFFCURVE",
"175 -13 CURVE SMOOTH"
);
},
{
closed = 1;
nodes = (
"267 168 OFFCURVE",
"264 173 OFFCURVE",
"264 226 CURVE SMOOTH",
"264 369 OFFCURVE",
"286 455 OFFCURVE",
"341 455 CURVE SMOOTH",
"358 455 OFFCURVE",
"378 453 OFFCURVE",
"395 447 CURVE",
"395 298 OFFCURVE",
"292 168 OFFCURVE",
"275 168 CURVE SMOOTH"
);
},
{
closed = 1;
nodes = (
"580 289 OFFCURVE",
"572 289 OFFCURVE",
"569 289 CURVE",
"574 425 OFFCURVE",
"602 454 OFFCURVE",
"632 454 CURVE SMOOTH",
"651 454 OFFCURVE",
"666 434 OFFCURVE",
"666 401 CURVE SMOOTH",
"666 315 OFFCURVE",
"631 296 OFFCURVE",
"595 291 CURVE SMOOTH"
);
}
);
width = 803;
}
);
note = ae;
unicode = 00E6;
},
{
color = 1;
glyphname = b;
lastChange = "2022-09-24 02:26:54 +0000";
layers = (
{
anchors = (
{
name = bottom;
position = "{301, 0}";
},
{
name = cross;
position = "{208, 639}";
},
{
name = top;
position = "{371, 638}";
}
);
layerId = "220B7CD1-1E4F-4884-BA06-A44A5DCE8B14";
paths = (
{
closed = 1;
nodes = (
"374 -13 OFFCURVE",
"434 28 OFFCURVE",
"480 94 CURVE SMOOTH",
"511 139 OFFCURVE",
"519 255 OFFCURVE",
"519 333 CURVE SMOOTH",
"519 438 OFFCURVE",
"516 481 OFFCURVE",
"510 491 CURVE SMOOTH",
"503 503 OFFCURVE",
"470 524 OFFCURVE",
"458 524 CURVE SMOOTH",
"395 524 OFFCURVE",
"234 311 OFFCURVE",
"169 166 CURVE",
"178 282 OFFCURVE",
"207 688 OFFCURVE",
"208 729 CURVE SMOOTH",
"208 747 OFFCURVE",
"180 756 OFFCURVE",
"159 756 CURVE SMOOTH",
"151 756 OFFCURVE",
"150 753 OFFCURVE",
"150 748 CURVE SMOOTH",
"146 593 OFFCURVE",
"120 205 OFFCURVE",
"110 52 CURVE",
"105 52 OFFCURVE",
"98 39 OFFCURVE",
"98 21 CURVE SMOOTH",
"98 16 OFFCURVE",
"101 15 OFFCURVE",
"102 15 CURVE SMOOTH",
"178 -1 OFFCURVE",
"280 -13 OFFCURVE",
"307 -13 CURVE SMOOTH"
);
},
{
closed = 1;
nodes = (
"305 30 OFFCURVE",
"248 35 OFFCURVE",
"164 52 CURVE",
"199 193 OFFCURVE",
"409 470 OFFCURVE",
"442 470 CURVE SMOOTH",
"462 470 OFFCURVE",
"463 438 OFFCURVE",
"463 341 CURVE SMOOTH",
"463 142 OFFCURVE",
"417 30 OFFCURVE",
"343 30 CURVE SMOOTH"
);
}
);
width = 602;
},
{
anchors = (
{
name = bottom;
position = "{321, 0}";
},
{
name = cross;
position = "{215, 639}";
},
{
name = top;
position = "{501, 638}";
}
);
layerId = "63F4CE79-9D5F-46D3-B41C-385689F27F0A";
paths = (
{
closed = 1;
nodes = (
"467 -13 OFFCURVE",
"520 16 OFFCURVE",
"579 94 CURVE SMOOTH",
"631 163 OFFCURVE",
"626 369 OFFCURVE",
"626 398 CURVE SMOOTH",
"626 414 OFFCURVE",
"625 427 OFFCURVE",
"623 442 CURVE SMOOTH",
"616 493 OFFCURVE",
"513 524 OFFCURVE",
"495 524 CURVE SMOOTH",
"442 524 OFFCURVE",
"288 340 OFFCURVE",
"281 275 CURVE",
"281 311 OFFCURVE",
"312 652 OFFCURVE",
"312 665 CURVE SMOOTH",
"312 726 OFFCURVE",
"209 756 OFFCURVE",
"128 756 CURVE SMOOTH",
"102 756 OFFCURVE",
"95 748 OFFCURVE",
"95 729 CURVE SMOOTH",
"95 718 OFFCURVE",
"58 161 OFFCURVE",
"58 78 CURVE",
"53 78 OFFCURVE",
"42 56 OFFCURVE",
"42 29 CURVE SMOOTH",
"42 17 OFFCURVE",
"45 16 OFFCURVE",
"50 15 CURVE",
"204 -8 OFFCURVE",
"285 -13 OFFCURVE",
"368 -13 CURVE SMOOTH"
);
},
{
closed = 1;
nodes = (
"312 55 OFFCURVE",
"292 57 OFFCURVE",
"275 63 CURVE",
"275 212 OFFCURVE",
"378 342 OFFCURVE",
"395 342 CURVE SMOOTH",
"403 342 OFFCURVE",
"406 337 OFFCURVE",
"406 285 CURVE SMOOTH",
"406 141 OFFCURVE",
"384 55 OFFCURVE",
"329 55 CURVE SMOOTH"
);
}
);
width = 602;
}
);
note = b;
unicode = 0062;
},
{
color = 1;
glyphname = bstroke;
lastChange = "2022-09-24 02:27:19 +0000";
layers = (
{
background = {
paths = (
{
closed = 1;
nodes = (
"374 -13 OFFCURVE",
"434 28 OFFCURVE",
"480 94 CURVE SMOOTH",
"511 139 OFFCURVE",
"519 255 OFFCURVE",
"519 333 CURVE SMOOTH",
"519 438 OFFCURVE",
"516 481 OFFCURVE",
"510 491 CURVE SMOOTH",
"503 503 OFFCURVE",
"470 524 OFFCURVE",
"458 524 CURVE SMOOTH",
"395 524 OFFCURVE",
"234 311 OFFCURVE",
"169 166 CURVE",
"178 282 OFFCURVE",
"207 688 OFFCURVE",
"208 729 CURVE SMOOTH",
"208 747 OFFCURVE",
"180 756 OFFCURVE",
"159 756 CURVE SMOOTH",
"151 756 OFFCURVE",
"150 753 OFFCURVE",
"150 748 CURVE SMOOTH",
"146 593 OFFCURVE",
"120 205 OFFCURVE",
"110 52 CURVE",
"105 52 OFFCURVE",
"98 39 OFFCURVE",
"98 21 CURVE SMOOTH",
"98 16 OFFCURVE",
"101 15 OFFCURVE",
"102 15 CURVE SMOOTH",
"178 -1 OFFCURVE",
"280 -13 OFFCURVE",
"307 -13 CURVE SMOOTH"
);
},
{
closed = 1;
nodes = (
"305 30 OFFCURVE",
"248 35 OFFCURVE",
"164 52 CURVE",
"199 193 OFFCURVE",
"409 470 OFFCURVE",
"442 470 CURVE SMOOTH",
"462 470 OFFCURVE",
"463 438 OFFCURVE",
"463 341 CURVE SMOOTH",
"463 142 OFFCURVE",
"417 30 OFFCURVE",
"343 30 CURVE SMOOTH"
);
},
{
closed = 1;
nodes = (
"322 626 LINE",
"339 626 OFFCURVE",
"345 647 OFFCURVE",
"345 664 CURVE SMOOTH",
"345 670 OFFCURVE",
"342 672 OFFCURVE",
"337 672 CURVE",
"95 672 LINE",
"79 672 OFFCURVE",
"73 651 OFFCURVE",
"73 634 CURVE SMOOTH",
"73 627 OFFCURVE",
"75 626 OFFCURVE",
"80 626 CURVE"
);
}
);
};
components = (
{
name = b;
},
{
name = asc.cross_part.;
transform = "{1, 0, 0, 1, 19, 0}";
}
);
layerId = "220B7CD1-1E4F-4884-BA06-A44A5DCE8B14";
width = 602;
},
{
components = (
{
name = b;
},
{
name = asc.cross_part.;
transform = "{1, 0, 0, 1, 26, 0}";
}
);
layerId = "63F4CE79-9D5F-46D3-B41C-385689F27F0A";
width = 602;
}
);
unicode = 0180;
},
{
color = 1;
glyphname = c;
lastChange = "2022-09-23 14:51:22 +0000";
layers = (
{
anchors = (
{
name = bottom;
position = "{230, 0}";
},
{
name = top;
position = "{285, 524}";
}
);
layerId = "220B7CD1-1E4F-4884-BA06-A44A5DCE8B14";
paths = (
{
closed = 1;
nodes = (
"311 -13 OFFCURVE",
"368 16 OFFCURVE",
"411 62 CURVE SMOOTH",
"417 68 OFFCURVE",
"418 71 OFFCURVE",
"418 77 CURVE SMOOTH",
"418 89 OFFCURVE",
"412 103 OFFCURVE",
"406 103 CURVE SMOOTH",
"402 103 OFFCURVE",
"400 100 OFFCURVE",
"387 88 CURVE SMOOTH",
"366 69 OFFCURVE",
"319 30 OFFCURVE",
"258 30 CURVE SMOOTH",
"168 30 OFFCURVE",
"125 112 OFFCURVE",
"125 227 CURVE SMOOTH",
"125 387 OFFCURVE",
"188 489 OFFCURVE",
"258 489 CURVE SMOOTH",
"301 489 OFFCURVE",
"331 478 OFFCURVE",
"364 440 CURVE SMOOTH",
"373 430 OFFCURVE",
"377 426 OFFCURVE",
"385 426 CURVE SMOOTH",
"394 426 OFFCURVE",
"402 448 OFFCURVE",
"402 464 CURVE SMOOTH",
"402 472 OFFCURVE",
"398 480 OFFCURVE",
"388 489 CURVE SMOOTH",
"360 514 OFFCURVE",
"331 524 OFFCURVE",
"270 524 CURVE SMOOTH",
"179 524 OFFCURVE",
"63 450 OFFCURVE",
"63 222 CURVE SMOOTH",
"63 53 OFFCURVE",
"139 -13 OFFCURVE",
"237 -13 CURVE SMOOTH"
);
}
);
width = 409;
},
{
anchors = (
{
name = bottom;
position = "{237, 0}";
},
{
name = top;
position = "{289, 524}";
}
);
layerId = "63F4CE79-9D5F-46D3-B41C-385689F27F0A";
paths = (
{
closed = 1;
nodes = (
"310 -13 OFFCURVE",
"366 6 OFFCURVE",
"404 41 CURVE SMOOTH",
"413 49 OFFCURVE",
"416 55 OFFCURVE",
"416 67 CURVE SMOOTH",
"416 85 OFFCURVE",
"412 105 OFFCURVE",
"403 105 CURVE SMOOTH",
"399 105 OFFCURVE",
"395 103 OFFCURVE",
"384 99 CURVE SMOOTH",
"371 94 OFFCURVE",
"336 87 OFFCURVE",
"316 87 CURVE SMOOTH",
"262 87 OFFCURVE",
"237 109 OFFCURVE",
"237 208 CURVE SMOOTH",
"237 366 OFFCURVE",
"269 430 OFFCURVE",
"301 430 CURVE SMOOTH",
"333 430 OFFCURVE",
"360 409 OFFCURVE",
"383 398 CURVE SMOOTH",
"390 395 OFFCURVE",
"397 393 OFFCURVE",
"404 393 CURVE SMOOTH",
"423 393 OFFCURVE",
"429 445 OFFCURVE",
"429 464 CURVE SMOOTH",
"429 480 OFFCURVE",
"425 493 OFFCURVE",
"408 500 CURVE SMOOTH",
"378 512 OFFCURVE",
"334 524 OFFCURVE",
"276 524 CURVE SMOOTH",
"131 524 OFFCURVE",
"35 441 OFFCURVE",
"35 219 CURVE SMOOTH",
"35 8 OFFCURVE",
"147 -13 OFFCURVE",
"267 -13 CURVE SMOOTH"
);
}
);
width = 409;
}
);
note = c;
unicode = 0063;
},
{
color = 5;
glyphname = ccedilla;
lastChange = "2022-09-23 14:51:17 +0000";
layers = (
{
background = {
paths = (
{
closed = 1;
nodes = (
"402 472 OFFCURVE",
"398 480 OFFCURVE",
"388 489 CURVE SMOOTH",
"360 514 OFFCURVE",
"331 524 OFFCURVE",
"270 524 CURVE SMOOTH",
"179 524 OFFCURVE",
"63 450 OFFCURVE",
"63 222 CURVE SMOOTH",
"63 53 OFFCURVE",
"139 -13 OFFCURVE",
"237 -13 CURVE SMOOTH",
"311 -13 OFFCURVE",
"368 16 OFFCURVE",
"411 62 CURVE SMOOTH",
"417 68 OFFCURVE",
"418 71 OFFCURVE",
"418 77 CURVE SMOOTH",
"418 89 OFFCURVE",
"412 103 OFFCURVE",
"406 103 CURVE SMOOTH",
"402 103 OFFCURVE",
"400 100 OFFCURVE",
"387 88 CURVE SMOOTH",
"366 69 OFFCURVE",
"319 30 OFFCURVE",
"258 30 CURVE SMOOTH",
"168 30 OFFCURVE",
"125 112 OFFCURVE",
"125 227 CURVE SMOOTH",
"125 387 OFFCURVE",
"188 489 OFFCURVE",
"258 489 CURVE SMOOTH",
"301 489 OFFCURVE",
"331 478 OFFCURVE",
"364 440 CURVE SMOOTH",
"373 430 OFFCURVE",
"377 426 OFFCURVE",
"385 426 CURVE SMOOTH",
"394 426 OFFCURVE",
"402 448 OFFCURVE",
"402 464 CURVE SMOOTH"
);
},
{
closed = 1;
nodes = (
"318 -70 OFFCURVE",
"291 -57 OFFCURVE",
"246 -57 CURVE SMOOTH",
"239 -57 LINE SMOOTH",
"234 -57 OFFCURVE",
"232 -56 OFFCURVE",
"232 -53 CURVE SMOOTH",
"232 -48 OFFCURVE",
"238 -42 OFFCURVE",
"238 -40 CURVE SMOOTH",
"238 -36 OFFCURVE",
"232 -35 OFFCURVE",
"228 -35 CURVE SMOOTH",
"217 -35 OFFCURVE",
"203 -57 OFFCURVE",
"203 -79 CURVE SMOOTH",
"203 -93 OFFCURVE",
"207 -101 OFFCURVE",
"217 -101 CURVE SMOOTH",
"225 -101 LINE SMOOTH",
"255 -101 OFFCURVE",
"278 -105 OFFCURVE",
"278 -126 CURVE SMOOTH",
"278 -147 OFFCURVE",
"264 -169 OFFCURVE",
"225 -173 CURVE SMOOTH",
"219 -174 OFFCURVE",
"217 -175 OFFCURVE",
"217 -179 CURVE SMOOTH",
"217 -186 OFFCURVE",
"225 -190 OFFCURVE",
"237 -190 CURVE SMOOTH",
"266 -190 OFFCURVE",
"318 -161 OFFCURVE",
"318 -111 CURVE SMOOTH"
);
}
);
};
components = (
{
name = c;
},
{
name = cedillacomb;
transform = "{1, 0, 0, 1, 196, 0}";
}
);
layerId = "220B7CD1-1E4F-4884-BA06-A44A5DCE8B14";
width = 409;
},
{
background = {
paths = (
{
closed = 1;
nodes = (
"402 472 OFFCURVE",
"398 480 OFFCURVE",
"388 489 CURVE SMOOTH",
"360 514 OFFCURVE",
"331 524 OFFCURVE",
"270 524 CURVE SMOOTH",
"179 524 OFFCURVE",
"63 450 OFFCURVE",
"63 222 CURVE SMOOTH",
"63 53 OFFCURVE",
"139 -13 OFFCURVE",
"237 -13 CURVE SMOOTH",
"311 -13 OFFCURVE",
"368 16 OFFCURVE",
"411 62 CURVE SMOOTH",
"417 68 OFFCURVE",
"418 71 OFFCURVE",
"418 77 CURVE SMOOTH",
"418 89 OFFCURVE",
"412 103 OFFCURVE",
"406 103 CURVE SMOOTH",
"402 103 OFFCURVE",
"400 100 OFFCURVE",
"387 88 CURVE SMOOTH",
"366 69 OFFCURVE",
"319 30 OFFCURVE",
"258 30 CURVE SMOOTH",
"168 30 OFFCURVE",
"125 112 OFFCURVE",
"125 227 CURVE SMOOTH",
"125 387 OFFCURVE",
"188 489 OFFCURVE",
"258 489 CURVE SMOOTH",
"301 489 OFFCURVE",
"331 478 OFFCURVE",
"364 440 CURVE SMOOTH",
"373 430 OFFCURVE",
"377 426 OFFCURVE",
"385 426 CURVE SMOOTH",
"394 426 OFFCURVE",
"402 448 OFFCURVE",
"402 464 CURVE SMOOTH"
);
},
{
closed = 1;
nodes = (
"318 -70 OFFCURVE",
"291 -57 OFFCURVE",
"246 -57 CURVE SMOOTH",
"239 -57 LINE SMOOTH",
"234 -57 OFFCURVE",
"232 -56 OFFCURVE",
"232 -53 CURVE SMOOTH",
"232 -48 OFFCURVE",
"238 -42 OFFCURVE",
"238 -40 CURVE SMOOTH",
"238 -36 OFFCURVE",
"232 -35 OFFCURVE",
"228 -35 CURVE SMOOTH",
"217 -35 OFFCURVE",
"203 -57 OFFCURVE",
"203 -79 CURVE SMOOTH",
"203 -93 OFFCURVE",
"207 -101 OFFCURVE",
"217 -101 CURVE SMOOTH",
"225 -101 LINE SMOOTH",
"255 -101 OFFCURVE",
"278 -105 OFFCURVE",
"278 -126 CURVE SMOOTH",
"278 -147 OFFCURVE",
"264 -169 OFFCURVE",
"225 -173 CURVE SMOOTH",
"219 -174 OFFCURVE",
"217 -175 OFFCURVE",
"217 -179 CURVE SMOOTH",
"217 -186 OFFCURVE",
"225 -190 OFFCURVE",
"237 -190 CURVE SMOOTH",
"266 -190 OFFCURVE",
"318 -161 OFFCURVE",
"318 -111 CURVE SMOOTH"
);
}
);
};
components = (
{
name = c;
},
{
name = cedillacomb;
transform = "{1, 0, 0, 1, 203, 0}";
}
);
layerId = "63F4CE79-9D5F-46D3-B41C-385689F27F0A";
width = 409;
}
);
note = ccedilla;
unicode = 00E7;
},
{
color = 4;
glyphname = d;
lastChange = "2022-09-24 02:22:32 +0000";
layers = (
{
anchors = (
{
name = bottom;
position = "{303, 0}";
},
{
name = center;
position = "{323, 262}";
},
{
name = cross;
position = "{480, 639}";
},
{
name = top;
position = "{281, 638}";
},
{
name = topright;
position = "{638, 630}";
}
);
layerId = "220B7CD1-1E4F-4884-BA06-A44A5DCE8B14";
paths = (
{
closed = 1;
nodes = (
"205 -13 OFFCURVE",
"379 210 OFFCURVE",
"451 355 CURVE",
"445 262 OFFCURVE",
"438 121 OFFCURVE",
"438 63 CURVE SMOOTH",
"438 40 OFFCURVE",
"438 26 OFFCURVE",
"441 20 CURVE SMOOTH",
"446 9 OFFCURVE",
"480 -13 OFFCURVE",
"491 -13 CURVE SMOOTH",
"533 -13 OFFCURVE",
"618 88 OFFCURVE",
"651 131 CURVE SMOOTH",
"653 133 OFFCURVE",
"654 136 OFFCURVE",
"654 141 CURVE SMOOTH",
"654 154 OFFCURVE",
"644 170 OFFCURVE",
"641 170 CURVE SMOOTH",
"637 170 OFFCURVE",
"636 167 OFFCURVE",
"633 164 CURVE",
"612 136 OFFCURVE",
"530 42 OFFCURVE",
"511 42 CURVE SMOOTH",
"499 42 OFFCURVE",
"495 48 OFFCURVE",
"495 89 CURVE SMOOTH",
"495 237 OFFCURVE",
"511 451 OFFCURVE",
"511 460 CURVE",
"516 460 OFFCURVE",
"523 472 OFFCURVE",
"523 490 CURVE SMOOTH",
"523 495 OFFCURVE",
"521 497 OFFCURVE",
"519 497 CURVE SMOOTH",
"515 497 LINE",
"524 632 OFFCURVE",
"530 709 OFFCURVE",
"530 729 CURVE SMOOTH",
"530 747 OFFCURVE",
"503 756 OFFCURVE",
"481 756 CURVE SMOOTH",
"474 756 OFFCURVE",
"472 753 OFFCURVE",
"472 748 CURVE SMOOTH",
"471 655 OFFCURVE",
"469 602 OFFCURVE",
"462 508 CURVE",
"397 518 OFFCURVE",
"334 524 OFFCURVE",
"320 524 CURVE SMOOTH",
"253 524 OFFCURVE",
"191 484 OFFCURVE",
"142 417 CURVE SMOOTH",
"91 348 OFFCURVE",
"88 141 OFFCURVE",
"88 63 CURVE SMOOTH",
"88 40 OFFCURVE",
"89 26 OFFCURVE",
"92 20 CURVE SMOOTH",
"97 9 OFFCURVE",
"131 -13 OFFCURVE",
"142 -13 CURVE SMOOTH"
);
},
{
closed = 1;
nodes = (
"149 42 OFFCURVE",
"145 48 OFFCURVE",
"145 89 CURVE SMOOTH",
"145 339 OFFCURVE",
"199 481 OFFCURVE",
"282 481 CURVE SMOOTH",
"320 481 OFFCURVE",
"377 476 OFFCURVE",
"460 460 CURVE",
"418 319 OFFCURVE",
"194 42 OFFCURVE",
"161 42 CURVE SMOOTH"
);
}
);
width = 645;
},
{
anchors = (
{
name = bottom;
position = "{297, 0}";
},
{
name = center;
position = "{317, 262}";
},
{
name = cross;
position = "{490, 639}";
},
{
name = top;
position = "{275, 638}";
},
{
name = topright;
position = "{632, 630}";
}
);
layerId = "63F4CE79-9D5F-46D3-B41C-385689F27F0A";
paths = (
{
closed = 1;
nodes = (
"222 -13 OFFCURVE",
"364 160 OFFCURVE",
"380 224 CURVE",
"378 200 OFFCURVE",
"375 144 OFFCURVE",
"375 112 CURVE SMOOTH",
"375 97 OFFCURVE",
"376 84 OFFCURVE",
"378 69 CURVE SMOOTH",
"385 18 OFFCURVE",
"488 -13 OFFCURVE",
"506 -13 CURVE SMOOTH",
"550 -13 OFFCURVE",
"647 104 OFFCURVE",
"669 137 CURVE SMOOTH",
"676 147 OFFCURVE",
"680 157 OFFCURVE",
"680 167 CURVE SMOOTH",
"680 187 OFFCURVE",
"663 211 OFFCURVE",
"652 211 CURVE SMOOTH",
"648 211 OFFCURVE",
"646 209 OFFCURVE",
"640 201 CURVE",
"633 192 OFFCURVE",
"614 168 OFFCURVE",
"606 168 CURVE",
"598 168 OFFCURVE",
"595 173 OFFCURVE",
"595 226 CURVE SMOOTH",
"595 263 OFFCURVE",
"605 424 OFFCURVE",
"605 433 CURVE",
"611 433 OFFCURVE",
"622 455 OFFCURVE",
"622 482 CURVE SMOOTH",
"622 494 OFFCURVE",
"619 496 OFFCURVE",
"614 496 CURVE",
"610 496 LINE",
"610 504 OFFCURVE",
"623 659 OFFCURVE",
"623 665 CURVE SMOOTH",
"623 726 OFFCURVE",
"520 756 OFFCURVE",
"440 756 CURVE SMOOTH",
"413 756 OFFCURVE",
"407 748 OFFCURVE",
"407 729 CURVE SMOOTH",
"407 724 OFFCURVE",
"403 653 OFFCURVE",
"393 521 CURVE",
"363 522 OFFCURVE",
"333 524 OFFCURVE",
"296 524 CURVE SMOOTH",
"195 524 OFFCURVE",
"140 482 OFFCURVE",
"92 417 CURVE SMOOTH",
"41 348 OFFCURVE",
"38 142 OFFCURVE",
"38 112 CURVE SMOOTH",
"38 97 OFFCURVE",
"39 84 OFFCURVE",
"41 69 CURVE SMOOTH",
"48 18 OFFCURVE",
"151 -13 OFFCURVE",
"169 -13 CURVE SMOOTH"
);
},
{
closed = 1;
nodes = (
"261 167 OFFCURVE",
"258 172 OFFCURVE",
"258 224 CURVE SMOOTH",
"258 368 OFFCURVE",
"280 454 OFFCURVE",
"335 454 CURVE SMOOTH",
"352 454 OFFCURVE",
"372 452 OFFCURVE",
"389 446 CURVE",
"389 297 OFFCURVE",
"286 167 OFFCURVE",
"269 167 CURVE SMOOTH"
);
}
);
width = 685;
}
);
note = d;
unicode = 0064;
},
{
color = 4;
glyphname = eth;
lastChange = "2022-09-24 01:18:26 +0000";
layers = (
{
layerId = "220B7CD1-1E4F-4884-BA06-A44A5DCE8B14";
paths = (
{
closed = 1;
nodes = (
"419 -13 OFFCURVE",
"499 105 OFFCURVE",
"499 272 CURVE SMOOTH",
"499 428 OFFCURVE",
"453 522 OFFCURVE",
"319 644 CURVE",
"353 663 OFFCURVE",
"416 691 OFFCURVE",
"446 707 CURVE SMOOTH",
"456 712 OFFCURVE",
"458 716 OFFCURVE",
"458 723 CURVE SMOOTH",
"458 736 OFFCURVE",
"451 756 OFFCURVE",
"445 756 CURVE SMOOTH",
"441 756 OFFCURVE",
"434 752 OFFCURVE",
"423 745 CURVE SMOOTH",
"403 732 OFFCURVE",
"318 685 OFFCURVE",
"288 668 CURVE",
"247 702 OFFCURVE",
"199 732 OFFCURVE",
"171 749 CURVE SMOOTH",
"161 755 OFFCURVE",
"159 756 OFFCURVE",
"155 756 CURVE SMOOTH",
"136 756 OFFCURVE",
"101 744 OFFCURVE",
"101 734 CURVE SMOOTH",
"101 732 OFFCURVE",
"103 731 OFFCURVE",
"111 727 CURVE SMOOTH",
"156 705 OFFCURVE",
"204 671 OFFCURVE",
"237 646 CURVE",
"202 627 OFFCURVE",
"153 605 OFFCURVE",
"126 591 CURVE SMOOTH",
"116 586 OFFCURVE",
"114 582 OFFCURVE",
"114 575 CURVE SMOOTH",
"114 567 OFFCURVE",
"121 548 OFFCURVE",
"127 548 CURVE SMOOTH",
"131 548 OFFCURVE",
"138 551 OFFCURVE",
"149 558 CURVE SMOOTH",
"166 569 OFFCURVE",
"231 601 OFFCURVE",
"270 622 CURVE",
"312 592 OFFCURVE",
"355 541 OFFCURVE",
"374 515 CURVE",
"349 523 OFFCURVE",
"317 524 OFFCURVE",
"300 524 CURVE SMOOTH",
"171 524 OFFCURVE",
"63 451 OFFCURVE",
"63 219 CURVE SMOOTH",
"63 40 OFFCURVE",
"146 -13 OFFCURVE",
"262 -13 CURVE SMOOTH"
);
},
{
closed = 1;
nodes = (
"166 23 OFFCURVE",
"123 86 OFFCURVE",
"123 224 CURVE SMOOTH",
"123 395 OFFCURVE",
"184 489 OFFCURVE",
"293 489 CURVE SMOOTH",
"394 489 OFFCURVE",
"437 426 OFFCURVE",
"437 287 CURVE SMOOTH",
"437 116 OFFCURVE",
"377 23 OFFCURVE",
"267 23 CURVE SMOOTH"
);
}
);
width = 562;
},
{
layerId = "63F4CE79-9D5F-46D3-B41C-385689F27F0A";
paths = (
{
closed = 1;
nodes = (
"455 -13 OFFCURVE",
"536 73 OFFCURVE",
"536 297 CURVE SMOOTH",
"536 460 OFFCURVE",
"458 602 OFFCURVE",
"430 636 CURVE",
"455 644 OFFCURVE",
"480 652 OFFCURVE",
"505 660 CURVE SMOOTH",
"518 664 OFFCURVE",
"519 682 OFFCURVE",
"519 692 CURVE SMOOTH",
"519 710 OFFCURVE",
"513 741 OFFCURVE",
"498 741 CURVE SMOOTH",
"494 741 OFFCURVE",
"482 737 OFFCURVE",
"475 735 CURVE SMOOTH",
"469 733 OFFCURVE",
"417 716 OFFCURVE",
"377 702 CURVE",
"359 720 OFFCURVE",
"338 735 OFFCURVE",
"324 744 CURVE SMOOTH",
"310 753 OFFCURVE",
"301 756 OFFCURVE",
"293 756 CURVE SMOOTH",
"215 756 OFFCURVE",
"156 725 OFFCURVE",
"156 710 CURVE SMOOTH",
"156 704 OFFCURVE",
"161 701 OFFCURVE",
"171 692 CURVE SMOOTH",
"180 684 OFFCURVE",
"194 673 OFFCURVE",
"212 653 CURVE",
"192 647 OFFCURVE",
"171 640 OFFCURVE",
"149 633 CURVE SMOOTH",
"136 629 OFFCURVE",
"135 611 OFFCURVE",
"135 601 CURVE SMOOTH",
"135 579 OFFCURVE",
"142 552 OFFCURVE",
"153 552 CURVE SMOOTH",
"159 552 OFFCURVE",
"171 556 OFFCURVE",
"178 558 CURVE SMOOTH",
"207 568 OFFCURVE",
"236 577 OFFCURVE",
"265 587 CURVE",
"276 574 OFFCURVE",
"296 541 OFFCURVE",
"302 524 CURVE",
"296 524 OFFCURVE",
"290 524 OFFCURVE",
"283 524 CURVE SMOOTH",
"126 524 OFFCURVE",
"35 441 OFFCURVE",
"35 219 CURVE SMOOTH",
"35 1 OFFCURVE",
"152 -13 OFFCURVE",
"267 -13 CURVE SMOOTH"
);
},
{
closed = 1;
nodes = (
"239 55 OFFCURVE",
"237 71 OFFCURVE",
"237 205 CURVE SMOOTH",
"237 372 OFFCURVE",
"269 454 OFFCURVE",
"301 454 CURVE SMOOTH",
"332 454 OFFCURVE",
"335 438 OFFCURVE",
"335 303 CURVE SMOOTH",
"335 137 OFFCURVE",
"302 55 OFFCURVE",
"271 55 CURVE SMOOTH"
);
}
);
width = 562;
}
);
note = eth;
unicode = 00F0;
},
{
color = 1;
glyphname = dcroat;
lastChange = "2022-09-24 02:27:19 +0000";
layers = (
{
background = {
paths = (
{
closed = 1;
nodes = (
"205 -13 OFFCURVE",
"379 210 OFFCURVE",
"451 355 CURVE",
"445 262 OFFCURVE",
"438 121 OFFCURVE",
"438 63 CURVE SMOOTH",
"438 40 OFFCURVE",
"438 26 OFFCURVE",
"441 20 CURVE SMOOTH",
"446 9 OFFCURVE",
"480 -13 OFFCURVE",
"491 -13 CURVE SMOOTH",
"533 -13 OFFCURVE",
"618 88 OFFCURVE",
"651 131 CURVE SMOOTH",
"653 133 OFFCURVE",
"654 136 OFFCURVE",
"654 141 CURVE SMOOTH",
"654 154 OFFCURVE",
"644 170 OFFCURVE",
"641 170 CURVE SMOOTH",
"637 170 OFFCURVE",
"636 167 OFFCURVE",
"633 164 CURVE",
"612 136 OFFCURVE",
"530 42 OFFCURVE",
"511 42 CURVE SMOOTH",
"499 42 OFFCURVE",
"495 48 OFFCURVE",
"495 89 CURVE SMOOTH",
"495 237 OFFCURVE",
"511 451 OFFCURVE",
"511 460 CURVE",
"516 460 OFFCURVE",
"523 472 OFFCURVE",
"523 490 CURVE SMOOTH",
"523 495 OFFCURVE",
"521 497 OFFCURVE",
"519 497 CURVE SMOOTH",
"515 497 LINE",
"524 632 OFFCURVE",
"530 709 OFFCURVE",
"530 729 CURVE SMOOTH",
"530 747 OFFCURVE",
"503 756 OFFCURVE",
"481 756 CURVE SMOOTH",
"474 756 OFFCURVE",
"472 753 OFFCURVE",
"472 748 CURVE SMOOTH",
"471 655 OFFCURVE",
"469 602 OFFCURVE",
"462 508 CURVE",
"397 518 OFFCURVE",
"334 524 OFFCURVE",
"320 524 CURVE SMOOTH",
"253 524 OFFCURVE",
"191 484 OFFCURVE",
"142 417 CURVE SMOOTH",
"91 348 OFFCURVE",
"88 141 OFFCURVE",
"88 63 CURVE SMOOTH",
"88 40 OFFCURVE",
"89 26 OFFCURVE",
"92 20 CURVE SMOOTH",
"97 9 OFFCURVE",
"131 -13 OFFCURVE",
"142 -13 CURVE SMOOTH"
);
},
{
closed = 1;
nodes = (
"149 42 OFFCURVE",
"145 48 OFFCURVE",
"145 89 CURVE SMOOTH",
"145 339 OFFCURVE",
"199 481 OFFCURVE",
"282 481 CURVE SMOOTH",
"320 481 OFFCURVE",
"377 476 OFFCURVE",
"460 460 CURVE",
"418 319 OFFCURVE",
"194 42 OFFCURVE",
"161 42 CURVE SMOOTH"
);
},
{
closed = 1;
nodes = (
"588 626 LINE",
"605 626 OFFCURVE",
"611 647 OFFCURVE",
"611 664 CURVE SMOOTH",
"611 670 OFFCURVE",
"608 672 OFFCURVE",
"603 672 CURVE",
"370 672 LINE",
"354 672 OFFCURVE",
"348 651 OFFCURVE",
"348 634 CURVE SMOOTH",
"348 627 OFFCURVE",
"350 626 OFFCURVE",
"355 626 CURVE"
);
}
);
};
components = (
{
name = d;
},
{
name = asc.cross_part.;
transform = "{1, 0, 0, 1, 291, 0}";
}
);
layerId = "220B7CD1-1E4F-4884-BA06-A44A5DCE8B14";
width = 645;
},
{
components = (
{
name = d;
},
{
name = asc.cross_part.;
transform = "{1, 0, 0, 1, 301, 0}";
}
);
layerId = "63F4CE79-9D5F-46D3-B41C-385689F27F0A";
width = 685;
}
);
unicode = 0111;
},
{
color = 1;
glyphname = e;
lastChange = "2022-09-23 15:29:01 +0000";
layers = (
{
anchors = (
{
name = bottom;
position = "{231, 0}";
},
{
name = ogonek;
position = "{368, 0}";
},
{
name = top;
position = "{296, 524}";
}
);
layerId = "220B7CD1-1E4F-4884-BA06-A44A5DCE8B14";
paths = (
{
closed = 1;
nodes = (
"311 -13 OFFCURVE",
"368 16 OFFCURVE",
"411 62 CURVE SMOOTH",
"417 68 OFFCURVE",
"418 71 OFFCURVE",
"418 77 CURVE SMOOTH",
"418 89 OFFCURVE",
"412 103 OFFCURVE",
"406 103 CURVE SMOOTH",
"402 103 OFFCURVE",
"400 100 OFFCURVE",
"387 88 CURVE SMOOTH",
"366 69 OFFCURVE",
"314 30 OFFCURVE",
"253 30 CURVE SMOOTH",
"162 30 OFFCURVE",
"123 112 OFFCURVE",
"123 227 CURVE SMOOTH",
"123 246 OFFCURVE",
"123 275 OFFCURVE",
"125 282 CURVE",
"151 276 OFFCURVE",
"191 271 OFFCURVE",
"233 271 CURVE SMOOTH",
"315 271 OFFCURVE",
"416 311 OFFCURVE",
"416 413 CURVE SMOOTH",
"416 472 OFFCURVE",
"378 524 OFFCURVE",
"280 524 CURVE SMOOTH",
"168 524 OFFCURVE",
"63 450 OFFCURVE",
"63 222 CURVE SMOOTH",
"63 53 OFFCURVE",
"139 -13 OFFCURVE",
"237 -13 CURVE SMOOTH"
);
},
{
closed = 1;
nodes = (
"185 310 OFFCURVE",
"141 325 OFFCURVE",
"136 333 CURVE",
"155 441 OFFCURVE",
"208 492 OFFCURVE",
"267 492 CURVE SMOOTH",
"326 492 OFFCURVE",
"351 456 OFFCURVE",
"351 416 CURVE SMOOTH",
"351 348 OFFCURVE",
"308 310 OFFCURVE",
"231 310 CURVE SMOOTH"
);
}
);
width = 462;
},
{
anchors = (
{
name = bottom;
position = "{231, 0}";
},
{
name = ogonek;
position = "{368, 0}";
},
{
name = top;
position = "{296, 524}";
}
);
layerId = "63F4CE79-9D5F-46D3-B41C-385689F27F0A";
paths = (
{
closed = 1;
nodes = (
"328 -13 OFFCURVE",
"399 16 OFFCURVE",
"443 60 CURVE SMOOTH",
"455 72 OFFCURVE",
"458 82 OFFCURVE",
"458 88 CURVE SMOOTH",
"458 111 OFFCURVE",
"454 129 OFFCURVE",
"445 129 CURVE SMOOTH",
"441 129 OFFCURVE",
"434 125 OFFCURVE",
"424 119 CURVE SMOOTH",
"399 104 OFFCURVE",
"361 87 OFFCURVE",
"333 87 CURVE SMOOTH",
"272 87 OFFCURVE",
"237 103 OFFCURVE",
"237 207 CURVE SMOOTH",
"237 217 OFFCURVE",
"237 228 OFFCURVE",
"237 239 CURVE",
"247 239 OFFCURVE",
"257 239 OFFCURVE",
"267 239 CURVE SMOOTH",
"370 239 OFFCURVE",
"491 285 OFFCURVE",
"491 393 CURVE SMOOTH",
"491 487 OFFCURVE",
"426 524 OFFCURVE",
"276 524 CURVE SMOOTH",
"132 524 OFFCURVE",
"35 441 OFFCURVE",
"35 219 CURVE SMOOTH",
"35 3 OFFCURVE",
"152 -13 OFFCURVE",
"267 -13 CURVE SMOOTH"
);
},
{
closed = 1;
nodes = (
"249 289 OFFCURVE",
"241 289 OFFCURVE",
"238 289 CURVE",
"243 425 OFFCURVE",
"271 454 OFFCURVE",
"301 454 CURVE SMOOTH",
"320 454 OFFCURVE",
"335 434 OFFCURVE",
"335 401 CURVE SMOOTH",
"335 315 OFFCURVE",
"300 296 OFFCURVE",
"264 291 CURVE SMOOTH"
);
}
);
width = 496;
}
);
note = e;
unicode = 0065;
},
{
color = 5;
glyphname = eacute;
lastChange = "2022-09-23 14:53:38 +0000";
layers = (
{
background = {
paths = (
{
closed = 1;
nodes = (
"381 783 OFFCURVE",
"370 806 OFFCURVE",
"358 806 CURVE SMOOTH",
"354 806 OFFCURVE",
"350 805 OFFCURVE",
"345 800 CURVE SMOOTH",
"328 783 OFFCURVE",
"208 673 OFFCURVE",
"195 652 CURVE SMOOTH",
"192 647 OFFCURVE",
"190 641 OFFCURVE",
"190 636 CURVE SMOOTH",
"190 622 OFFCURVE",
"203 610 OFFCURVE",
"205 607 CURVE",
"211 614 OFFCURVE",
"326 722 OFFCURVE",
"378 759 CURVE SMOOTH",
"381 761 OFFCURVE",
"381 766 OFFCURVE",
"381 771 CURVE SMOOTH"
);
},
{
closed = 1;
nodes = (
"416 472 OFFCURVE",
"378 524 OFFCURVE",
"280 524 CURVE SMOOTH",
"168 524 OFFCURVE",
"63 450 OFFCURVE",
"63 222 CURVE SMOOTH",
"63 53 OFFCURVE",
"139 -13 OFFCURVE",
"237 -13 CURVE SMOOTH",
"311 -13 OFFCURVE",
"368 16 OFFCURVE",
"411 62 CURVE SMOOTH",
"417 68 OFFCURVE",
"418 71 OFFCURVE",
"418 77 CURVE SMOOTH",
"418 89 OFFCURVE",
"412 103 OFFCURVE",
"406 103 CURVE SMOOTH",
"402 103 OFFCURVE",
"400 100 OFFCURVE",
"387 88 CURVE SMOOTH",
"366 69 OFFCURVE",
"314 30 OFFCURVE",
"253 30 CURVE SMOOTH",
"162 30 OFFCURVE",
"123 112 OFFCURVE",
"123 227 CURVE SMOOTH",
"123 246 OFFCURVE",
"123 275 OFFCURVE",
"125 282 CURVE",
"151 276 OFFCURVE",
"191 271 OFFCURVE",
"233 271 CURVE SMOOTH",
"315 271 OFFCURVE",
"416 311 OFFCURVE",
"416 413 CURVE SMOOTH"
);
},
{
closed = 1;
nodes = (
"351 348 OFFCURVE",
"308 310 OFFCURVE",
"231 310 CURVE SMOOTH",
"185 310 OFFCURVE",
"141 325 OFFCURVE",
"136 333 CURVE",
"155 441 OFFCURVE",
"208 492 OFFCURVE",
"267 492 CURVE SMOOTH",
"326 492 OFFCURVE",
"351 456 OFFCURVE",
"351 416 CURVE SMOOTH"
);
}
);
};
components = (
{
name = e;
},
{
name = acutecomb;
transform = "{1, 0, 0, 1, 234, 0}";
}
);
layerId = "220B7CD1-1E4F-4884-BA06-A44A5DCE8B14";
width = 462;
},
{
background = {
paths = (
{
closed = 1;
nodes = (
"381 783 OFFCURVE",
"370 806 OFFCURVE",
"358 806 CURVE SMOOTH",
"354 806 OFFCURVE",
"350 805 OFFCURVE",
"345 800 CURVE SMOOTH",
"328 783 OFFCURVE",
"208 673 OFFCURVE",
"195 652 CURVE SMOOTH",
"192 647 OFFCURVE",
"190 641 OFFCURVE",
"190 636 CURVE SMOOTH",
"190 622 OFFCURVE",
"203 610 OFFCURVE",
"205 607 CURVE",
"211 614 OFFCURVE",
"326 722 OFFCURVE",
"378 759 CURVE SMOOTH",
"381 761 OFFCURVE",
"381 766 OFFCURVE",
"381 771 CURVE SMOOTH"
);
},
{
closed = 1;
nodes = (
"416 472 OFFCURVE",
"378 524 OFFCURVE",
"280 524 CURVE SMOOTH",
"168 524 OFFCURVE",
"63 450 OFFCURVE",
"63 222 CURVE SMOOTH",
"63 53 OFFCURVE",
"139 -13 OFFCURVE",
"237 -13 CURVE SMOOTH",
"311 -13 OFFCURVE",
"368 16 OFFCURVE",
"411 62 CURVE SMOOTH",
"417 68 OFFCURVE",
"418 71 OFFCURVE",
"418 77 CURVE SMOOTH",
"418 89 OFFCURVE",
"412 103 OFFCURVE",
"406 103 CURVE SMOOTH",
"402 103 OFFCURVE",
"400 100 OFFCURVE",
"387 88 CURVE SMOOTH",
"366 69 OFFCURVE",
"314 30 OFFCURVE",
"253 30 CURVE SMOOTH",
"162 30 OFFCURVE",
"123 112 OFFCURVE",
"123 227 CURVE SMOOTH",
"123 246 OFFCURVE",
"123 275 OFFCURVE",
"125 282 CURVE",
"151 276 OFFCURVE",
"191 271 OFFCURVE",
"233 271 CURVE SMOOTH",
"315 271 OFFCURVE",
"416 311 OFFCURVE",
"416 413 CURVE SMOOTH"
);
},
{
closed = 1;
nodes = (
"351 348 OFFCURVE",
"308 310 OFFCURVE",
"231 310 CURVE SMOOTH",
"185 310 OFFCURVE",
"141 325 OFFCURVE",
"136 333 CURVE",
"155 441 OFFCURVE",
"208 492 OFFCURVE",
"267 492 CURVE SMOOTH",
"326 492 OFFCURVE",
"351 456 OFFCURVE",
"351 416 CURVE SMOOTH"
);
}
);
};
components = (
{
name = e;
},
{
name = acutecomb;
transform = "{1, 0, 0, 1, 234, 0}";
}
);
layerId = "63F4CE79-9D5F-46D3-B41C-385689F27F0A";
width = 496;
}
);
note = eacute;
unicode = 00E9;
},
{
color = 4;
glyphname = eogonek;
lastChange = "2022-09-23 14:50:00 +0000";
layers = (
{
anchors = (
{
name = bottom;
position = "{231, 0}";
},
{
name = ogonek;
position = "{368, 0}";
},
{
name = top;
position = "{296, 524}";
}
);
layerId = "220B7CD1-1E4F-4884-BA06-A44A5DCE8B14";
paths = (
{
closed = 1;
nodes = (
"311 -13 OFFCURVE",
"368 16 OFFCURVE",
"411 62 CURVE SMOOTH",
"417 68 OFFCURVE",
"418 71 OFFCURVE",
"418 77 CURVE SMOOTH",
"418 89 OFFCURVE",
"412 103 OFFCURVE",
"406 103 CURVE SMOOTH",
"402 103 OFFCURVE",
"400 100 OFFCURVE",
"387 88 CURVE SMOOTH",
"366 69 OFFCURVE",
"314 30 OFFCURVE",
"253 30 CURVE SMOOTH",
"162 30 OFFCURVE",
"123 112 OFFCURVE",
"123 227 CURVE SMOOTH",
"123 246 OFFCURVE",
"123 275 OFFCURVE",
"125 282 CURVE",
"151 276 OFFCURVE",
"191 271 OFFCURVE",
"233 271 CURVE SMOOTH",
"315 271 OFFCURVE",
"416 311 OFFCURVE",
"416 413 CURVE SMOOTH",
"416 472 OFFCURVE",
"378 524 OFFCURVE",
"280 524 CURVE SMOOTH",
"168 524 OFFCURVE",
"63 450 OFFCURVE",
"63 222 CURVE SMOOTH",
"63 53 OFFCURVE",
"139 -13 OFFCURVE",
"237 -13 CURVE SMOOTH"
);
},
{
closed = 1;
nodes = (
"335 -188 OFFCURVE",
"370 -157 OFFCURVE",
"403 -114 CURVE SMOOTH",
"405 -112 OFFCURVE",
"406 -108 OFFCURVE",
"406 -104 CURVE SMOOTH",
"406 -91 OFFCURVE",
"396 -75 OFFCURVE",
"392 -75 CURVE SMOOTH",
"389 -75 OFFCURVE",
"388 -78 OFFCURVE",
"385 -81 CURVE",
"364 -109 OFFCURVE",
"332 -134 OFFCURVE",
"313 -134 CURVE SMOOTH",
"301 -134 OFFCURVE",
"297 -127 OFFCURVE",
"297 -99 CURVE SMOOTH",
"297 -28 OFFCURVE",
"411 53 OFFCURVE",
"411 62 CURVE",
"317 16 OFFCURVE",
"240 -54 OFFCURVE",
"240 -112 CURVE SMOOTH",
"240 -135 OFFCURVE",
"240 -149 OFFCURVE",
"243 -155 CURVE SMOOTH",
"248 -166 OFFCURVE",
"282 -188 OFFCURVE",
"293 -188 CURVE SMOOTH"
);
},
{
closed = 1;
nodes = (
"185 310 OFFCURVE",
"141 325 OFFCURVE",
"136 333 CURVE",
"155 441 OFFCURVE",
"208 492 OFFCURVE",
"267 492 CURVE SMOOTH",
"326 492 OFFCURVE",
"351 456 OFFCURVE",
"351 416 CURVE SMOOTH",
"351 348 OFFCURVE",
"308 310 OFFCURVE",
"231 310 CURVE SMOOTH"
);
}
);
width = 462;
},
{
anchors = (
{
name = bottom;
position = "{231, 0}";
},
{
name = ogonek;
position = "{368, 0}";
},
{
name = top;
position = "{296, 524}";
}
);
layerId = "63F4CE79-9D5F-46D3-B41C-385689F27F0A";
paths = (
{
closed = 1;
nodes = (
"311 -13 OFFCURVE",
"368 16 OFFCURVE",
"411 62 CURVE SMOOTH",
"417 68 OFFCURVE",
"418 71 OFFCURVE",
"418 77 CURVE SMOOTH",
"418 89 OFFCURVE",
"412 103 OFFCURVE",
"406 103 CURVE SMOOTH",
"402 103 OFFCURVE",
"400 100 OFFCURVE",
"387 88 CURVE SMOOTH",
"366 69 OFFCURVE",
"314 30 OFFCURVE",
"253 30 CURVE SMOOTH",
"162 30 OFFCURVE",
"123 112 OFFCURVE",
"123 227 CURVE SMOOTH",
"123 246 OFFCURVE",
"123 275 OFFCURVE",
"125 282 CURVE",
"151 276 OFFCURVE",
"191 271 OFFCURVE",
"233 271 CURVE SMOOTH",
"315 271 OFFCURVE",
"416 311 OFFCURVE",
"416 413 CURVE SMOOTH",
"416 472 OFFCURVE",
"378 524 OFFCURVE",
"280 524 CURVE SMOOTH",
"168 524 OFFCURVE",
"63 450 OFFCURVE",
"63 222 CURVE SMOOTH",
"63 53 OFFCURVE",
"139 -13 OFFCURVE",
"237 -13 CURVE SMOOTH"
);
},
{
closed = 1;
nodes = (
"335 -188 OFFCURVE",
"370 -157 OFFCURVE",
"403 -114 CURVE SMOOTH",
"405 -112 OFFCURVE",
"406 -108 OFFCURVE",
"406 -104 CURVE SMOOTH",
"406 -91 OFFCURVE",
"396 -75 OFFCURVE",
"392 -75 CURVE SMOOTH",
"389 -75 OFFCURVE",
"388 -78 OFFCURVE",
"385 -81 CURVE",
"364 -109 OFFCURVE",
"332 -134 OFFCURVE",
"313 -134 CURVE SMOOTH",
"301 -134 OFFCURVE",
"297 -127 OFFCURVE",
"297 -99 CURVE SMOOTH",
"297 -28 OFFCURVE",
"411 53 OFFCURVE",
"411 62 CURVE",
"317 16 OFFCURVE",
"240 -54 OFFCURVE",
"240 -112 CURVE SMOOTH",
"240 -135 OFFCURVE",
"240 -149 OFFCURVE",
"243 -155 CURVE SMOOTH",
"248 -166 OFFCURVE",
"282 -188 OFFCURVE",
"293 -188 CURVE SMOOTH"
);
},
{
closed = 1;
nodes = (
"185 310 OFFCURVE",
"141 325 OFFCURVE",
"136 333 CURVE",
"155 441 OFFCURVE",
"208 492 OFFCURVE",
"267 492 CURVE SMOOTH",
"326 492 OFFCURVE",
"351 456 OFFCURVE",
"351 416 CURVE SMOOTH",
"351 348 OFFCURVE",
"308 310 OFFCURVE",
"231 310 CURVE SMOOTH"
);
}
);
width = 462;
}
);
unicode = 0119;
},
{
color = 4;
glyphname = eopen;
lastChange = "2022-09-23 14:50:00 +0000";
layers = (
{
layerId = "220B7CD1-1E4F-4884-BA06-A44A5DCE8B14";
paths = (
{
closed = 1;
nodes = (
"308 -8 OFFCURVE",
"340 1 OFFCURVE",
"364 14 CURVE SMOOTH",
"376 20 OFFCURVE",
"382 28 OFFCURVE",
"384 47 CURVE SMOOTH",
"385 59 OFFCURVE",
"385 65 OFFCURVE",
"376 65 CURVE SMOOTH",
"364 65 OFFCURVE",
"314 28 OFFCURVE",
"256 28 CURVE SMOOTH",
"160 28 OFFCURVE",
"93 59 OFFCURVE",
"99 140 CURVE SMOOTH",
"105 222 OFFCURVE",
"137 254 OFFCURVE",
"279 254 CURVE SMOOTH",
"288 254 OFFCURVE",
"291 266 OFFCURVE",
"292 278 CURVE SMOOTH",
"293 290 OFFCURVE",
"289 294 OFFCURVE",
"278 294 CURVE SMOOTH",
"171 294 OFFCURVE",
"131 318 OFFCURVE",
"137 390 CURVE SMOOTH",
"142 450 OFFCURVE",
"200 481 OFFCURVE",
"276 481 CURVE SMOOTH",
"334 481 OFFCURVE",
"380 444 OFFCURVE",
"392 444 CURVE SMOOTH",
"401 444 OFFCURVE",
"402 450 OFFCURVE",
"402 462 CURVE SMOOTH",
"402 481 OFFCURVE",
"397 489 OFFCURVE",
"386 495 CURVE SMOOTH",
"363 508 OFFCURVE",
"332 517 OFFCURVE",
"274 517 CURVE SMOOTH",
"163 517 OFFCURVE",
"82 462 OFFCURVE",
"76 386 CURVE SMOOTH",
"72 332 OFFCURVE",
"100 293 OFFCURVE",
"151 275 CURVE",
"83 256 OFFCURVE",
"38 204 OFFCURVE",
"35 153 CURVE SMOOTH",
"29 47 OFFCURVE",
"93 -8 OFFCURVE",
"250 -8 CURVE SMOOTH"
);
}
);
width = 425;
},
{
layerId = "63F4CE79-9D5F-46D3-B41C-385689F27F0A";
paths = (
{
closed = 1;
nodes = (
"308 -8 OFFCURVE",
"340 1 OFFCURVE",
"364 14 CURVE SMOOTH",
"376 20 OFFCURVE",
"382 28 OFFCURVE",
"384 47 CURVE SMOOTH",
"385 59 OFFCURVE",
"385 65 OFFCURVE",
"376 65 CURVE SMOOTH",
"364 65 OFFCURVE",
"314 28 OFFCURVE",
"256 28 CURVE SMOOTH",
"160 28 OFFCURVE",
"93 59 OFFCURVE",
"99 140 CURVE SMOOTH",
"105 222 OFFCURVE",
"137 254 OFFCURVE",
"279 254 CURVE SMOOTH",
"288 254 OFFCURVE",
"291 266 OFFCURVE",
"292 278 CURVE SMOOTH",
"293 290 OFFCURVE",
"289 294 OFFCURVE",
"278 294 CURVE SMOOTH",
"171 294 OFFCURVE",
"131 318 OFFCURVE",
"137 390 CURVE SMOOTH",
"142 450 OFFCURVE",
"200 481 OFFCURVE",
"276 481 CURVE SMOOTH",
"334 481 OFFCURVE",
"380 444 OFFCURVE",
"392 444 CURVE SMOOTH",
"401 444 OFFCURVE",
"402 450 OFFCURVE",
"402 462 CURVE SMOOTH",
"402 481 OFFCURVE",
"397 489 OFFCURVE",
"386 495 CURVE SMOOTH",
"363 508 OFFCURVE",
"332 517 OFFCURVE",
"274 517 CURVE SMOOTH",
"163 517 OFFCURVE",
"82 462 OFFCURVE",
"76 386 CURVE SMOOTH",
"72 332 OFFCURVE",
"100 293 OFFCURVE",
"151 275 CURVE",
"83 256 OFFCURVE",
"38 204 OFFCURVE",
"35 153 CURVE SMOOTH",
"29 47 OFFCURVE",
"93 -8 OFFCURVE",
"250 -8 CURVE SMOOTH"
);
}
);
width = 425;
}
);
unicode = 025B;
},
{
color = 1;
glyphname = esh;
lastChange = "2022-09-23 20:43:31 +0000";
layers = (
{
anchors = (
{
name = bottom;
position = "{153, 0}";
},
{
name = top;
position = "{199, 756}";
}
);
layerId = "220B7CD1-1E4F-4884-BA06-A44A5DCE8B14";
paths = (
{
closed = 1;
nodes = (
"54 -244 OFFCURVE",
"97 -225 OFFCURVE",
"134 -190 CURVE SMOOTH",
"171 -155 OFFCURVE",
"199 -99 OFFCURVE",
"199 -28 CURVE SMOOTH",
"199 499 LINE",
"202 571 LINE SMOOTH",
"206 668 OFFCURVE",
"239 704 OFFCURVE",
"290 704 CURVE SMOOTH",
"352 704 OFFCURVE",
"401 687 OFFCURVE",
"407 685 CURVE SMOOTH",
"410 684 OFFCURVE",
"423 678 OFFCURVE",
"428 678 CURVE SMOOTH",
"434 678 OFFCURVE",
"438 691 OFFCURVE",
"438 703 CURVE SMOOTH",
"438 709 OFFCURVE",
"437 713 OFFCURVE",
"432 717 CURVE SMOOTH",
"407 734 OFFCURVE",
"356 756 OFFCURVE",
"314 756 CURVE SMOOTH",
"273 756 OFFCURVE",
"235 736 OFFCURVE",
"200 703 CURVE SMOOTH",
"156 662 OFFCURVE",
"135 606 OFFCURVE",
"135 504 CURVE SMOOTH",
"135 499 LINE",
"140 40 LINE SMOOTH",
"140 -169 OFFCURVE",
"105 -193 OFFCURVE",
"24 -193 CURVE SMOOTH",
"-46 -193 OFFCURVE",
"-135 -161 OFFCURVE",
"-168 -147 CURVE SMOOTH",
"-174 -145 OFFCURVE",
"-181 -141 OFFCURVE",
"-183 -141 CURVE SMOOTH",
"-186 -141 OFFCURVE",
"-190 -146 OFFCURVE",
"-190 -164 CURVE SMOOTH",
"-190 -174 OFFCURVE",
"-186 -185 OFFCURVE",
"-180 -189 CURVE SMOOTH",
"-168 -198 OFFCURVE",
"-68 -244 OFFCURVE",
"21 -244 CURVE SMOOTH"
);
}
);
width = 305;
},
{
anchors = (
{
name = bottom;
position = "{153, 0}";
},
{
name = top;
position = "{199, 756}";
}
);
layerId = "63F4CE79-9D5F-46D3-B41C-385689F27F0A";
paths = (
{
closed = 1;
nodes = (
"99 -244 OFFCURVE",
"153 -229 OFFCURVE",
"201 -185 CURVE SMOOTH",
"251 -139 OFFCURVE",
"290 -61 OFFCURVE",
"294 65 CURVE",
"304 499 LINE",
"304 536 LINE SMOOTH",
"304 644 OFFCURVE",
"328 661 OFFCURVE",
"361 661 CURVE SMOOTH",
"375 661 OFFCURVE",
"385 660 OFFCURVE",
"395 659 CURVE SMOOTH",
"403 658 OFFCURVE",
"407 657 OFFCURVE",
"410 657 CURVE SMOOTH",
"420 657 OFFCURVE",
"428 674 OFFCURVE",
"428 690 CURVE SMOOTH",
"428 713 OFFCURVE",
"424 730 OFFCURVE",
"409 738 CURVE SMOOTH",
"394 746 OFFCURVE",
"353 756 OFFCURVE",
"306 756 CURVE SMOOTH",
"257 756 OFFCURVE",
"193 751 OFFCURVE",
"140 704 CURVE SMOOTH",
"88 658 OFFCURVE",
"81 593 OFFCURVE",
"81 534 CURVE SMOOTH",
"81 499 LINE",
"86 146 LINE",
"86 -90 OFFCURVE",
"83 -151 OFFCURVE",
"8 -151 CURVE SMOOTH",
"-1 -151 OFFCURVE",
"-15 -149 OFFCURVE",
"-26 -147 CURVE SMOOTH",
"-33 -146 OFFCURVE",
"-38 -145 OFFCURVE",
"-41 -145 CURVE SMOOTH",
"-51 -145 OFFCURVE",
"-59 -160 OFFCURVE",
"-59 -182 CURVE SMOOTH",
"-59 -203 OFFCURVE",
"-56 -222 OFFCURVE",
"-35 -231 CURVE SMOOTH",
"-13 -240 OFFCURVE",
"20 -244 OFFCURVE",
"49 -244 CURVE SMOOTH"
);
}
);
width = 390;
}
);
unicode = 0283;
},
{
color = 1;
glyphname = f;
lastChange = "2022-09-23 16:26:56 +0000";
layers = (
{
anchors = (
{
name = bottom;
position = "{153, 0}";
},
{
name = top;
position = "{199, 652}";
}
);
layerId = "220B7CD1-1E4F-4884-BA06-A44A5DCE8B14";
paths = (
{
closed = 1;
nodes = (
"54 -244 OFFCURVE",
"97 -225 OFFCURVE",
"134 -190 CURVE SMOOTH",
"171 -155 OFFCURVE",
"199 -99 OFFCURVE",
"199 -28 CURVE SMOOTH",
"199 453 LINE",
"398 453 LINE SMOOTH",
"414 453 OFFCURVE",
"421 474 OFFCURVE",
"421 491 CURVE SMOOTH",
"421 497 OFFCURVE",
"418 499 OFFCURVE",
"413 499 CURVE SMOOTH",
"199 499 LINE",
"202 571 LINE SMOOTH",
"206 668 OFFCURVE",
"239 704 OFFCURVE",
"290 704 CURVE SMOOTH",
"352 704 OFFCURVE",
"401 687 OFFCURVE",
"407 685 CURVE SMOOTH",
"410 684 OFFCURVE",
"423 678 OFFCURVE",
"428 678 CURVE SMOOTH",
"434 678 OFFCURVE",
"438 691 OFFCURVE",
"438 703 CURVE SMOOTH",
"438 709 OFFCURVE",
"437 713 OFFCURVE",
"432 717 CURVE SMOOTH",
"407 734 OFFCURVE",
"356 756 OFFCURVE",
"314 756 CURVE SMOOTH",
"273 756 OFFCURVE",
"235 736 OFFCURVE",
"200 703 CURVE SMOOTH",
"156 662 OFFCURVE",
"135 606 OFFCURVE",
"135 504 CURVE SMOOTH",
"135 499 LINE",
"61 499 LINE SMOOTH",
"45 499 OFFCURVE",
"39 478 OFFCURVE",
"39 461 CURVE SMOOTH",
"39 454 OFFCURVE",
"41 453 OFFCURVE",
"46 453 CURVE SMOOTH",
"140 453 LINE",
"140 40 LINE SMOOTH",
"140 -169 OFFCURVE",
"105 -193 OFFCURVE",
"24 -193 CURVE SMOOTH",
"-46 -193 OFFCURVE",
"-135 -161 OFFCURVE",
"-168 -147 CURVE SMOOTH",
"-174 -145 OFFCURVE",
"-181 -141 OFFCURVE",
"-183 -141 CURVE SMOOTH",
"-186 -141 OFFCURVE",
"-190 -146 OFFCURVE",
"-190 -164 CURVE SMOOTH",
"-190 -174 OFFCURVE",
"-186 -185 OFFCURVE",
"-180 -189 CURVE SMOOTH",
"-168 -198 OFFCURVE",
"-68 -244 OFFCURVE",
"21 -244 CURVE SMOOTH"
);
}
);
width = 305;
},
{
anchors = (
{
name = bottom;
position = "{153, 0}";
},
{
name = top;
position = "{199, 652}";
}
);
layerId = "63F4CE79-9D5F-46D3-B41C-385689F27F0A";
paths = (
{
closed = 1;
nodes = (
"99 -244 OFFCURVE",
"153 -229 OFFCURVE",
"201 -185 CURVE SMOOTH",
"251 -139 OFFCURVE",
"290 -61 OFFCURVE",
"294 65 CURVE SMOOTH",
"305 415 LINE",
"384 415 LINE SMOOTH",
"399 415 OFFCURVE",
"410 437 OFFCURVE",
"410 473 CURVE SMOOTH",
"410 496 OFFCURVE",
"407 499 OFFCURVE",
"397 499 CURVE SMOOTH",
"304 499 LINE",
"304 536 LINE SMOOTH",
"304 644 OFFCURVE",
"328 661 OFFCURVE",
"361 661 CURVE SMOOTH",
"375 661 OFFCURVE",
"385 660 OFFCURVE",
"395 659 CURVE SMOOTH",
"403 658 OFFCURVE",
"407 657 OFFCURVE",
"410 657 CURVE SMOOTH",
"420 657 OFFCURVE",
"428 674 OFFCURVE",
"428 690 CURVE SMOOTH",
"428 713 OFFCURVE",
"424 730 OFFCURVE",
"409 738 CURVE SMOOTH",
"394 746 OFFCURVE",
"353 756 OFFCURVE",
"306 756 CURVE SMOOTH",
"257 756 OFFCURVE",
"193 751 OFFCURVE",
"140 704 CURVE SMOOTH",
"88 658 OFFCURVE",
"81 593 OFFCURVE",
"81 534 CURVE SMOOTH",
"81 499 LINE",
"40 499 LINE SMOOTH",
"25 499 OFFCURVE",
"14 477 OFFCURVE",
"14 441 CURVE SMOOTH",
"14 418 OFFCURVE",
"17 415 OFFCURVE",
"27 415 CURVE SMOOTH",
"86 415 LINE",
"86 146 LINE SMOOTH",
"86 -90 OFFCURVE",
"83 -151 OFFCURVE",
"8 -151 CURVE SMOOTH",
"-1 -151 OFFCURVE",
"-15 -149 OFFCURVE",
"-26 -147 CURVE SMOOTH",
"-33 -146 OFFCURVE",
"-38 -145 OFFCURVE",
"-41 -145 CURVE SMOOTH",
"-51 -145 OFFCURVE",
"-59 -160 OFFCURVE",
"-59 -182 CURVE SMOOTH",
"-59 -203 OFFCURVE",
"-56 -222 OFFCURVE",
"-35 -231 CURVE SMOOTH",
"-13 -240 OFFCURVE",
"20 -244 OFFCURVE",
"49 -244 CURVE SMOOTH"
);
}
);
width = 390;
}
);
note = f;
unicode = 0066;
},
